<svg xmlns="http://www.w3.org/2000/svg" xmlns:xlink="http://www.w3.org/1999/xlink" width="247.528" height="66.81" viewBox="0 0 247.528 66.81">
  <defs>
    <clipPath id="clip-path">
      <rect id="Rectangle_3" data-name="Rectangle 3" width="247.528" height="66.81" transform="translate(-1268 921)" fill="none"/>
    </clipPath>
    <clipPath id="clip-path-2">
      <rect id="Rectangle_2" data-name="Rectangle 2" width="247.528" height="66.81" fill="none"/>
    </clipPath>
    <clipPath id="clip-path-3">
      <rect id="Rectangle_1" data-name="Rectangle 1" width="8.717" height="12.888" fill="none"/>
    </clipPath>
  </defs>
  <g id="Group_7" data-name="Group 7" transform="translate(1268 -921)">
    <g id="Group_6" data-name="Group 6" clip-path="url(#clip-path)">
      <g id="Group_5" data-name="Group 5" transform="translate(-1264.528 921)">
        <g id="Group_4" data-name="Group 4" clip-path="url(#clip-path-2)">
          <path id="Path_1" data-name="Path 1" d="M23.686,51.9l-1.794,8.683A5.17,5.17,0,0,0,26.955,66.8c29.3,0,46.186-17.94,46.186-41.224C73.141,9.733,59.495,0,39.36,0H8.824L.045,61.836a4.342,4.342,0,0,0,4.279,4.952l5.257.021a4.342,4.342,0,0,0,4.35-4.02l1.227-24.353" transform="translate(-0.001 0)" fill="#013046"/>
          <path id="Path_2" data-name="Path 2" d="M123.882,72.046c-2.255-3.172-7.507-3.931-10.981-2.606a2.318,2.318,0,0,1-1.988-.162,21.761,21.761,0,0,0-9.3-2.811,24.088,24.088,0,0,0-10.249,1.467,2.338,2.338,0,0,1-2.068-.206c-3.184-2-8.14-2.476-10.963.255-3.192,3.088-2.68,8.919.163,12.252a19.987,19.987,0,0,0-1.33,5.82c-.909,12.123,4.952,21.844,17.075,22.753s25.915-7.338,26.825-19.46a23.392,23.392,0,0,0-.209-5.385c3.647-2.706,5.671-8.2,3.027-11.917" transform="translate(-63.482 -55.095)" fill="#f7b801"/>
          <path id="Path_3" data-name="Path 3" d="M136.521,142.949c-2.532,3.181-2.917,7.088-.858,8.726s5.779.388,8.312-2.792,2.917-7.088.858-8.726-5.779-.388-8.312,2.792" transform="translate(-112.003 -116.253)" fill="#013046"/>
          <path id="Path_4" data-name="Path 4" d="M243.826,154.676c2.053,3.509,5.558,5.278,7.828,3.949s2.448-5.25.4-8.759-5.558-5.278-7.828-3.949-2.448,5.25-.395,8.759" transform="translate(-202.093 -121.287)" fill="#013046"/>
          <path id="Path_5" data-name="Path 5" d="M208.111,239.585l-1.722,1.654a1.486,1.486,0,0,1-2.1,0l-1.927-1.651a1.485,1.485,0,0,1,1.049-2.537l3.649,0a1.485,1.485,0,0,1,1.052,2.535" transform="translate(-168.35 -197.637)" fill="#013046"/>
          <path id="Path_6" data-name="Path 6" d="M191.814,266.968s-7.629,4.993-13.081-.618a11.138,11.138,0,0,0,6.518,4.288c3.945.726,6.563-3.671,6.563-3.671" transform="translate(-149.016 -222.065)" fill="#013046"/>
          <path id="Path_7" data-name="Path 7" d="M177.65,263.674s-1.957.938-1.486,2.741a2.652,2.652,0,0,1-.07-1.856c.338-.893,1.557-.884,1.557-.884" transform="translate(-146.698 -219.834)" fill="#013046"/>
          <path id="Path_8" data-name="Path 8" d="M253.193,266.271a1.751,1.751,0,0,1,.34,2.1,1.812,1.812,0,0,0,.464-1.181c-.017-.652-.8-.922-.8-.922" transform="translate(-211.096 -222)" fill="#013046"/>
          <path id="Path_9" data-name="Path 9" d="M78,147.336a6.588,6.588,0,0,1,3.1-5.375" transform="translate(-65.027 -118.358)" fill="#013046"/>
          <path id="Path_10" data-name="Path 10" d="M340.465,165.544a6.588,6.588,0,0,1,2.213,5.8" transform="translate(-283.858 -138.02)" fill="#013046"/>
          <path id="Path_11" data-name="Path 11" d="M259.869,65.789a2.348,2.348,0,0,0,1.569-1.642c.071-.242.176.5.189.75a2.481,2.481,0,0,1-.442,2.123,7.108,7.108,0,0,0,2.321-3.891c.064-.268.428.686.359,1.726-.1,1.537-.191,2.337-.7,2.854" transform="translate(-216.662 -52.594)" fill="#f7b801"/>
          <g id="Group_3" data-name="Group 3" transform="translate(14.979 41.963)" opacity="0.3">
            <g id="Group_2" data-name="Group 2">
              <g id="Group_1" data-name="Group 1" clip-path="url(#clip-path-3)">
                <path id="Path_12" data-name="Path 12" d="M90.093,252.386s1.054,6.207,8.07,12.888l.647-2.982a14.162,14.162,0,0,1-4.046-2.685,17.451,17.451,0,0,1-4.671-7.221" transform="translate(-90.093 -252.386)" fill="#013046"/>
              </g>
            </g>
          </g>
          <path id="Path_13" data-name="Path 13" d="M219.309,261.1s.919,2.809-.381,4.283l.9-.537s.433-2.636-.087-3.641Z" transform="translate(-182.528 -217.687)" fill="#013046"/>
        </g>
      </g>
      <text id="Dpanda" transform="translate(-1183.565 968.405)" fill="#013046" font-size="39" font-family="Montserrat-ExtraBoldItalic, Montserrat" font-weight="800" font-style="italic"><tspan x="0" y="0" letter-spacing="-0.034em">Dpa</tspan><tspan y="0" letter-spacing="-0.032em">n</tspan><tspan y="0" letter-spacing="-0.035em">d</tspan><tspan y="0">a</tspan></text>
    </g>
  </g>
</svg>
