<svg xmlns="http://www.w3.org/2000/svg" xmlns:xlink="http://www.w3.org/1999/xlink" width="56.379" height="51.5" viewBox="0 0 56.379 51.5">
  <defs>
    <clipPath id="clip-path">
      <rect id="Rectangle_8160" data-name="Rectangle 8160" width="6.72" height="9.935" fill="none"/>
    </clipPath>
  </defs>
  <g id="round_panda_log" data-name="round panda log" transform="translate(-1846.81 1156.75)">
    <path id="Path_36318" data-name="Path 36318" d="M18.258,40,16.875,46.7a3.986,3.986,0,0,0,3.9,4.792c22.582,0,35.6-13.829,35.6-31.777C56.38,7.5,45.861,0,30.341,0H6.8L.035,47.666a3.347,3.347,0,0,0,3.3,3.817l4.052.016a3.347,3.347,0,0,0,3.353-3.1l.946-18.772" transform="translate(1846.81 -1156.75)" fill="#013046"/>
    <path id="Path_36319" data-name="Path 36319" d="M112.942,70.679c-1.738-2.445-5.786-3.031-8.465-2.009a1.788,1.788,0,0,1-1.532-.125,16.775,16.775,0,0,0-7.171-2.167,18.568,18.568,0,0,0-7.9,1.131,1.8,1.8,0,0,1-1.594-.159c-2.454-1.54-6.275-1.908-8.451.2-2.461,2.38-2.066,6.875.126,9.444a15.407,15.407,0,0,0-1.025,4.486c-.7,9.345,3.817,16.838,13.162,17.539s19.977-5.656,20.678-15a18.032,18.032,0,0,0-.161-4.151c2.811-2.086,4.371-6.321,2.333-9.187" transform="translate(1780.427 -1214.363)" fill="#f7b801"/>
    <path id="Path_36320" data-name="Path 36320" d="M136.021,142.144c-1.952,2.452-2.248,5.463-.662,6.726s4.455.3,6.407-2.153,2.248-5.463.662-6.726-4.455-.3-6.407,2.153" transform="translate(1729.689 -1278.315)" fill="#013046"/>
    <path id="Path_36321" data-name="Path 36321" d="M243.5,152.567c1.582,2.705,4.284,4.068,6.034,3.044s1.887-4.047.3-6.752-4.284-4.068-6.035-3.044-1.887,4.047-.3,6.752" transform="translate(1635.482 -1283.58)" fill="#013046"/>
    <path id="Path_36322" data-name="Path 36322" d="M206.693,239l-1.327,1.275a1.145,1.145,0,0,1-1.619,0l-1.486-1.273a1.145,1.145,0,0,1,.808-1.955l2.813,0a1.145,1.145,0,0,1,.811,1.954" transform="translate(1670.767 -1363.419)" fill="#013046"/>
    <path id="Path_36323" data-name="Path 36323" d="M188.816,266.826s-5.881,3.849-10.083-.476a8.586,8.586,0,0,0,5.024,3.306c3.041.56,5.059-2.829,5.059-2.829" transform="translate(1690.984 -1388.964)" fill="#013046"/>
    <path id="Path_36324" data-name="Path 36324" d="M177.261,263.674s-1.509.723-1.146,2.112a2.044,2.044,0,0,1-.054-1.431c.261-.688,1.2-.682,1.2-.682" transform="translate(1693.408 -1386.63)" fill="#013046"/>
    <path id="Path_36325" data-name="Path 36325" d="M253.193,266.271a1.35,1.35,0,0,1,.262,1.621,1.4,1.4,0,0,0,.358-.91c-.013-.5-.62-.71-.62-.71" transform="translate(1626.068 -1388.895)" fill="#013046"/>
    <path id="Path_36326" data-name="Path 36326" d="M78,146.1a5.078,5.078,0,0,1,2.391-4.143" transform="translate(1778.812 -1280.517)" fill="#013046"/>
    <path id="Path_36327" data-name="Path 36327" d="M340.465,165.544a5.078,5.078,0,0,1,1.706,4.469" transform="translate(1549.981 -1301.077)" fill="#013046"/>
    <path id="Path_36328" data-name="Path 36328" d="M259.869,65.169a1.81,1.81,0,0,0,1.209-1.266c.055-.186.135.384.146.578a1.912,1.912,0,0,1-.341,1.636,5.479,5.479,0,0,0,1.789-3c.049-.207.33.529.277,1.33-.079,1.185-.148,1.8-.537,2.2" transform="translate(1620.247 -1211.747)" fill="#f7b801"/>
    <g id="Group_12756" data-name="Group 12756" transform="translate(1858.357 -1124.403)" opacity="0.3">
      <g id="Group_12755" data-name="Group 12755">
        <g id="Group_12754" data-name="Group 12754" clip-path="url(#clip-path)">
          <path id="Path_36329" data-name="Path 36329" d="M90.093,252.386s.812,4.784,6.221,9.935l.5-2.3a10.918,10.918,0,0,1-3.119-2.07,13.452,13.452,0,0,1-3.6-5.566" transform="translate(-90.093 -252.386)" fill="#013046"/>
        </g>
      </g>
    </g>
    <path id="Path_36330" data-name="Path 36330" d="M219.222,261.1s.708,2.165-.294,3.3l.695-.414a6.649,6.649,0,0,0-.067-2.807Z" transform="translate(1655.941 -1384.385)" fill="#013046"/>
  </g>
</svg>
