<svg id="Group_13779" data-name="Group 13779" xmlns="http://www.w3.org/2000/svg" xmlns:xlink="http://www.w3.org/1999/xlink" width="129.486" height="129.383" viewBox="0 0 129.486 129.383">
  <defs>
    <clipPath id="clip-path">
      <rect id="Rectangle_8894" data-name="Rectangle 8894" width="129.486" height="129.383" fill="none"/>
    </clipPath>
    <clipPath id="clip-path-3">
      <rect id="Rectangle_8892" data-name="Rectangle 8892" width="119.108" height="68.844" fill="none"/>
    </clipPath>
  </defs>
  <g id="Group_13778" data-name="Group 13778" clip-path="url(#clip-path)">
    <g id="Group_13777" data-name="Group 13777">
      <g id="Group_13776" data-name="Group 13776" clip-path="url(#clip-path)">
        <g id="Group_13775" data-name="Group 13775" transform="translate(10.378 60.54)" opacity="0.2" style="mix-blend-mode: multiply;isolation: isolate">
          <g id="Group_13774" data-name="Group 13774">
            <g id="Group_13773" data-name="Group 13773" clip-path="url(#clip-path-3)">
              <path id="Path_36679" data-name="Path 36679" d="M166.619,283.339,60.441,344.7a11.789,11.789,0,0,1-10.7,0c-2.963-1.71-2.978-4.484-.033-6.2l106.178-61.364Z" transform="translate(-47.511 -277.143)" fill="#130901"/>
            </g>
          </g>
        </g>
        <path id="Path_36680" data-name="Path 36680" d="M365.5,191.38c.386,1.544-1.55,4.717-1.55,4.717a25.961,25.961,0,0,1-2.455,4.563c-.921,1.133-1.578,3.192-3.221,2.975-.824-.109-1.15-1.038-1.134-1.984a5.944,5.944,0,0,1,1.056-2.752,29.1,29.1,0,0,0,2.083-3.447c.175-.393,1.934-4.562,1.934-4.562s2.966-.79,3.286.49" transform="translate(-279.124 -149.003)" fill="#262626"/>
        <path id="Path_36681" data-name="Path 36681" d="M510.617,110.617c.387,1.544-1.55,4.717-1.55,4.717a25.929,25.929,0,0,1-2.455,4.563c-.921,1.133-1.578,3.192-3.221,2.975-.824-.108-1.149-1.038-1.134-1.983a5.946,5.946,0,0,1,1.057-2.752,29.043,29.043,0,0,0,2.083-3.447c.175-.393,1.934-4.562,1.934-4.562s2.966-.79,3.286.49" transform="translate(-392.543 -85.882)" fill="#262626"/>
        <path id="Path_36682" data-name="Path 36682" d="M205.8,287.178c.386,1.544-1.55,4.717-1.55,4.717a25.937,25.937,0,0,1-2.455,4.563c-.921,1.133-1.578,3.192-3.22,2.976-.825-.109-1.15-1.039-1.134-1.984a5.95,5.95,0,0,1,1.056-2.753,29.068,29.068,0,0,0,2.083-3.447c.175-.393,1.934-4.562,1.934-4.562s2.966-.79,3.286.49" transform="translate(-154.308 -223.875)" fill="#262626"/>
        <path id="Path_36683" data-name="Path 36683" d="M495.016,61.387l-5.654-3.193,11.714-6.824,5.652,3.194Z" transform="translate(-382.465 -40.149)" fill="#ffe75c"/>
        <path id="Path_36684" data-name="Path 36684" d="M425.177,114.187,419.525,111l5.9-3.436,5.653,3.193Z" transform="translate(-327.883 -84.064)" fill="#ffe75c"/>
        <path id="Path_36685" data-name="Path 36685" d="M451.633,8.643,445.979,5.45,455.336,0l5.654,3.193Z" transform="translate(-348.559 -0.001)" fill="#ffe75c"/>
        <path id="Path_36686" data-name="Path 36686" d="M451.752,46.187,446.1,42.994l-.12-18.046,5.653,3.193Z" transform="translate(-348.558 -19.499)" fill="#ffd506"/>
        <path id="Path_36687" data-name="Path 36687" d="M382.05,82.557,376.4,79.366l9.35-5.448,5.652,3.194Z" transform="translate(-294.175 -57.771)" fill="#ffe75c"/>
        <path id="Path_36688" data-name="Path 36688" d="M382.121,112.831l-5.653-3.19L376.4,98.858l5.654,3.191Z" transform="translate(-294.175 -77.263)" fill="#ffd506"/>
        <path id="Path_36689" data-name="Path 36689" d="M173.132,178.036l-5.654-3.2,45.709-26.62,5.653,3.19Z" transform="translate(-130.894 -115.842)" fill="#ffe75c"/>
        <path id="Path_36690" data-name="Path 36690" d="M71.394,296.6c.038,5.951-4.086,13.2-9.193,16.181-2.538,1.476-4.847,1.625-6.536.673l5.652,3.19c1.688.953,4,.8,6.534-.672,5.11-2.974,9.235-10.23,9.194-16.179-.02-2.988-1.091-5.086-2.8-6.052l-5.652-3.191c1.709.965,2.781,3.06,2.8,6.048" transform="translate(-43.506 -227.079)" fill="#ffd506"/>
        <path id="Path_36691" data-name="Path 36691" d="M123.421,38.113l-.12-18.046,9.358-5.449.119,18.045,11.713-6.823.073,10.87L62.538,84.487c-2.025,10.52-9.24,21.66-17.889,26.7-10.267,5.978-18.688,1.129-18.767-10.81s8.21-26.511,18.478-32.492c8.651-5.037,15.959-2.371,18.106,5.733l45.707-26.626-.07-10.781,9.347-5.446.072,10.782ZM53.768,84.135c-.038-5.941-4.23-8.352-9.336-5.376S35.2,88.986,35.239,94.928s4.228,8.361,9.335,5.386,9.235-10.23,9.194-16.178" transform="translate(-20.228 -11.425)" fill="#f9ac12"/>
        <path id="Path_36692" data-name="Path 36692" d="M11.281,282.553l-5.653-3.193C2.192,277.42.041,273.207,0,267.2c-.08-11.938,8.212-26.512,18.479-32.49,5.09-2.967,9.718-3.263,13.1-1.353l5.651,3.194c-3.384-1.91-8.011-1.616-13.1,1.349-10.268,5.981-18.558,20.555-18.478,32.492.039,6.008,2.193,10.218,5.628,12.161" transform="translate(0.001 -181.44)" fill="#ffe75c"/>
        <path id="Path_36693" data-name="Path 36693" d="M210.824,315.947l.59-3.389,2.849.663-.578,3.347c0,.468.54.539.788.938Z" transform="translate(-164.771 -244.282)" fill="#ffe1cc"/>
        <path id="Path_36694" data-name="Path 36694" d="M244.829,281.31s-.359.5-.6-.027c-.2-.453-.688-.931-.97-.957-.251-.022-.621.1-.276.531a3.843,3.843,0,0,1,.736,1.469,1.508,1.508,0,0,0,.864,1.081Z" transform="translate(-189.798 -219.09)" fill="#ffe8d9"/>
        <path id="Path_36695" data-name="Path 36695" d="M177.072,485.32A3.643,3.643,0,0,0,175.8,487.3a1.282,1.282,0,0,0,.057.98s.5.185.941.38c.085.037.191.231.263.3a6.916,6.916,0,0,0,1.369,1.1,3.228,3.228,0,0,0,1.943.355,10.465,10.465,0,0,0,1.892-.905.824.824,0,0,0-.371-.923,3.258,3.258,0,0,0-1.484-.13s-1.18-1.106-1.593-1.537-1.742-1.6-1.742-1.6" transform="translate(-137.345 -379.306)" fill="#000102"/>
        <path id="Path_36696" data-name="Path 36696" d="M187.065,393.48c-.482,3.218-2.029,10.75-2.459,11.929-.924,2.545-3.221,9-3.352,9.194-.038.058-.272.622-1.766-.891-.466-.472-1.362-.809-1.886-.4,0,0,1.984-7.2,2.814-9.684,1.272-3.816,1.329-11.88,1.329-11.88Z" transform="translate(-138.807 -306.172)" fill="#343434"/>
        <path id="Path_36697" data-name="Path 36697" d="M182.948,501.319c.045.043.894,1.095,1.078,1.242a1.368,1.368,0,0,0,.9.355,2.837,2.837,0,0,1-1.622-.259,6.363,6.363,0,0,1-1.47-1.229c-.065,0,.851.324.851.324Z" transform="translate(-142.107 -391.81)" fill="#383736"/>
        <path id="Path_36698" data-name="Path 36698" d="M177.234,496.269a4.494,4.494,0,0,1,.634,1.02l-1.979-.881a.892.892,0,0,1-.132-.316c-.126-.672,1.111-.308,1.477.177" transform="translate(-137.357 -387.437)" fill="#4c4b4b"/>
        <path id="Path_36699" data-name="Path 36699" d="M235.613,476.421s-.473.857.134.833a13.48,13.48,0,0,0,1.548-.317c.618-.2,1.413-.287,1.619.165a.95.95,0,0,1,.094.278c.01.352.1.045-.325.53a11.574,11.574,0,0,1-1.339,1.128,2.4,2.4,0,0,1-1.249.482,3.02,3.02,0,0,0-.743.038c-.31.079-.178.465-.138.776l-.916.523a1.54,1.54,0,0,1-1.861-.607l-.317-2.488Z" transform="translate(-181.414 -372.351)" fill="#000102"/>
        <path id="Path_36700" data-name="Path 36700" d="M246.583,482.278a5.692,5.692,0,0,0,1.364-.455,7.4,7.4,0,0,0,1.561-1.1.891.891,0,0,0,.354-.652,1.64,1.64,0,0,1,.048.2c.063.314-.193.521-.4.711a6.156,6.156,0,0,1-1.262.947,3.145,3.145,0,0,1-1.18.39l-.712.123c-.127.023-.295.121-.291.155,0-.018.017-.244.519-.319" transform="translate(-192.313 -375.206)" fill="#000102"/>
        <path id="Path_36701" data-name="Path 36701" d="M235.268,493.291l.909-.518c.013.1.034.209.047.308l-.916.522a1.539,1.539,0,0,1-1.861-.608l-.04-.312a1.541,1.541,0,0,0,1.861.607" transform="translate(-182.421 -385.061)" fill="#000102"/>
        <path id="Path_36702" data-name="Path 36702" d="M209.364,398.573s3.448,9.724,3.667,10.673c.479,2.075,1.752,7.882,1.752,7.882a3.523,3.523,0,0,1-2.46,2.227,1.226,1.226,0,0,1-1.481-1.023,52.476,52.476,0,0,0-1.916-7.773c-.493-1.23-2.549-4.978-3.46-7.074a10.4,10.4,0,0,1-.73-3.626Z" transform="translate(-160.013 -311.508)" fill="#4b4b4b"/>
        <path id="Path_36703" data-name="Path 36703" d="M203.133,330.5c.915,1.949.142,6.446-.071,8.253-.231,1.96-.7,6.3-.7,6.3a1.909,1.909,0,0,1-.966,1.315,9.336,9.336,0,0,1-5.171.566c-2.03-.557-2.55-.9-2.55-1.736,0,0,.416-9.393.84-15.326.124-1.736,2.446-3.139,2.446-3.139a8.349,8.349,0,0,1,2.955,1.019,15.023,15.023,0,0,1,3.216,2.747" transform="translate(-151.369 -255.364)" fill="#343434"/>
        <path id="Path_36704" data-name="Path 36704" d="M208.993,323.278c-.382-.09-.409-.069-.548.132-.164.238-.182.348-.31.511s.036.219.036.219a5.581,5.581,0,0,1,3.357,1.07,5.891,5.891,0,0,1,.708.5l.022-.379c-.184-.664-.722-1.017-1.865-1.521a11.5,11.5,0,0,0-1.4-.528" transform="translate(-162.633 -252.621)" fill="#d5e6ef"/>
        <path id="Path_36705" data-name="Path 36705" d="M250.021,276.758a4.985,4.985,0,0,1,.3-1.772,7.4,7.4,0,0,0,.519-2.594c0-.865,1.037-.259,1.037-.259a2.15,2.15,0,0,1,.735,1.988,6.652,6.652,0,0,1-1.038,2.637Z" transform="translate(-195.406 -212.526)" fill="#ffe8d9"/>
        <path id="Path_36706" data-name="Path 36706" d="M216.795,293.273l2.045.249-.856,5.259c-.216,1.512-.875,1.689-1.336,1.656a5.539,5.539,0,0,1-2.481-1.055c-.985-.7-.817-2.471-.813-2.617l-.043-3.563Z" transform="translate(-166.715 -229.154)" fill="#ffe1cc"/>
        <path id="Path_36707" data-name="Path 36707" d="M208.307,286.565a6.049,6.049,0,0,1,2.553-.326,5.668,5.668,0,0,0,1.256.149c.031,0-.2.071-.175.229.014.077.27.068.433.068.124,0,.676.108.8.338.005.013-.27.054-.109.189a3.682,3.682,0,0,1,.744.77,3.174,3.174,0,0,1,.324.811c-.072.144-.471-.019-.64.15a2.5,2.5,0,0,0-.53.82,8.01,8.01,0,0,0-.391,1.438l-.115.552c-.007.2-.3-.406-.436-.586s-.409-.072-1.194.611c-.337.294-1.757,1.451-1.757,1.451-.392.239-.737.377-1.075-.137a14.716,14.716,0,0,1-1.05-2.121c-.48-1.753-.1-3.615,1.366-4.406" transform="translate(-161.583 -223.688)" fill="#a35f16"/>
        <path id="Path_36708" data-name="Path 36708" d="M228.485,308.6a.77.77,0,0,0-.6.544.89.89,0,0,0,.063.735.791.791,0,0,0,.364.293s.024-.843.038-1a5.4,5.4,0,0,1,.13-.574" transform="translate(-178.071 -241.19)" fill="#efcfbd"/>
        <path id="Path_36709" data-name="Path 36709" d="M229.733,307.774s.248,0,.059.343a1.752,1.752,0,0,0-.251.758c-.013.182.012.73.012.73s-.163.218-.3-.119a2.191,2.191,0,0,1-.078-.853c.009-.157.295-.949.56-.86" transform="translate(-179.107 -240.538)" fill="#ffe8d9"/>
        <path id="Path_36710" data-name="Path 36710" d="M227.236,292.608c.386,1.544.949,6.969.949,6.969a2.879,2.879,0,0,1-1.275,2.48c-1.883,1.318-5.371,3.617-7.013,3.4a2.167,2.167,0,0,1-1.913-1.7,2.885,2.885,0,0,1,2.054-2.409,25.077,25.077,0,0,0,4.675-1.912c.357-.242-.39-7.194-.39-7.194s2.592-.914,2.912.366" transform="translate(-170.364 -228.157)" fill="#424242"/>
        <path id="Path_36711" data-name="Path 36711" d="M349.361,392.913s-.526-.627-.64-.568a3.12,3.12,0,0,0-.489.746c-.03.087-.03.2.175.337s.954-.515.954-.515" transform="translate(-272.153 -306.637)" fill="#231f20"/>
        <path id="Path_36712" data-name="Path 36712" d="M386.9,371.159s-.455.824.13.8a12.848,12.848,0,0,0,1.488-.3c.6-.191,1.36-.277,1.559.159a.938.938,0,0,1,.09.267c.009.338.092.043-.314.51a11.11,11.11,0,0,1-1.288,1.085,2.3,2.3,0,0,1-1.2.463,2.945,2.945,0,0,0-.716.038c-.3.076-.171.448-.133.746l-.881.5a1.483,1.483,0,0,1-1.791-.583l-.3-2.394Z" transform="translate(-299.759 -290.082)" fill="#231f20"/>
        <path id="Path_36713" data-name="Path 36713" d="M397.461,376.79a5.4,5.4,0,0,0,1.312-.438,7.137,7.137,0,0,0,1.5-1.056.86.86,0,0,0,.34-.628,1.581,1.581,0,0,1,.047.19c.061.3-.186.5-.386.684a5.94,5.94,0,0,1-1.214.911,3.022,3.022,0,0,1-1.135.375l-.684.12c-.123.02-.284.115-.281.149,0-.018.017-.235.5-.307" transform="translate(-310.248 -292.826)" fill="#231f20"/>
        <path id="Path_36714" data-name="Path 36714" d="M386.577,387.386l.873-.5c.014.1.034.2.047.3l-.883.5a1.479,1.479,0,0,1-1.79-.585l-.037-.3a1.48,1.48,0,0,0,1.79.584" transform="translate(-300.733 -302.308)" fill="#231f20"/>
        <path id="Path_36715" data-name="Path 36715" d="M376.2,200.6l2.026.248-.848,5.211c-.213,1.5-.866,1.674-1.323,1.64a5.476,5.476,0,0,1-2.459-1.046c-.975-.691-.81-2.448-.806-2.592l-.042-3.53Z" transform="translate(-291.325 -156.729)" fill="#ffe1cc"/>
        <path id="Path_36716" data-name="Path 36716" d="M370.527,222.276l.567-3.262,2.742.639-.355,3.166c0,.452.318.575.557.957Z" transform="translate(-289.588 -171.172)" fill="#ffe1cc"/>
        <path id="Path_36717" data-name="Path 36717" d="M365.113,293.257s2.278,8.732,2.489,9.645c.46,2,1.519,8.912,1.519,8.912s.081,1.324-1.734,1.724a2.234,2.234,0,0,1-2.173-.8c-.912-6.391-1.264-7.654-1.544-8.357-.475-1.183-2-4.092-2.88-6.109a10.012,10.012,0,0,1-.7-3.489Z" transform="translate(-281.429 -229.197)" fill="#343434"/>
        <path id="Path_36718" data-name="Path 36718" d="M347.692,392.976a3.514,3.514,0,0,0-1.224,1.9,1.228,1.228,0,0,0,.054.943s.481.179.906.365c.08.037.184.222.252.288A6.538,6.538,0,0,0,349,397.534a3.1,3.1,0,0,0,1.87.343,10.11,10.11,0,0,0,1.82-.872.792.792,0,0,0-.357-.888,3.134,3.134,0,0,0-1.428-.125s-1.135-1.064-1.532-1.48-1.677-1.537-1.677-1.537" transform="translate(-270.735 -307.134)" fill="#231f20"/>
        <path id="Path_36719" data-name="Path 36719" d="M357.371,304.6c-.463,3.1-1.953,10.345-2.365,11.48-.89,2.448-3.1,8.657-3.226,8.846-.037.057-.233.365-1.67-1.089-.448-.454-1.323-1.017-1.826-.626,0,0,1.892-6.453,2.69-8.848,1.223-3.672,1.279-11.432,1.279-11.432Z" transform="translate(-272.204 -236.762)" fill="#4b4b4b"/>
        <path id="Path_36720" data-name="Path 36720" d="M364.953,236.07a7.28,7.28,0,0,1,1.244,4.75c-.222,4.339-1.058,9.457-1.058,9.457,0,.382-.5,1.057-1.669,1.335a4.244,4.244,0,0,1-2.67,0c-1.948-.556-3.283-2.145-3.283-2.949,0,0-.093-4.8-.289-12.071-.072-2.647,2.691-3.62,2.691-3.62l2.613.913Z" transform="translate(-279.193 -182.083)" fill="#343434"/>
        <path id="Path_36721" data-name="Path 36721" d="M353.347,408.379c.044.041.861,1.053,1.037,1.193a1.322,1.322,0,0,0,.863.343,2.741,2.741,0,0,1-1.562-.248,6.1,6.1,0,0,1-1.414-1.185c-.062,0,.819.313.819.313Z" transform="translate(-275.318 -319.172)" fill="#383736"/>
        <path id="Path_36722" data-name="Path 36722" d="M347.848,403.516a4.349,4.349,0,0,1,.61.981l-1.9-.849a.851.851,0,0,1-.127-.3c-.121-.646,1.069-.3,1.421.171" transform="translate(-270.746 -314.961)" fill="#4c4b4b"/>
        <path id="Path_36723" data-name="Path 36723" d="M369.325,229.377c-.367-.087-.46-.024-.531.2a4.131,4.131,0,0,1-.153.448c-.071.177.012.189.012.189a12.549,12.549,0,0,1,3.214,1.441c.974.664,1.049.728,1.049.728l-.227-.749a3.348,3.348,0,0,0-2.015-1.752,10.9,10.9,0,0,0-1.348-.508" transform="translate(-288.091 -179.242)" fill="#d5e6ef"/>
        <path id="Path_36724" data-name="Path 36724" d="M367.793,193.77a3.5,3.5,0,0,1,2.753-.222c.107.039,1.5.732,1.682.841a3.681,3.681,0,0,1,1.1.78c.188.27-.06.841-.405,1.111a1.192,1.192,0,0,0-.517.659c-.129.392-.234.843-.354,1.308l-.147.663c-.009.2-.3-.4-.432-.58s-.4-.071-1.183.605c-.335.291-1.742,1.437-1.742,1.437-.389.237-.729.374-1.065-.135a14.6,14.6,0,0,1-1.041-2.1c-.476-1.738-.1-3.582,1.355-4.366" transform="translate(-286.241 -151.125)" fill="#513103"/>
        <path id="Path_36725" data-name="Path 36725" d="M387.784,215.792a.762.762,0,0,0-.591.539.874.874,0,0,0,.063.727.775.775,0,0,0,.36.29s.024-.835.038-.988a5.358,5.358,0,0,1,.13-.568" transform="translate(-302.576 -168.654)" fill="#efcfbd"/>
        <path id="Path_36726" data-name="Path 36726" d="M389.021,214.971s.245,0,.059.34a1.729,1.729,0,0,0-.249.75c-.013.181.011.723.011.723s-.162.218-.3-.118a2.144,2.144,0,0,1-.078-.843c.009-.156.292-.941.554-.852" transform="translate(-303.603 -168.007)" fill="#ffe8d9"/>
        <path id="Path_36727" data-name="Path 36727" d="M409.594,178.824a5,5,0,0,1,.3-1.772,7.4,7.4,0,0,0,.519-2.594c0-.864,1.038-.26,1.038-.26a2.15,2.15,0,0,1,.735,1.989,6.637,6.637,0,0,1-1.038,2.637Z" transform="translate(-320.121 -135.985)" fill="#ffe8d9"/>
        <path id="Path_36728" data-name="Path 36728" d="M404.4,183.377s-.359.5-.6-.026c-.2-.453-.688-.931-.97-.956-.251-.023-.622.1-.276.531a3.835,3.835,0,0,1,.735,1.469,1.508,1.508,0,0,0,.865,1.082Z" transform="translate(-314.514 -142.549)" fill="#ffe8d9"/>
        <path id="Path_36729" data-name="Path 36729" d="M386.086,194.675c.386,1.544.949,6.969.949,6.969a4.077,4.077,0,0,1-1.408,2.838c-1.786,1.41-5.007,4.15-7.082,4.006a2.105,2.105,0,0,1-1.912-1.7,2.886,2.886,0,0,1,2.054-2.409,26.008,26.008,0,0,0,4.878-2.877c.357-.242-.389-7.194-.389-7.194s2.591-.914,2.911.366" transform="translate(-294.357 -151.617)" fill="#424242"/>
        <path id="Path_36730" data-name="Path 36730" d="M515.556,141.511l-.9,1.742,3.135,1.493.249-2.14Z" transform="translate(-402.237 -110.599)" fill="#ffe1cc"/>
        <path id="Path_36731" data-name="Path 36731" d="M490.092,305.969a3.646,3.646,0,0,0-1.273,1.976,1.282,1.282,0,0,0,.057.98s.5.185.941.38c.085.037.192.231.263.3a6.934,6.934,0,0,0,1.369,1.1,3.228,3.228,0,0,0,1.943.355,10.473,10.473,0,0,0,1.892-.905.823.823,0,0,0-.371-.922,3.255,3.255,0,0,0-1.483-.13s-1.181-1.106-1.593-1.537-1.742-1.6-1.742-1.6" transform="translate(-381.988 -239.132)" fill="#000102"/>
        <path id="Path_36732" data-name="Path 36732" d="M498.138,231.729c-.482,3.218.554,7.678.124,8.858-.925,2.544-3.857,9.58-3.988,9.777-.038.058-.272.622-1.766-.891-.466-.472-1.362-.808-1.886-.4,0,0,1.809-6.295,2.638-8.782,1.272-3.816-.921-8.336-.921-8.336Z" transform="translate(-383.45 -181.11)" fill="#343434"/>
        <path id="Path_36733" data-name="Path 36733" d="M495.969,321.969c.045.044.894,1.095,1.078,1.242a1.372,1.372,0,0,0,.9.355,2.844,2.844,0,0,1-1.622-.259,6.379,6.379,0,0,1-1.469-1.229c-.065,0,.85.324.85.324Z" transform="translate(-386.751 -251.637)" fill="#383736"/>
        <path id="Path_36734" data-name="Path 36734" d="M490.254,316.92a4.5,4.5,0,0,1,.634,1.02l-1.979-.882a.9.9,0,0,1-.132-.315c-.126-.672,1.111-.308,1.477.177" transform="translate(-382 -247.266)" fill="#4c4b4b"/>
        <path id="Path_36735" data-name="Path 36735" d="M549.765,294.519s-.473.856.134.832a13.4,13.4,0,0,0,1.547-.316c.618-.2,1.413-.287,1.62.165a.948.948,0,0,1,.093.278c.01.352.1.045-.325.53a11.538,11.538,0,0,1-1.339,1.128,2.391,2.391,0,0,1-1.249.482,3.014,3.014,0,0,0-.744.039c-.31.079-.178.465-.138.776l-.916.523a1.54,1.54,0,0,1-1.861-.607l-.317-2.487Z" transform="translate(-426.942 -230.184)" fill="#000102"/>
        <path id="Path_36736" data-name="Path 36736" d="M560.735,300.375a5.665,5.665,0,0,0,1.364-.455,7.422,7.422,0,0,0,1.561-1.1.893.893,0,0,0,.354-.653,1.62,1.62,0,0,1,.048.2c.063.314-.193.521-.4.71a6.141,6.141,0,0,1-1.262.947,3.146,3.146,0,0,1-1.18.39l-.711.123c-.127.023-.295.121-.291.156,0-.019.017-.244.519-.319" transform="translate(-437.841 -233.037)" fill="#000102"/>
        <path id="Path_36737" data-name="Path 36737" d="M549.419,311.39l.909-.518c.013.1.034.209.048.308l-.916.522a1.538,1.538,0,0,1-1.861-.607l-.04-.312a1.541,1.541,0,0,0,1.861.607" transform="translate(-427.948 -242.895)" fill="#000102"/>
        <path id="Path_36738" data-name="Path 36738" d="M513.277,222.238s5,8.638,5.219,9.588c.479,2.075,2.436,7.752,2.436,7.752a3.524,3.524,0,0,1-2.46,2.226,1.225,1.225,0,0,1-1.48-1.023,30.263,30.263,0,0,0-2.227-7.126c-.493-1.23-4.474-4.408-5.385-6.5a10.4,10.4,0,0,1-.73-3.626Z" transform="translate(-397.538 -173.692)" fill="#4b4b4b"/>
        <path id="Path_36739" data-name="Path 36739" d="M507.045,154.17c.915,1.949.142,6.446-.071,8.253-.23,1.959-.7,6.3-.7,6.3a1.909,1.909,0,0,1-.966,1.316,9.337,9.337,0,0,1-5.171.566c-2.03-.557-2.551-.9-2.551-1.735,0,0,.417-9.393.84-15.326.124-1.736,2.446-3.139,2.446-3.139a8.343,8.343,0,0,1,2.955,1.019,15.015,15.015,0,0,1,3.216,2.747" transform="translate(-388.894 -117.549)" fill="#343434"/>
        <path id="Path_36740" data-name="Path 36740" d="M512.906,146.943c-.382-.09-.409-.069-.548.132-.164.237-.182.348-.31.511s.037.219.037.219a5.582,5.582,0,0,1,3.357,1.07,5.956,5.956,0,0,1,.709.5l.021-.379c-.184-.664-.722-1.016-1.865-1.521a11.414,11.414,0,0,0-1.4-.528" transform="translate(-400.158 -114.805)" fill="#d5e6ef"/>
        <path id="Path_36741" data-name="Path 36741" d="M546.311,102.176s-1.037-.605-1.037.26a8.956,8.956,0,0,1-.409,2.382l0-.027s-.359.5-.6-.027c-.2-.453-.688-.931-.97-.957-.251-.022-.622.1-.276.531a3.837,3.837,0,0,1,.736,1.469,1.5,1.5,0,0,0,.692.99v0h.008a1.445,1.445,0,0,0,.165.087l.01-.087h1.373a6.65,6.65,0,0,0,1.038-2.637,2.151,2.151,0,0,0-.735-1.988" transform="translate(-424.296 -79.696)" fill="#ffe8d9"/>
        <path id="Path_36742" data-name="Path 36742" d="M520.709,116.94l2.045.25-.856,5.259c-.216,1.512-.875,1.689-1.336,1.656a5.535,5.535,0,0,1-2.481-1.056c-.985-.7-.817-2.471-.814-2.616l-.042-3.563Z" transform="translate(-404.241 -91.34)" fill="#ffe1cc"/>
        <path id="Path_36743" data-name="Path 36743" d="M512.22,109.75a4.626,4.626,0,0,1,2.522-.489,4.059,4.059,0,0,1,2.977,1.906,5.271,5.271,0,0,1,.324.811c-.072.144-.471-.019-.64.15a2.507,2.507,0,0,0-.531.819,8.018,8.018,0,0,0-.391,1.438l-.115.552c-.007.2-.3-.406-.436-.587s-.409-.072-1.194.611c-.338.294-1.758,1.451-1.758,1.451-.392.239-.737.377-1.075-.137a14.719,14.719,0,0,1-1.05-2.121c-.48-1.754-.1-3.615,1.366-4.406" transform="translate(-399.109 -85.391)" fill="#ad4e00"/>
        <path id="Path_36744" data-name="Path 36744" d="M532.4,132.269a.77.77,0,0,0-.6.544.889.889,0,0,0,.063.734.794.794,0,0,0,.364.293s.024-.843.038-1a5.383,5.383,0,0,1,.131-.573" transform="translate(-415.596 -103.376)" fill="#efcfbd"/>
        <path id="Path_36745" data-name="Path 36745" d="M533.646,131.44s.248,0,.059.343a1.756,1.756,0,0,0-.251.758c-.013.183.012.73.012.73s-.163.218-.3-.119a2.186,2.186,0,0,1-.078-.853c.009-.157.295-.949.56-.86" transform="translate(-416.632 -102.722)" fill="#ffe8d9"/>
        <path id="Path_36746" data-name="Path 36746" d="M530.492,120.586c.386,1.544,1.642,7.614,1.642,7.614s.037,1.045-1.549,2.256c-1.828,1.4-5.132,2.421-6.774,2.2a2.169,2.169,0,0,1-1.913-1.7,2.816,2.816,0,0,1,2.248-2.337c1.543-.249,3.272.112,4.815-.983.352-.25-.983-6.581-.983-6.581s2.193-1.753,2.513-.473" transform="translate(-407.891 -93.88)" fill="#424242"/>
      </g>
    </g>
  </g>
</svg>
