<svg xmlns="http://www.w3.org/2000/svg" xmlns:xlink="http://www.w3.org/1999/xlink" width="748" height="429.295" viewBox="0 0 748 429.295">
  <defs>
    <linearGradient id="linear-gradient" x1="0.5" y1="1" x2="0.5" gradientUnits="objectBoundingBox">
      <stop offset="0" stop-color="#575554"/>
      <stop offset="0.464" stop-color="#575554"/>
      <stop offset="1" stop-color="#131313"/>
    </linearGradient>
    <linearGradient id="linear-gradient-2" x1="-17.669" y1="0.5" x2="-16.669" y2="0.5" gradientUnits="objectBoundingBox">
      <stop offset="0" stop-color="#767676"/>
      <stop offset="0.001" stop-color="#6e6e6e"/>
      <stop offset="0.004" stop-color="#585858"/>
      <stop offset="0.007" stop-color="#4a4a4a"/>
      <stop offset="0.009" stop-color="#454545"/>
      <stop offset="0.013" stop-color="#484848"/>
      <stop offset="0.016" stop-color="#525252"/>
      <stop offset="0.018" stop-color="#5d5d5d"/>
      <stop offset="0.025" stop-color="#7c7c7c"/>
      <stop offset="0.402" stop-color="#838383"/>
      <stop offset="0.406" stop-color="#838383"/>
      <stop offset="0.935" stop-color="#6a6a6a"/>
      <stop offset="0.959" stop-color="#484848"/>
      <stop offset="0.973" stop-color="#383838"/>
      <stop offset="0.979" stop-color="#3d3d3d"/>
      <stop offset="0.986" stop-color="#4b4b4b"/>
      <stop offset="0.994" stop-color="#636363"/>
      <stop offset="1" stop-color="#7c7c7c"/>
    </linearGradient>
    <linearGradient id="linear-gradient-3" y1="0.5" x2="1" y2="0.5" gradientUnits="objectBoundingBox">
      <stop offset="0" stop-color="#505050"/>
      <stop offset="0.001" stop-color="#484848"/>
      <stop offset="0.004" stop-color="#323232"/>
      <stop offset="0.007" stop-color="#242424"/>
      <stop offset="0.009" stop-color="#1f1f1f"/>
      <stop offset="0.013" stop-color="#222"/>
      <stop offset="0.016" stop-color="#2c2c2c"/>
      <stop offset="0.018" stop-color="#373737"/>
      <stop offset="0.025" stop-color="#565656"/>
      <stop offset="0.402" stop-color="#5e5e5e"/>
      <stop offset="0.406" stop-color="#5e5e5e"/>
      <stop offset="0.935" stop-color="#444"/>
      <stop offset="0.959" stop-color="#222"/>
      <stop offset="0.973" stop-color="#121212"/>
      <stop offset="0.979" stop-color="#171717"/>
      <stop offset="0.986" stop-color="#252525"/>
      <stop offset="0.994" stop-color="#3d3d3d"/>
      <stop offset="1" stop-color="#565656"/>
    </linearGradient>
    <linearGradient id="linear-gradient-4" y1="0.5" x2="1" y2="0.5" gradientUnits="objectBoundingBox">
      <stop offset="0" stop-color="#565656"/>
      <stop offset="0.061" stop-color="#444"/>
      <stop offset="0.508" stop-color="#565656"/>
      <stop offset="0.94" stop-color="#444"/>
      <stop offset="1" stop-color="#565656"/>
    </linearGradient>
    <linearGradient id="linear-gradient-5" x1="-17.669" y1="0.5" x2="-16.669" y2="0.5" gradientUnits="objectBoundingBox">
      <stop offset="0" stop-color="#a7a7a7"/>
      <stop offset="0.001" stop-color="#8e8e8e"/>
      <stop offset="0.004" stop-color="#6f6f6f"/>
      <stop offset="0.006" stop-color="#585858"/>
      <stop offset="0.008" stop-color="#4a4a4a"/>
      <stop offset="0.009" stop-color="#454545"/>
      <stop offset="0.012" stop-color="#484848"/>
      <stop offset="0.014" stop-color="#525252"/>
      <stop offset="0.016" stop-color="#636363"/>
      <stop offset="0.018" stop-color="#757575"/>
      <stop offset="0.025" stop-color="#6b6968"/>
      <stop offset="0.402" stop-color="#6b6968"/>
      <stop offset="0.406" stop-color="#6b6968"/>
      <stop offset="0.935" stop-color="#8d8d8d"/>
      <stop offset="0.949" stop-color="#636363"/>
      <stop offset="0.965" stop-color="#3b3b3b"/>
      <stop offset="0.973" stop-color="#2b2b2b"/>
      <stop offset="0.979" stop-color="#303030"/>
      <stop offset="0.987" stop-color="#3e3e3e"/>
      <stop offset="0.995" stop-color="#565554"/>
      <stop offset="1" stop-color="#6b6968"/>
    </linearGradient>
    <linearGradient id="linear-gradient-6" x1="0.5" y1="1" x2="0.5" gradientUnits="objectBoundingBox">
      <stop offset="0" stop-color="#504e4e"/>
      <stop offset="0.095" stop-color="#585656"/>
      <stop offset="0.241" stop-color="#6e6b6b"/>
      <stop offset="0.419" stop-color="#918e8e"/>
      <stop offset="0.447" stop-color="#979494"/>
      <stop offset="1" stop-color="#7b7878"/>
    </linearGradient>
    <linearGradient id="linear-gradient-7" x1="0.5" y1="1" x2="0.5" gradientUnits="objectBoundingBox">
      <stop offset="0" stop-color="#1a1a1a"/>
      <stop offset="0.28" stop-color="#1d1d1d"/>
      <stop offset="0.448" stop-color="#252525"/>
      <stop offset="0.586" stop-color="#333"/>
      <stop offset="0.709" stop-color="#474747"/>
      <stop offset="0.82" stop-color="#626262"/>
      <stop offset="0.922" stop-color="#818181"/>
      <stop offset="1" stop-color="#9f9f9f"/>
    </linearGradient>
    <linearGradient id="linear-gradient-8" y1="0.5" x2="1" y2="0.5" gradientUnits="objectBoundingBox">
      <stop offset="0" stop-color="#818181"/>
      <stop offset="0.001" stop-color="#696969"/>
      <stop offset="0.004" stop-color="#4a4a4a"/>
      <stop offset="0.006" stop-color="#333"/>
      <stop offset="0.007" stop-color="#252525"/>
      <stop offset="0.009" stop-color="#202020"/>
      <stop offset="0.012" stop-color="#232323"/>
      <stop offset="0.014" stop-color="#2d2d2d"/>
      <stop offset="0.016" stop-color="#3e3e3e"/>
      <stop offset="0.018" stop-color="#4f4f4f"/>
      <stop offset="0.025" stop-color="#6b6968"/>
      <stop offset="0.402" stop-color="#6b6968"/>
      <stop offset="0.406" stop-color="#6b6968"/>
      <stop offset="0.935" stop-color="#686868"/>
      <stop offset="0.946" stop-color="#4b4b4b"/>
      <stop offset="0.964" stop-color="#232323"/>
      <stop offset="0.973" stop-color="#131313"/>
      <stop offset="0.978" stop-color="#181818"/>
      <stop offset="0.984" stop-color="#262626"/>
      <stop offset="0.991" stop-color="#3e3d3d"/>
      <stop offset="0.998" stop-color="#605e5d"/>
      <stop offset="1" stop-color="#6b6968"/>
    </linearGradient>
    <linearGradient id="linear-gradient-9" y1="0.5" x2="1" y2="0.5" gradientUnits="objectBoundingBox">
      <stop offset="0" stop-color="#838180"/>
      <stop offset="0.061" stop-color="#6b6968"/>
      <stop offset="0.508" stop-color="#838180"/>
      <stop offset="0.94" stop-color="#6b6968"/>
      <stop offset="1" stop-color="#838180"/>
    </linearGradient>
  </defs>
  <g id="_4249950_90969" data-name="4249950_90969" style="mix-blend-mode: normal;isolation: isolate">
    <g id="object" transform="translate(0 0)">
      <g id="Group_12753" data-name="Group 12753">
        <g id="Group_12752" data-name="Group 12752">
          <path id="Path_36307" data-name="Path 36307" d="M93.974,715.107a272.752,272.752,0,0,0,81.238,12.379H760.737a272.748,272.748,0,0,0,81.238-12.379h-748Z" transform="translate(-93.974 -298.191)" fill="url(#linear-gradient)"/>
          <g id="Group_12751" data-name="Group 12751" transform="translate(0 412.47)">
            <path id="Path_36308" data-name="Path 36308" d="M93.974,710.281v4.446H395.488a38.052,38.052,0,0,1,8.812,1.112q.51.124,1.029.219v-5.776H93.974Z" transform="translate(-93.974 -710.281)" fill="url(#linear-gradient-2)"/>
            <path id="Path_36309" data-name="Path 36309" d="M879.323,710.281v4.446H577.81A38.052,38.052,0,0,0,569,715.839q-.51.124-1.029.219v-5.776H879.323Z" transform="translate(-131.36 -710.281)" fill="url(#linear-gradient-3)"/>
            <path id="Path_36310" data-name="Path 36310" d="M557.243,710.281v5.776a21.354,21.354,0,0,1-3.9.362H435.892a21.445,21.445,0,0,1-3.9-.362v-5.776Z" transform="translate(-120.635 -710.281)" fill="url(#linear-gradient-4)"/>
          </g>
          <path id="Path_36311" data-name="Path 36311" d="M93.974,709.581v4.446H395.488a38,38,0,0,1,8.812,1.112q.51.124,1.029.219v-5.776H93.974Z" transform="translate(-93.974 -297.755)" fill="url(#linear-gradient-5)"/>
          <path id="Path_36312" data-name="Path 36312" d="M761.042,265.384H186.669a18.639,18.639,0,0,0-18.638,18.638V673.548H170.7V281.354a16.071,16.071,0,0,1,.184-2.423c.038-.263.086-.524.14-.784s.111-.515.178-.769.136-.508.216-.755a15.924,15.924,0,0,1,3.172-5.691c.165-.193.337-.381.514-.566.086-.092.175-.181.267-.274a16.233,16.233,0,0,1,2.68-2.159c.324-.206.654-.4.994-.588s.683-.356,1.035-.515a0,0,0,0,1,0,0c.235-.105.473-.2.711-.3a0,0,0,0,1,0,0,15.923,15.923,0,0,1,5.837-1.105H761a15.878,15.878,0,0,1,7.59,1.924c.336.184.67.381.994.588.429.276.845.575,1.248.886l0,0c.2.158.4.321.588.486,0,0,0,0,0,0q.434.376.838.781c.092.092.182.181.267.274.178.184.349.371.515.566a15.86,15.86,0,0,1,3.89,10.423V673.547h2.7V282.85A18.635,18.635,0,0,0,761.042,265.384Z" transform="translate(-99.815 -262.719)" fill="url(#linear-gradient-6)"/>
          <path id="Path_36313" data-name="Path 36313" d="M167.989,281.129a18.64,18.64,0,0,1,18.638-18.638H761a18.637,18.637,0,0,1,18.635,18.638v1.492a18.636,18.636,0,0,0-18.6-17.466H186.666a18.639,18.639,0,0,0-18.638,18.638Z" transform="translate(-99.812 -262.491)" fill="url(#linear-gradient-7)"/>
          <rect id="Rectangle_8158" data-name="Rectangle 8158" width="606.245" height="13.087" transform="translate(70.88 397.742)"/>
          <path id="Path_36314" data-name="Path 36314" d="M777.167,281.358V660.465H170.923V281.358a15.953,15.953,0,0,1,15.936-15.935H761.232A15.953,15.953,0,0,1,777.167,281.358Z" transform="translate(-100.043 -262.722)"/>
          <path id="Path_36315" data-name="Path 36315" d="M879.323,709.581v4.446H577.81A38,38,0,0,0,569,715.139q-.51.124-1.029.219v-5.776H879.323Z" transform="translate(-131.36 -297.755)" fill="url(#linear-gradient-8)"/>
          <path id="Path_36316" data-name="Path 36316" d="M557.243,709.581v5.776a21.375,21.375,0,0,1-3.9.362H435.892a21.358,21.358,0,0,1-3.9-.362v-5.776Z" transform="translate(-120.635 -297.755)" fill="url(#linear-gradient-9)"/>
          <path id="Path_36317" data-name="Path 36317" d="M779.639,708.5v1h-2.7v0H170.695v0h-2.664v-1Z" transform="translate(-99.815 -297.67)" fill="#131313"/>
        </g>
      </g>
    </g>
  </g>
</svg>
