<svg id="Group_13820" data-name="Group 13820" xmlns="http://www.w3.org/2000/svg" xmlns:xlink="http://www.w3.org/1999/xlink" width="153.053" height="142.393" viewBox="0 0 153.053 142.393">
  <defs>
    <clipPath id="clip-path">
      <rect id="Rectangle_8909" data-name="Rectangle 8909" width="153.053" height="142.393" fill="none"/>
    </clipPath>
    <clipPath id="clip-path-4">
      <rect id="Rectangle_8896" data-name="Rectangle 8896" width="47.413" height="31.069" fill="none"/>
    </clipPath>
    <clipPath id="clip-path-5">
      <rect id="Rectangle_8897" data-name="Rectangle 8897" width="4.355" height="57.381" fill="none"/>
    </clipPath>
    <clipPath id="clip-path-6">
      <rect id="Rectangle_8898" data-name="Rectangle 8898" width="9.328" height="30.15" fill="none"/>
    </clipPath>
    <clipPath id="clip-path-7">
      <rect id="Rectangle_8899" data-name="Rectangle 8899" width="61.312" height="35.393" fill="none"/>
    </clipPath>
    <clipPath id="clip-path-8">
      <rect id="Rectangle_8900" data-name="Rectangle 8900" width="76.118" height="43.903" fill="none"/>
    </clipPath>
    <clipPath id="clip-path-9">
      <rect id="Rectangle_8901" data-name="Rectangle 8901" width="30.004" height="17.322" fill="none"/>
    </clipPath>
    <clipPath id="clip-path-10">
      <rect id="Rectangle_8902" data-name="Rectangle 8902" width="66.194" height="38.24" fill="none"/>
    </clipPath>
    <clipPath id="clip-path-11">
      <rect id="Rectangle_8903" data-name="Rectangle 8903" width="63.71" height="40.472" fill="none"/>
    </clipPath>
    <clipPath id="clip-path-13">
      <rect id="Rectangle_8905" data-name="Rectangle 8905" width="20.14" height="19.499" fill="none"/>
    </clipPath>
    <clipPath id="clip-path-14">
      <rect id="Rectangle_8906" data-name="Rectangle 8906" width="15.384" height="6.297" fill="none"/>
    </clipPath>
    <clipPath id="clip-path-15">
      <rect id="Rectangle_8907" data-name="Rectangle 8907" width="12.867" height="22.334" fill="none"/>
    </clipPath>
  </defs>
  <g id="Group_13819" data-name="Group 13819" clip-path="url(#clip-path)">
    <g id="Group_13781" data-name="Group 13781">
      <g id="Group_13780" data-name="Group 13780" clip-path="url(#clip-path)">
        <path id="Path_36747" data-name="Path 36747" d="M214.852.338,236.13,12.623a1.573,1.573,0,0,1,.712,1.233V72.349a1.574,1.574,0,0,1-.712,1.233L214.852,85.867a1.572,1.572,0,0,1-1.423,0L192.151,73.582a1.573,1.573,0,0,1-.712-1.233V13.856a1.573,1.573,0,0,1,.712-1.233L213.429.338a1.575,1.575,0,0,1,1.424,0" transform="translate(-117.741 -0.103)" fill="#37474f"/>
        <path id="Path_36748" data-name="Path 36748" d="M191.441,34.471V92.965a1.577,1.577,0,0,0,.71,1.233l21.28,12.285a1.43,1.43,0,0,0,.71.171V46.516a1.473,1.473,0,0,1-.71-.171l-21.28-12.285-.194-.161-.253-.211a1.478,1.478,0,0,0-.263.783" transform="translate(-117.743 -20.719)" fill="#263238"/>
        <path id="Path_36749" data-name="Path 36749" d="M273.995,50.524l-15.937,9.2a1.573,1.573,0,0,0-.712,1.233v6.066c0,.454.319.638.712.411l15.936-9.2A1.574,1.574,0,0,0,274.706,57V50.935c0-.454-.319-.638-.712-.411" transform="translate(-158.276 -31.014)" fill="#455a64"/>
        <path id="Path_36750" data-name="Path 36750" d="M275.505,56.882a1.526,1.526,0,0,1-.712,1.182l-13.266,7.659c-.393.227-.712.066-.712-.36a1.526,1.526,0,0,1,.712-1.182l13.266-7.659c.393-.227.712-.066.712.36" transform="translate(-160.411 -34.7)" fill="#f0ca30"/>
        <path id="Path_36751" data-name="Path 36751" d="M275.505,64.894a1.526,1.526,0,0,1-.712,1.182l-13.266,7.659c-.393.227-.712.066-.712-.36a1.526,1.526,0,0,1,.712-1.182l13.266-7.659c.393-.227.712-.066.712.36" transform="translate(-160.411 -39.628)" fill="#263238"/>
        <path id="Path_36752" data-name="Path 36752" d="M285.46,64.534l-7.3,4.215V70.29l7.3-4.215a1.526,1.526,0,0,0,.712-1.182c0-.426-.319-.587-.712-.36" transform="translate(-171.077 -39.627)" fill="#f0ca30"/>
        <path id="Path_36753" data-name="Path 36753" d="M273.995,78.562l-15.937,9.2A1.573,1.573,0,0,0,257.346,89v6.066c0,.454.319.638.712.411l15.936-9.2a1.574,1.574,0,0,0,.712-1.233V78.972c0-.454-.319-.638-.712-.411" transform="translate(-158.276 -48.258)" fill="#455a64"/>
        <path id="Path_36754" data-name="Path 36754" d="M275.505,84.921a1.526,1.526,0,0,1-.712,1.182l-13.266,7.659c-.393.227-.712.066-.712-.36a1.526,1.526,0,0,1,.712-1.182l13.266-7.659c.393-.227.712-.066.712.36" transform="translate(-160.411 -51.945)" fill="#f0ca30"/>
        <path id="Path_36755" data-name="Path 36755" d="M275.505,92.932a1.526,1.526,0,0,1-.712,1.182l-13.266,7.659c-.393.227-.712.066-.712-.36a1.526,1.526,0,0,1,.712-1.182l13.266-7.659c.393-.227.712-.066.712.36" transform="translate(-160.411 -56.872)" fill="#263238"/>
        <path id="Path_36756" data-name="Path 36756" d="M279.06,92.572,267.753,99.1v1.542l11.307-6.528a1.526,1.526,0,0,0,.712-1.182c0-.426-.319-.587-.712-.36" transform="translate(-164.677 -56.871)" fill="#f0ca30"/>
        <path id="Path_36757" data-name="Path 36757" d="M273.995,106.6l-15.937,9.2a1.573,1.573,0,0,0-.712,1.233V123.1c0,.454.319.638.712.411l15.936-9.2a1.574,1.574,0,0,0,.712-1.233v-6.066c0-.454-.319-.638-.712-.411" transform="translate(-158.276 -65.502)" fill="#455a64"/>
        <path id="Path_36758" data-name="Path 36758" d="M275.505,112.959a1.526,1.526,0,0,1-.712,1.182L261.528,121.8c-.393.227-.712.066-.712-.36a1.526,1.526,0,0,1,.712-1.182l13.266-7.659c.393-.227.712-.066.712.36" transform="translate(-160.411 -69.189)" fill="#f0ca30"/>
        <path id="Path_36759" data-name="Path 36759" d="M275.505,120.97a1.526,1.526,0,0,1-.712,1.182l-13.266,7.659c-.393.227-.712.066-.712-.36a1.526,1.526,0,0,1,.712-1.182l13.266-7.659c.393-.227.712-.066.712.36" transform="translate(-160.411 -74.116)" fill="#263238"/>
        <path id="Path_36760" data-name="Path 36760" d="M289.727,120.611l-4.63,2.673v1.542l4.63-2.673a1.526,1.526,0,0,0,.712-1.182c0-.426-.319-.587-.712-.36" transform="translate(-175.344 -74.116)" fill="#f0ca30"/>
        <path id="Path_36761" data-name="Path 36761" d="M273.995,134.639l-15.937,9.2a1.572,1.572,0,0,0-.712,1.232v6.067c0,.453.319.638.712.41l15.936-9.2a1.574,1.574,0,0,0,.712-1.233v-6.066c0-.454-.319-.638-.712-.411" transform="translate(-158.276 -82.747)" fill="#455a64"/>
        <path id="Path_36762" data-name="Path 36762" d="M275.505,141a1.526,1.526,0,0,1-.712,1.182l-13.266,7.659c-.393.227-.712.066-.712-.36a1.526,1.526,0,0,1,.712-1.182l13.266-7.659c.393-.227.712-.066.712.36" transform="translate(-160.411 -86.433)" fill="#f0ca30"/>
        <path id="Path_36763" data-name="Path 36763" d="M275.505,149.008a1.526,1.526,0,0,1-.712,1.182l-13.266,7.659c-.393.227-.712.066-.712-.36a1.527,1.527,0,0,1,.712-1.182l13.266-7.659c.393-.227.712-.066.712.36" transform="translate(-160.411 -91.361)" fill="#263238"/>
        <path id="Path_36764" data-name="Path 36764" d="M285.46,148.649l-7.3,4.215v1.542l7.3-4.215a1.526,1.526,0,0,0,.712-1.182c0-.426-.319-.587-.712-.36" transform="translate(-171.077 -91.361)" fill="#f0ca30"/>
        <path id="Path_36765" data-name="Path 36765" d="M273.995,162.677l-15.937,9.2a1.573,1.573,0,0,0-.712,1.233v6.066c0,.454.319.638.712.411l15.936-9.2a1.574,1.574,0,0,0,.712-1.233v-6.066c0-.454-.319-.638-.712-.411" transform="translate(-158.276 -99.992)" fill="#455a64"/>
        <path id="Path_36766" data-name="Path 36766" d="M275.505,169.035a1.526,1.526,0,0,1-.712,1.182l-13.266,7.659c-.393.227-.712.066-.712-.36a1.526,1.526,0,0,1,.712-1.182l13.266-7.659c.393-.227.712-.066.712.36" transform="translate(-160.411 -103.678)" fill="#f0ca30"/>
        <path id="Path_36767" data-name="Path 36767" d="M275.505,177.047a1.526,1.526,0,0,1-.712,1.182l-13.266,7.659c-.393.227-.712.066-.712-.36a1.526,1.526,0,0,1,.712-1.182l13.266-7.659c.393-.227.712-.066.712.36" transform="translate(-160.411 -108.605)" fill="#263238"/>
        <path id="Path_36768" data-name="Path 36768" d="M281.193,176.687l-9.971,5.757v1.542l9.972-5.757a1.526,1.526,0,0,0,.712-1.182c0-.426-.319-.587-.712-.36" transform="translate(-166.81 -108.605)" fill="#f0ca30"/>
        <path id="Path_36769" data-name="Path 36769" d="M239.6,76.379c-.738-.427-1.335-.038-1.335.87v35.265a3.062,3.062,0,0,0,1.335,2.418c.738.428,1.335.038,1.335-.87V78.8a3.062,3.062,0,0,0-1.335-2.418" transform="translate(-146.543 -46.869)" fill="#37474f"/>
        <path id="Path_36770" data-name="Path 36770" d="M240.671,115.512a1.526,1.526,0,0,1-.668-1.207V78.941c0-.454.3-.649.668-.436a1.526,1.526,0,0,1,.668,1.207v35.364c0,.454-.3.649-.668.436" transform="translate(-147.61 -48.23)" fill="#263238"/>
        <path id="Path_36771" data-name="Path 36771" d="M240.671,145.833a1.526,1.526,0,0,1-.668-1.207V127.718l1.335.771V145.4c0,.454-.3.649-.668.436" transform="translate(-147.61 -78.551)" fill="#f0ca30"/>
        <path id="Path_36772" data-name="Path 36772" d="M229.2,70.372c-.738-.428-1.335-.038-1.335.87v35.265a3.062,3.062,0,0,0,1.335,2.418c.738.428,1.336.038,1.336-.87V72.79a3.061,3.061,0,0,0-1.335-2.418" transform="translate(-140.143 -43.174)" fill="#37474f"/>
        <path id="Path_36773" data-name="Path 36773" d="M230.264,109.5a1.526,1.526,0,0,1-.668-1.207V72.933c0-.454.3-.649.668-.437a1.526,1.526,0,0,1,.668,1.208v35.364c0,.454-.3.649-.668.436" transform="translate(-141.209 -44.535)" fill="#f0ca30"/>
        <path id="Path_36774" data-name="Path 36774" d="M218.79,64.364c-.738-.428-1.335-.038-1.335.87V100.5a3.061,3.061,0,0,0,1.335,2.418c.738.428,1.335.038,1.335-.87V66.782a3.061,3.061,0,0,0-1.335-2.418" transform="translate(-133.742 -39.479)" fill="#37474f"/>
        <path id="Path_36775" data-name="Path 36775" d="M219.857,103.5a1.526,1.526,0,0,1-.668-1.207V66.925c0-.454.3-.649.668-.437a1.526,1.526,0,0,1,.668,1.208V103.06c0,.454-.3.649-.668.436" transform="translate(-134.809 -40.84)" fill="#263238"/>
        <path id="Path_36776" data-name="Path 36776" d="M219.857,117.188a1.526,1.526,0,0,1-.668-1.207V88.664l1.335.771v27.316c0,.454-.3.649-.668.436" transform="translate(-134.809 -54.531)" fill="#f0ca30"/>
        <path id="Path_36777" data-name="Path 36777" d="M208.383,58.356c-.738-.428-1.335-.038-1.335.87V94.49a3.061,3.061,0,0,0,1.335,2.418c.738.428,1.335.039,1.335-.87V60.774a3.061,3.061,0,0,0-1.335-2.418" transform="translate(-127.341 -35.784)" fill="#37474f"/>
        <path id="Path_36778" data-name="Path 36778" d="M209.451,97.488a1.526,1.526,0,0,1-.668-1.207V60.917c0-.454.3-.649.668-.437a1.527,1.527,0,0,1,.668,1.208V97.052c0,.454-.3.649-.668.437" transform="translate(-128.409 -37.145)" fill="#263238"/>
        <path id="Path_36779" data-name="Path 36779" d="M209.451,145.286a1.526,1.526,0,0,1-.668-1.207V138.11l1.335.771v5.969c0,.454-.3.649-.668.437" transform="translate(-128.409 -84.942)" fill="#f0ca30"/>
        <path id="Path_36780" data-name="Path 36780" d="M197.977,52.348c-.738-.428-1.335-.038-1.335.87V88.482a3.061,3.061,0,0,0,1.335,2.418c.738.428,1.335.038,1.335-.87V54.766a3.061,3.061,0,0,0-1.335-2.418" transform="translate(-120.941 -32.089)" fill="#37474f"/>
        <path id="Path_36781" data-name="Path 36781" d="M199.044,91.48a1.526,1.526,0,0,1-.668-1.207V54.909c0-.454.3-.649.668-.437a1.527,1.527,0,0,1,.668,1.208V91.044c0,.454-.3.649-.668.436" transform="translate(-122.008 -33.45)" fill="#263238"/>
        <path id="Path_36782" data-name="Path 36782" d="M199.044,119.337a1.526,1.526,0,0,1-.668-1.207V99.679l1.335.771V118.9c0,.454-.3.649-.668.436" transform="translate(-122.008 -61.306)" fill="#f0ca30"/>
        <path id="Path_36783" data-name="Path 36783" d="M214.767,171.629,197.21,161.493c-.315-.182-.569-.035-.569.328v6.4a1.259,1.259,0,0,0,.569.986l17.557,10.136c.315.182.569.035.569-.328v-6.4a1.259,1.259,0,0,0-.569-.986" transform="translate(-120.941 -99.275)" fill="#37474f"/>
        <path id="Path_36784" data-name="Path 36784" d="M216.109,177.267c0,.426-.319.587-.712.36l-14.69-8.484a1.526,1.526,0,0,1-.712-1.182c0-.426.319-.587.712-.36l14.69,8.484a1.526,1.526,0,0,1,.711,1.182" transform="translate(-123.004 -103.017)" fill="#263238"/>
        <path id="Path_36785" data-name="Path 36785" d="M223.647,181.126c0,.426-.319.587-.712.36l-10.683-6.171v-1.542l10.684,6.171a1.526,1.526,0,0,1,.711,1.182" transform="translate(-130.542 -106.876)" fill="#f0ca30"/>
        <path id="Path_36786" data-name="Path 36786" d="M216.109,185.278c0,.426-.319.587-.712.36l-14.69-8.484a1.526,1.526,0,0,1-.712-1.182c0-.426.319-.587.712-.36L215.4,184.1a1.526,1.526,0,0,1,.711,1.182" transform="translate(-123.004 -107.944)" fill="#263238"/>
        <path id="Path_36787" data-name="Path 36787" d="M234.314,195.3c0,.426-.319.587-.712.36l-4.006-2.313V191.8l4.007,2.313a1.526,1.526,0,0,1,.711,1.182" transform="translate(-141.209 -117.967)" fill="#f0ca30"/>
        <path id="Path_36788" data-name="Path 36788" d="M192.817,12.623,214.1.338a1.574,1.574,0,0,1,1.423,0L236.8,12.623a.434.434,0,0,1,0,.822L215.518,25.73a1.572,1.572,0,0,1-1.424,0L192.817,13.445a.434.434,0,0,1,0-.822" transform="translate(-118.408 -0.103)" fill="#455a64"/>
        <path id="Path_36789" data-name="Path 36789" d="M223.1,25.121l16.506-9.53a.943.943,0,0,0,.427-.74V14.3a.944.944,0,0,0-.427-.74L223.1,4.026a.945.945,0,0,0-.854,0l-16.506,9.53a.944.944,0,0,0-.427.74v.556a.944.944,0,0,0,.427.74l16.506,9.529a.944.944,0,0,0,.854,0" transform="translate(-126.276 -2.414)" fill="#263238"/>
        <path id="Path_36790" data-name="Path 36790" d="M240.007,14.575,223.5,24.1a.946.946,0,0,1-.854,0l-16.506-9.53a.26.26,0,0,1,0-.493l16.506-9.2a.944.944,0,0,1,.854,0l16.506,9.2a.26.26,0,0,1,0,.493" transform="translate(-126.675 -2.939)" fill="#455a64"/>
        <path id="Path_36791" data-name="Path 36791" d="M250.407,39.156V40.7a.862.862,0,0,0,.427-.1l16.507-9.53a.94.94,0,0,0,.427-.74V29.77a.949.949,0,0,0-.348-.684c.154.135.128.319-.079.437l-16.507,9.53a.862.862,0,0,1-.427.1" transform="translate(-154.009 -17.889)" fill="#37474f"/>
        <path id="Path_36792" data-name="Path 36792" d="M231.635,18.081,242.8,11.635a.943.943,0,0,0,.427-.74V10.34a.944.944,0,0,0-.427-.74l-7.158-4.133a2.837,2.837,0,0,1-.721-.643L231.5.22a.567.567,0,0,0-.721-.149L219.616,6.516a.944.944,0,0,0-.427.74V10.9a.943.943,0,0,0,.427.74l11.164,6.446a.944.944,0,0,0,.854,0" transform="translate(-134.809 0)" fill="#263238"/>
        <path id="Path_36793" data-name="Path 36793" d="M231.1,16.54l-7.158-4.133a2.475,2.475,0,0,1-.373-.278,2.534,2.534,0,0,1-.348-.365l-3.419-4.605a.43.43,0,0,1,.133-.643L231.1.071a.566.566,0,0,1,.721.149l3.419,4.605a2.69,2.69,0,0,0,.662.668L243.123,9.6a.26.26,0,0,1,0,.493L231.959,16.54a.944.944,0,0,1-.854,0" transform="translate(-135.132 0)" fill="#455a64"/>
        <path id="Path_36794" data-name="Path 36794" d="M219.939,6.517,231.1.071a.567.567,0,0,1,.721.149l3.419,4.6a2.513,2.513,0,0,0,.35.364s-12.016,6.942-12.02,6.939a2.534,2.534,0,0,1-.348-.364l-3.419-4.605a.429.429,0,0,1,.133-.643" transform="translate(-135.132 0)" fill="#37474f"/>
        <path id="Path_36795" data-name="Path 36795" d="M271.551,25.041a1.107,1.107,0,0,0-1,0,.305.305,0,0,0,0,.578,1.107,1.107,0,0,0,1,0,.305.305,0,0,0,0-.578" transform="translate(-166.27 -15.327)" fill="#f0ca30"/>
        <path id="Path_36796" data-name="Path 36796" d="M266.348,28.045a1.107,1.107,0,0,0-1,0,.305.305,0,0,0,0,.578,1.107,1.107,0,0,0,1,0,.305.305,0,0,0,0-.578" transform="translate(-163.07 -17.175)" fill="#f0ca30"/>
        <path id="Path_36797" data-name="Path 36797" d="M261.145,31.049a1.107,1.107,0,0,0-1,0,.305.305,0,0,0,0,.578,1.107,1.107,0,0,0,1,0,.305.305,0,0,0,0-.578" transform="translate(-159.87 -19.022)" fill="#263238"/>
        <path id="Path_36798" data-name="Path 36798" d="M255.942,34.053a1.107,1.107,0,0,0-1,0,.305.305,0,0,0,0,.578,1.107,1.107,0,0,0,1,0,.305.305,0,0,0,0-.578" transform="translate(-156.67 -20.87)" fill="#263238"/>
        <path id="Path_36799" data-name="Path 36799" d="M267.649,22.788a1.107,1.107,0,0,0-1,0,.305.305,0,0,0,0,.578,1.107,1.107,0,0,0,1,0,.305.305,0,0,0,0-.578" transform="translate(-163.87 -13.941)" fill="#f0ca30"/>
        <path id="Path_36800" data-name="Path 36800" d="M262.446,25.792a1.107,1.107,0,0,0-1,0,.305.305,0,0,0,0,.578,1.107,1.107,0,0,0,1,0,.305.305,0,0,0,0-.578" transform="translate(-160.67 -15.789)" fill="#263238"/>
        <path id="Path_36801" data-name="Path 36801" d="M258.243,28.8a1.107,1.107,0,0,0-1,0,.305.305,0,0,0,0,.578,1.107,1.107,0,0,0,1,0,.305.305,0,0,0,0-.578" transform="translate(-158.085 -17.637)" fill="#f0ca30"/>
        <path id="Path_36802" data-name="Path 36802" d="M252.04,31.8a1.107,1.107,0,0,0-1,0,.305.305,0,0,0,0,.578,1.107,1.107,0,0,0,1,0,.305.305,0,0,0,0-.578" transform="translate(-154.27 -19.484)" fill="#263238"/>
        <path id="Path_36803" data-name="Path 36803" d="M263.747,20.535a1.107,1.107,0,0,0-1,0,.305.305,0,0,0,0,.578,1.107,1.107,0,0,0,1,0,.305.305,0,0,0,0-.578" transform="translate(-161.47 -12.556)" fill="#263238"/>
        <path id="Path_36804" data-name="Path 36804" d="M258.544,23.539a1.107,1.107,0,0,0-1,0,.305.305,0,0,0,0,.578,1.107,1.107,0,0,0,1,0,.305.305,0,0,0,0-.578" transform="translate(-158.27 -14.403)" fill="#f0ca30"/>
        <path id="Path_36805" data-name="Path 36805" d="M253.341,26.543a1.107,1.107,0,0,0-1,0,.305.305,0,0,0,0,.578,1.107,1.107,0,0,0,1,0,.305.305,0,0,0,0-.578" transform="translate(-155.07 -16.251)" fill="#263238"/>
        <path id="Path_36806" data-name="Path 36806" d="M250.709,37a1.107,1.107,0,0,0-1,0,.305.305,0,0,0,0,.578,1.107,1.107,0,0,0,1,0,.305.305,0,0,0,0-.578" transform="translate(-153.451 -22.68)" fill="#f0ca30"/>
        <path id="Path_36807" data-name="Path 36807" d="M246.807,34.744a1.107,1.107,0,0,0-1,0,.305.305,0,0,0,0,.578,1.107,1.107,0,0,0,1,0,.305.305,0,0,0,0-.578" transform="translate(-151.051 -21.295)" fill="#263238"/>
        <path id="Path_36808" data-name="Path 36808" d="M248.137,29.549a1.107,1.107,0,0,0-1,0,.305.305,0,0,0,0,.578,1.107,1.107,0,0,0,1,0,.305.305,0,0,0,0-.578" transform="translate(-151.869 -18.1)" fill="#263238"/>
        <path id="Path_36809" data-name="Path 36809" d="M259.844,18.284a1.107,1.107,0,0,0-1,0,.305.305,0,0,0,0,.578,1.107,1.107,0,0,0,1,0,.305.305,0,0,0,0-.578" transform="translate(-159.069 -11.171)" fill="#f0ca30"/>
        <path id="Path_36810" data-name="Path 36810" d="M254.641,21.288a1.107,1.107,0,0,0-1,0,.305.305,0,0,0,0,.578,1.107,1.107,0,0,0,1,0,.305.305,0,0,0,0-.578" transform="translate(-155.87 -13.019)" fill="#263238"/>
        <path id="Path_36811" data-name="Path 36811" d="M249.438,24.292a1.107,1.107,0,0,0-1,0,.305.305,0,0,0,0,.578,1.107,1.107,0,0,0,1,0,.305.305,0,0,0,0-.578" transform="translate(-152.669 -14.866)" fill="#f0ca30"/>
        <path id="Path_36812" data-name="Path 36812" d="M244.235,27.3a1.107,1.107,0,0,0-1,0,.305.305,0,0,0,0,.578,1.107,1.107,0,0,0,1,0,.305.305,0,0,0,0-.578" transform="translate(-149.469 -16.714)" fill="#263238"/>
        <path id="Path_36813" data-name="Path 36813" d="M242.905,32.493a1.107,1.107,0,0,0-1,0,.305.305,0,0,0,0,.578,1.107,1.107,0,0,0,1,0,.305.305,0,0,0,0-.578" transform="translate(-148.651 -19.91)" fill="#f0ca30"/>
        <path id="Path_36814" data-name="Path 36814" d="M239,30.24a1.107,1.107,0,0,0-1,0,.305.305,0,0,0,0,.578,1.107,1.107,0,0,0,1,0,.305.305,0,0,0,0-.578" transform="translate(-146.252 -18.525)" fill="#263238"/>
        <path id="Path_36815" data-name="Path 36815" d="M250.348,32.067v1.539a.88.88,0,0,0,.45-.1l11.164-6.447a.938.938,0,0,0,.427-.739v-.556a.949.949,0,0,0-.348-.684c.154.135.128.319-.079.437L250.8,31.965a.877.877,0,0,1-.45.1" transform="translate(-153.972 -15.426)" fill="#37474f"/>
        <path id="Path_36816" data-name="Path 36816" d="M239.674,11.778l-.01-.013a.377.377,0,0,0-.48-.1l-9.715,5.609a.286.286,0,0,0-.088.428l.01.013a.379.379,0,0,0,.481.1l9.713-5.608a.287.287,0,0,0,.089-.429" transform="translate(-141.039 -7.145)" fill="#263238"/>
        <path id="Path_36817" data-name="Path 36817" d="M243.894,11.778l-.01-.013a.377.377,0,0,0-.48-.1l-7.223,4.17.4.541,7.221-4.169a.287.287,0,0,0,.089-.429" transform="translate(-145.259 -7.145)" fill="#f0ca30"/>
        <path id="Path_36818" data-name="Path 36818" d="M237.588,8.978l-.01-.013a.377.377,0,0,0-.48-.1l-9.715,5.609a.285.285,0,0,0-.088.428l.01.013a.379.379,0,0,0,.481.1L237.5,9.407a.287.287,0,0,0,.089-.429" transform="translate(-139.756 -5.423)" fill="#263238"/>
        <path id="Path_36819" data-name="Path 36819" d="M249.49,8.978l-.01-.013a.377.377,0,0,0-.48-.1l-2.415,1.394.4.54L249.4,9.407a.287.287,0,0,0,.089-.429" transform="translate(-151.658 -5.423)" fill="#f0ca30"/>
        <path id="Path_36820" data-name="Path 36820" d="M235.5,6.178l-.01-.013a.377.377,0,0,0-.48-.1l-9.715,5.61a.285.285,0,0,0-.089.428l.01.014a.379.379,0,0,0,.481.1l9.713-5.608a.287.287,0,0,0,.089-.429" transform="translate(-138.472 -3.701)" fill="#263238"/>
        <path id="Path_36821" data-name="Path 36821" d="M243.176,6.177l-.01-.013a.377.377,0,0,0-.48-.1l-5.06,2.913.4.541,5.058-2.911a.287.287,0,0,0,.09-.428" transform="translate(-146.148 -3.701)" fill="#f0ca30"/>
        <path id="Path_36822" data-name="Path 36822" d="M233.415,3.377l-.01-.013a.377.377,0,0,0-.48-.1l-9.715,5.609a.285.285,0,0,0-.088.428l.01.014a.379.379,0,0,0,.481.1l9.713-5.608a.287.287,0,0,0,.089-.429" transform="translate(-137.189 -1.978)" fill="#263238"/>
        <path id="Path_36823" data-name="Path 36823" d="M235.085,3.377l-.01-.013a.377.377,0,0,0-.48-.1l-8.819,5.092.4.54L235,3.806a.287.287,0,0,0,.089-.429" transform="translate(-138.86 -1.978)" fill="#f0ca30"/>
        <path id="Path_36824" data-name="Path 36824" d="M181.858,190.289a.2.2,0,0,1,.177.025.6.6,0,0,1,.271.469.2.2,0,0,1-.063.163h0l-.033.019-11.571,6.68-.761-.439Z" transform="translate(-104.481 -117.027)" fill="#455a64"/>
        <path id="Path_36825" data-name="Path 36825" d="M185.925,192.634a.2.2,0,0,1,.177.025.6.6,0,0,1,.271.469.2.2,0,0,1-.063.163h0l-.033.019-11.571,6.68-.761-.439Z" transform="translate(-106.982 -118.469)" fill="#455a64"/>
        <path id="Path_36826" data-name="Path 36826" d="M189.983,194.977a.2.2,0,0,1,.177.025.6.6,0,0,1,.271.469.2.2,0,0,1-.063.163h0l-.033.019-11.571,6.68-.761-.439Z" transform="translate(-109.478 -119.91)" fill="#455a64"/>
        <path id="Path_36827" data-name="Path 36827" d="M194.047,197.321a.2.2,0,0,1,.177.025.6.6,0,0,1,.271.469.2.2,0,0,1-.063.163h0L194.4,198l-11.571,6.68-.761-.439Z" transform="translate(-111.977 -121.352)" fill="#455a64"/>
      </g>
    </g>
    <g id="Group_13807" data-name="Group 13807">
      <g id="Group_13806" data-name="Group 13806" clip-path="url(#clip-path)">
        <path id="Path_36828" data-name="Path 36828" d="M7.7,235.079a3.387,3.387,0,0,0,1.58,2.623L53.53,263.251a3.49,3.49,0,0,0,3.159,0l60.55-34.958a2.967,2.967,0,0,0,0-5.246L72.986,197.5a3.494,3.494,0,0,0-3.159,0L9.277,232.456A3.388,3.388,0,0,0,7.7,235.079" transform="translate(-4.735 -121.235)" fill="#f0ca30"/>
        <g id="Group_13784" data-name="Group 13784" transform="translate(2.963 111.323)" opacity="0.7">
          <g id="Group_13783" data-name="Group 13783">
            <g id="Group_13782" data-name="Group 13782" clip-path="url(#clip-path-4)">
              <path id="Path_36829" data-name="Path 36829" d="M55.11,316.827v3.418a3.22,3.22,0,0,1-1.58-.376L9.276,294.319a2.958,2.958,0,0,1-.161-5.143c-.708.507-.653,1.251.161,1.722l44.254,25.55a3.226,3.226,0,0,0,1.58.379" transform="translate(-7.697 -289.176)"/>
            </g>
          </g>
        </g>
        <path id="Path_36830" data-name="Path 36830" d="M1.482,139.554A3.387,3.387,0,0,1,0,136.875V84.066A3.491,3.491,0,0,1,1.579,81.33l60.55-34.959a2.968,2.968,0,0,1,4.543,2.623V101.8a3.491,3.491,0,0,1-1.58,2.736L4.543,139.5a3.387,3.387,0,0,1-3.061.057" transform="translate(0 -28.277)" fill="#f0ca30"/>
        <g id="Group_13787" data-name="Group 13787" transform="translate(0.001 54.233)" opacity="0.7">
          <g id="Group_13786" data-name="Group 13786">
            <g id="Group_13785" data-name="Group 13785" clip-path="url(#clip-path-5)">
              <path id="Path_36831" data-name="Path 36831" d="M4.358,197.96a3.394,3.394,0,0,1-2.874-.04A3.384,3.384,0,0,1,0,195.243V142.432a3.186,3.186,0,0,1,.463-1.554l2.961,1.707v0a3.241,3.241,0,0,0-.463,1.554v52.811c0,.934.609,1.353,1.393,1.007" transform="translate(-0.003 -140.878)"/>
            </g>
          </g>
        </g>
        <path id="Path_36832" data-name="Path 36832" d="M10.755,234.279l44.253,25.549a3.491,3.491,0,0,0,3.159,0l60.55-34.959a.962.962,0,0,0,0-1.824L74.464,197.5a3.492,3.492,0,0,0-3.159,0l-60.55,34.959a.962.962,0,0,0,0,1.824" transform="translate(-6.212 -121.235)" fill="#f0ca30"/>
        <path id="Path_36833" data-name="Path 36833" d="M12.493,95.829l58.378-33.7c.524-.3.948-.057.948.547v45.715a2.094,2.094,0,0,1-.948,1.641l-58.378,33.7c-.524.3-.948.057-.948-.547V97.47a2.094,2.094,0,0,1,.948-1.641" transform="translate(-7.101 -38.134)" fill="#fafafa"/>
        <path id="Path_36834" data-name="Path 36834" d="M84.254,129.982l-.37,10.555c0,4.344-2.731,12.2-8.348,18a2.771,2.771,0,0,1-1.464.731c-.283.028-.557.039-.826.039a6.819,6.819,0,0,1-3.433-.872l-.034-.018-.067-.042c-2.51-1.5-3.741-4.577-3.741-7.492l-.37-10.09a1.078,1.078,0,0,1,.285-.736,1.457,1.457,0,0,1,.506-.378c2.57-1.139,6.425-5.692,8.233-10.187.129-.318.325-.421.538-.32l.032.018a.725.725,0,0,1,.193.159h0c.012.012.023.025.035.039,1.919,2.234,5.693,2.232,8.212.3.191-.145.35-.191.458-.143l.013.009a0,0,0,0,0,0,0c.1.055.157.2.147.423" transform="translate(-40.345 -79.421)" fill="#27debf"/>
        <g id="Group_13790" data-name="Group 13790" transform="translate(25.253 49.734)" opacity="0.2">
          <g id="Group_13789" data-name="Group 13789">
            <g id="Group_13788" data-name="Group 13788" clip-path="url(#clip-path-6)">
              <path id="Path_36835" data-name="Path 36835" d="M74.926,129.19a.518.518,0,0,0-.3.335c-1.809,4.494-5.663,9.048-8.233,10.187a1.45,1.45,0,0,0-.506.378,1.076,1.076,0,0,0-.286.736l.371,10.09c0,2.915,1.231,5.994,3.741,7.492l.067.042.035.018a6.816,6.816,0,0,0,3.433.872c.269,0,.543-.012.826-.039a2.423,2.423,0,0,0,.855-.293Z" transform="translate(-65.598 -129.19)"/>
            </g>
          </g>
        </g>
        <g id="Group_13793" data-name="Group 13793" transform="translate(9.352 79.039)" opacity="0.3">
          <g id="Group_13792" data-name="Group 13792">
            <g id="Group_13791" data-name="Group 13791" clip-path="url(#clip-path-7)">
              <path id="Path_36836" data-name="Path 36836" d="M24.62,237.952l56.2-32.449a1.745,1.745,0,0,1,1.579,0l2.875,1.66a.481.481,0,0,1,0,.912L29.066,240.518a1.746,1.746,0,0,1-1.58,0l-2.866-1.655a.481.481,0,0,1,0-.912" transform="translate(-24.293 -205.314)"/>
            </g>
          </g>
        </g>
        <g id="Group_13796" data-name="Group 13796" transform="translate(16.761 83.316)" opacity="0.3">
          <g id="Group_13795" data-name="Group 13795">
            <g id="Group_13794" data-name="Group 13794" clip-path="url(#clip-path-8)">
              <path id="Path_36837" data-name="Path 36837" d="M43.866,249.062l56.2-32.449a1.745,1.745,0,0,1,1.579,0l17.682,10.209a.481.481,0,0,1,0,.912l-56.139,32.4a1.752,1.752,0,0,1-1.581,0L43.868,249.971a.479.479,0,0,1,0-.909" transform="translate(-43.54 -216.423)"/>
            </g>
          </g>
        </g>
        <path id="Path_36838" data-name="Path 36838" d="M96.732,233.412l1.76-1.016c.075-.043.07-.116-.01-.162l-2.035-1.175a.311.311,0,0,0-.281-.006l-1.76,1.016c-.075.043-.07.116.01.162l2.035,1.175a.311.311,0,0,0,.281.006m-3.473-4.037-1.76,1.016c-.075.043-.07.115.01.162l2.035,1.175a.311.311,0,0,0,.281.006l1.76-1.016c.075-.043.07-.116-.01-.162l-2.035-1.175a.31.31,0,0,0-.281-.006m-5.685,3.282-2.978,1.72c-.075.043-.07.116.01.162l2.035,1.175a.311.311,0,0,0,.281.006L89.9,234c.075-.043.07-.116-.01-.162l-2.035-1.175a.311.311,0,0,0-.281-.006m3.113-1.8-1.76,1.016c-.075.043-.07.116.01.162l2.035,1.175a.31.31,0,0,0,.281.006l1.76-1.016c.075-.043.07-.115-.01-.162l-2.035-1.175a.311.311,0,0,0-.281-.006m-6.9,3.986-1.76,1.016c-.075.043-.07.116.01.162l2.035,1.175a.31.31,0,0,0,.281.006l1.76-1.016c.075-.043.07-.115-.01-.162l-2.035-1.175a.311.311,0,0,0-.281-.006m-2.572,1.485-1.76,1.016c-.075.043-.07.115.01.162l2.035,1.175a.309.309,0,0,0,.281.006l1.76-1.016c.075-.043.07-.116-.01-.162l-2.035-1.175a.309.309,0,0,0-.281-.006m8,4.777,1.76-1.016c.075-.043.07-.116-.01-.162l-2.035-1.174a.31.31,0,0,0-.281-.006l-1.76,1.016c-.075.043-.07.115.01.162l2.035,1.175a.311.311,0,0,0,.281.005m-2.572,1.485,1.76-1.016c.075-.044.07-.116-.01-.162l-2.035-1.174a.312.312,0,0,0-.281-.006l-1.76,1.016c-.075.043-.07.116.01.162l2.035,1.175a.31.31,0,0,0,.281.005m-2.572,1.485,1.76-1.016c.075-.043.07-.116-.01-.162l-2.035-1.175a.311.311,0,0,0-.281-.006l-1.76,1.016c-.075.043-.07.116.01.162l2.035,1.175a.311.311,0,0,0,.281.006M81.5,245.563l1.76-1.016c.075-.043.07-.116-.01-.162l-2.035-1.175a.311.311,0,0,0-.281-.006l-1.76,1.016c-.075.043-.07.116.01.162l2.035,1.175a.311.311,0,0,0,.281.006M94.16,234.9l1.76-1.016c.075-.043.07-.116-.01-.162l-2.035-1.175a.312.312,0,0,0-.28-.006l-1.76,1.016c-.075.044-.071.116.01.162l2.035,1.175a.31.31,0,0,0,.281.006m-2.372,4.726,3.926-2.266c.075-.044.07-.116-.01-.162l-4.942-2.853a.31.31,0,0,0-.281-.006l-2.03,1.172c-.075.043-.07.115.01.162l2.617,1.511c.08.046.084.119.01.162l-1.624.938c-.075.043-.07.115.01.162l2.035,1.175a.31.31,0,0,0,.281.006M78.64,237.815l-1.76,1.016c-.075.043-.07.116.01.162l2.035,1.175a.311.311,0,0,0,.281.005l1.76-1.016c.075-.044.07-.116-.01-.162l-2.035-1.175a.311.311,0,0,0-.281-.006M76.068,239.3l-1.76,1.016c-.075.043-.07.116.01.162l2.035,1.175a.312.312,0,0,0,.281.006l1.76-1.016c.075-.043.07-.116-.01-.162l-2.035-1.175a.311.311,0,0,0-.281-.006M63.216,255.951a.31.31,0,0,0,.281.005l1.76-1.016c.075-.043.07-.116-.01-.162L63.212,253.6a.311.311,0,0,0-.281-.006l-1.76,1.016c-.075.043-.07.115.01.162Zm-7.723-4.772-1.76,1.016c-.075.043-.07.115.01.162l2.035,1.175a.309.309,0,0,0,.281.006l1.76-1.016c.075-.043.07-.116-.01-.162l-2.035-1.175a.309.309,0,0,0-.281-.006m4.14,3.484a.311.311,0,0,0,.281.006l1.76-1.016c.075-.043.07-.116-.01-.162l-2.035-1.175a.311.311,0,0,0-.281-.006l-1.76,1.016c-.075.043-.07.116.01.162Zm8.125,2.19,1.76-1.016c.075-.044.07-.116-.01-.162L67.473,254.5a.312.312,0,0,0-.281-.006l-1.76,1.016c-.074.043-.07.116.01.162l2.035,1.175a.311.311,0,0,0,.281.006M64.9,258.333a.31.31,0,0,0,.281.006l1.76-1.016c.075-.043.07-.116-.01-.162L64.9,255.986a.311.311,0,0,0-.281-.006L62.86,257c-.075.043-.07.116.01.162Zm-6.84-8.638-1.76,1.016c-.075.043-.07.116.01.162l2.035,1.175a.31.31,0,0,0,.281.006l1.76-1.016c.075-.043.07-.115-.01-.162L58.346,249.7a.311.311,0,0,0-.281-.006m12.859-7.424-1.76,1.016c-.075.044-.07.116.01.162l2.035,1.175a.311.311,0,0,0,.281.006l1.76-1.016c.075-.043.07-.115-.01-.162l-2.035-1.175a.311.311,0,0,0-.281-.006m-10.287,5.94-1.76,1.016c-.075.043-.07.116.01.162l2.035,1.175a.31.31,0,0,0,.281.006l1.76-1.016c.075-.043.07-.116-.01-.162l-2.035-1.175a.311.311,0,0,0-.281-.006M73.5,240.785l-1.76,1.016c-.075.043-.07.115.01.162l2.035,1.175a.312.312,0,0,0,.281.006l1.76-1.016c.075-.043.07-.116-.01-.162l-2.035-1.175a.311.311,0,0,0-.281-.006m-5.144,2.97-1.76,1.016c-.075.043-.07.116.01.162l2.035,1.175a.309.309,0,0,0,.281.006l1.76-1.016c.075-.043.07-.115-.01-.162l-2.035-1.175a.308.308,0,0,0-.28-.006m-2.572,1.485-1.76,1.016c-.075.043-.07.116.01.162l2.035,1.175a.311.311,0,0,0,.281.006l1.76-1.016c.074-.043.07-.116-.01-.162l-2.035-1.175a.31.31,0,0,0-.281-.006m-2.572,1.485-1.76,1.016c-.075.043-.07.116.01.162l2.035,1.175a.311.311,0,0,0,.281.006l1.76-1.016c.075-.043.07-.116-.01-.162l-2.035-1.175a.311.311,0,0,0-.281-.006m13.147,1.808,1.76-1.016c.075-.043.07-.116-.01-.162l-2.035-1.175a.31.31,0,0,0-.281-.006l-1.76,1.016c-.075.043-.07.115.01.162l2.035,1.175a.311.311,0,0,0,.281.006m22.589-22.44-1.76,1.016c-.075.043-.07.116.01.162l2.035,1.175a.312.312,0,0,0,.281.006l1.76-1.016c.075-.043.07-.116-.01-.162L99.226,226.1a.311.311,0,0,0-.281-.006m-3.114,1.8-1.76,1.016c-.075.043-.07.115.01.162l2.035,1.175a.31.31,0,0,0,.281.006l1.76-1.016c.075-.043.07-.116-.01-.162L96.112,227.9a.311.311,0,0,0-.281-.006m5.685-3.282-1.759,1.016c-.075.043-.07.116.01.162l2.035,1.175a.311.311,0,0,0,.281.006l1.76-1.016c.075-.044.07-.116-.01-.162l-2.035-1.175a.312.312,0,0,0-.281-.006M88.2,238.336l1.76-1.016c.075-.044.07-.116-.01-.162l-2.035-1.175a.31.31,0,0,0-.281-.006l-1.76,1.016c-.075.043-.07.115.01.162l2.035,1.175a.312.312,0,0,0,.281.006m16.165-15.207a.31.31,0,0,0-.281-.006l-1.759,1.016c-.075.043-.07.115.01.162l2.035,1.175a.311.311,0,0,0,.281.006l1.76-1.016c.075-.043.07-.115-.01-.162ZM78.928,247.047l1.76-1.016c.075-.043.07-.116-.01-.162l-2.035-1.175a.311.311,0,0,0-.281-.006L76.6,245.7c-.075.043-.07.116.01.162l2.035,1.175a.31.31,0,0,0,.281.006m31.54-18.21,1.76-1.016c.075-.043.07-.116-.01-.162l-2.035-1.175a.31.31,0,0,0-.281-.006l-1.76,1.016c-.075.043-.07.116.01.162l2.035,1.175a.309.309,0,0,0,.281.006m-5.479-.193,1.76-1.016c.075-.043.07-.115-.01-.162l-2.035-1.175a.309.309,0,0,0-.28-.006l-1.76,1.016c-.075.043-.07.116.01.162l2.035,1.175a.31.31,0,0,0,.281.006m2.287-3.838A.311.311,0,0,0,107,224.8l-1.76,1.016c-.075.043-.07.115.01.162l2.035,1.175a.311.311,0,0,0,.281.006l1.76-1.016c.075-.043.07-.116-.01-.162Zm.542-.313,4.941,2.853a.312.312,0,0,0,.281.006l1.76-1.016c.075-.043.07-.116-.01-.162l-4.942-2.853a.311.311,0,0,0-.281-.006l-1.76,1.016c-.075.043-.07.116.01.162m-5.966,3.277-1.76,1.016c-.075.043-.07.116.01.162l2.035,1.175a.309.309,0,0,0,.281.006l1.76-1.016c.075-.043.07-.115-.01-.162l-2.035-1.175a.31.31,0,0,0-.281-.006M82.495,238.947l-1.76,1.016c-.075.043-.07.115.01.162L82.78,241.3a.311.311,0,0,0,.281.006l1.76-1.016c.075-.043.07-.116-.01-.162l-2.035-1.175a.311.311,0,0,0-.281-.006m25.121-8.629a.311.311,0,0,0,.281.006l1.76-1.016c.074-.043.07-.116-.01-.162l-2.035-1.175a.309.309,0,0,0-.28-.006l-1.76,1.016c-.075.043-.07.116.01.162Zm-22.549,7.145-1.76,1.016c-.075.043-.07.116.01.162l2.035,1.175a.311.311,0,0,0,.281.006l1.76-1.016c.075-.043.07-.116-.01-.162l-2.035-1.175a.311.311,0,0,0-.281-.006m-19.278,17a.31.31,0,0,0,.281.006l1.76-1.016c.075-.043.07-.116-.01-.162l-2.035-1.175a.311.311,0,0,0-.281-.006l-1.76,1.016c-.075.043-.07.115.01.162Zm-3.869-3.64-1.76,1.016c-.075.043-.07.116.01.162l2.035,1.175a.311.311,0,0,0,.281.006l1.76-1.016c.075-.044.07-.116-.01-.162L62.2,250.832a.31.31,0,0,0-.281-.006m6.722,2.161,1.76-1.016c.075-.043.07-.116-.01-.162l-2.035-1.175a.311.311,0,0,0-.281-.006l-1.76,1.016c-.075.043-.07.116.01.162l2.035,1.175a.311.311,0,0,0,.281.006m2.572-1.485,1.76-1.016c.075-.043.07-.116-.01-.162l-2.035-1.175a.31.31,0,0,0-.281-.006l-1.76,1.016c-.075.043-.07.116.01.162l2.035,1.175a.311.311,0,0,0,.281.006m2.572-1.485L75.545,249c.075-.044.07-.116-.01-.162L73.5,247.664a.311.311,0,0,0-.281-.006l-1.76,1.016c-.075.043-.07.116.01.162l2.035,1.175a.309.309,0,0,0,.281.006m-9.293-.676-1.76,1.016c-.075.043-.07.115.01.162l2.035,1.175a.309.309,0,0,0,.281.006l1.76-1.016c.075-.043.07-.116-.01-.162l-2.035-1.175a.31.31,0,0,0-.281-.006m2.572-1.485-1.76,1.016c-.075.044-.07.116.01.162l2.035,1.175a.312.312,0,0,0,.281.005l1.76-1.016c.075-.043.07-.115-.01-.162l-2.035-1.175a.312.312,0,0,0-.281-.006m10.287-5.939-1.76,1.016c-.075.043-.07.115.01.162l2.035,1.175a.309.309,0,0,0,.281.006l1.76-1.016c.075-.043.07-.115-.01-.162l-2.035-1.175a.31.31,0,0,0-.281-.006M74.779,243.4l-1.76,1.016c-.075.043-.07.116.01.162l2.035,1.175a.311.311,0,0,0,.281.006l1.76-1.016c.075-.043.07-.116-.01-.162l-2.035-1.175a.311.311,0,0,0-.281-.006m5.144-2.97-1.76,1.016c-.075.043-.07.116.01.162l2.035,1.175a.31.31,0,0,0,.281.006l1.76-1.016c.075-.043.07-.115-.01-.162L80.2,240.437a.312.312,0,0,0-.281-.006m-10.287,5.94-1.76,1.016c-.075.043-.07.116.01.162l2.035,1.175a.312.312,0,0,0,.281.006l1.76-1.016c.075-.043.07-.116-.01-.162l-2.035-1.175a.31.31,0,0,0-.281-.006m2.572-1.485-1.76,1.016c-.075.043-.07.116.01.162l2.035,1.175a.311.311,0,0,0,.281.006l1.76-1.016c.075-.043.07-.116-.01-.162l-2.035-1.175a.312.312,0,0,0-.281-.006m-1.877,10.483,1.76-1.016c.075-.043.07-.116-.01-.162l-2.035-1.175a.311.311,0,0,0-.281-.006L68,254.026c-.075.043-.07.116.01.162l2.035,1.175a.311.311,0,0,0,.281.006m-15.093-1.524L53.2,252.67a.31.31,0,0,0-.281-.006l-1.76,1.016c-.075.043-.07.115.01.162l2.035,1.175a.312.312,0,0,0,.281.006l1.76-1.016c.075-.044.07-.116-.01-.162m3.854,1.131L57.056,253.8a.309.309,0,0,0-.281-.006l-2.707,1.563c-.075.043-.07.115.01.162l2.035,1.175a.311.311,0,0,0,.281.006l2.707-1.563c.075-.043.07-.116-.01-.162m-6.976-3.4L50.08,250.4a.31.31,0,0,0-.281-.006l-2.166,1.25c-.074.043-.07.116.01.162l2.035,1.175a.311.311,0,0,0,.281.006l2.166-1.251c.075-.043.07-.115-.01-.162m1.661-.959a.31.31,0,0,0,.281.006l1.76-1.016c.075-.043.07-.116-.01-.162l-2.035-1.175a.312.312,0,0,0-.281-.006l-1.76,1.016c-.075.044-.07.116.01.162Zm8.9,5.649-2.035-1.175a.311.311,0,0,0-.281-.006l-3.384,1.954c-.075.043-.07.116.01.162l2.035,1.175a.311.311,0,0,0,.281.006l3.384-1.954c.075-.044.07-.116-.01-.162m1.689,2.382-2.035-1.175a.309.309,0,0,0-.281-.006l-2.166,1.25c-.075.043-.07.116.01.162l2.035,1.175a.31.31,0,0,0,.281.006l2.166-1.25c.075-.043.07-.116-.01-.162m8.534-19.07a.31.31,0,0,0,.28.006l1.76-1.016c.075-.043.071-.116-.01-.162l-2.035-1.175a.311.311,0,0,0-.281-.006l-1.76,1.016c-.075.043-.07.116.01.162Zm-5.144,2.97a.311.311,0,0,0,.281.006l1.76-1.016c.075-.043.07-.116-.01-.162L67.75,240.2a.312.312,0,0,0-.281-.006l-1.76,1.016c-.075.043-.07.116.01.162ZM56.347,249.13a.311.311,0,0,0,.281.006l1.76-1.016c.075-.043.07-.116-.01-.162l-2.035-1.175a.311.311,0,0,0-.281-.006l-1.76,1.016c-.075.043-.07.116.01.162Zm13.979-8.07a.311.311,0,0,0,.281.006l1.76-1.016c.075-.043.07-.116-.01-.162l-2.035-1.175a.312.312,0,0,0-.281-.006l-1.76,1.016c-.075.043-.07.116.01.162Zm-5.144,2.97a.311.311,0,0,0,.281.006l1.76-1.016c.075-.043.07-.116-.01-.162l-2.035-1.175a.311.311,0,0,0-.281-.006l-1.76,1.016c-.075.044-.07.116.01.162Zm.6,14.807a.312.312,0,0,0-.281-.006l-2.707,1.563c-.075.043-.07.116.01.162l2.035,1.175a.312.312,0,0,0,.281.006l2.707-1.563c.075-.043.07-.116-.01-.162ZM61.491,246.16a.312.312,0,0,0,.281.006l1.76-1.016c.075-.044.07-.116-.01-.162l-2.035-1.175a.31.31,0,0,0-.281-.006l-1.76,1.016c-.075.043-.07.116.01.162Zm-2.572,1.485a.311.311,0,0,0,.281.006l1.76-1.016c.075-.043.07-.116-.01-.162L58.915,245.3a.31.31,0,0,0-.281-.006l-1.76,1.016c-.075.043-.07.116.01.162Zm54.506-16.319a.311.311,0,0,0-.281-.006l-4.331,2.5c-.075.043-.07.116.01.162l2.035,1.175a.311.311,0,0,0,.281.006l4.332-2.5c.075-.043.07-.116-.01-.162Zm-5.685,3.283a.309.309,0,0,0-.281-.006l-1.76,1.016c-.075.043-.07.115.01.162l2.035,1.175a.311.311,0,0,0,.281.005l1.76-1.016c.075-.043.07-.116-.01-.162ZM72.9,253.884l1.76-1.016c.075-.044.07-.116-.01-.162l-2.035-1.175a.311.311,0,0,0-.281-.006l-1.76,1.016c-.075.043-.07.116.01.162l2.035,1.175a.311.311,0,0,0,.281.005m29.694-16.3a.311.311,0,0,0-.281-.006l-1.76,1.016c-.075.043-.07.116.01.162l2.035,1.175a.311.311,0,0,0,.281.006l1.76-1.016c.075-.043.07-.116-.01-.162Zm13.4-7.737a.31.31,0,0,0-.281-.006l-1.76,1.016c-.075.043-.07.116.01.162L116,232.189a.311.311,0,0,0,.281.006l1.76-1.016c.075-.043.07-.116-.01-.162Zm4.607-.31-4.942-2.853a.311.311,0,0,0-.281-.006l-1.76,1.016c-.075.043-.07.116.01.162l4.942,2.853a.311.311,0,0,0,.281.006l1.76-1.016c.075-.043.07-.115-.01-.162m-27.619,13.6a.31.31,0,0,0-.281-.006l-2.166,1.25c-.075.043-.07.116.01.162l2.035,1.175a.311.311,0,0,0,.281.005l2.166-1.25c.075-.043.07-.115-.01-.162Zm6.5-3.752a.311.311,0,0,0-.281-.006l-2.707,1.563c-.075.043-.07.115.01.162l2.035,1.175a.31.31,0,0,0,.281.006l2.707-1.563c.075-.043.07-.116-.01-.162Zm-12.453,7.19a.312.312,0,0,0-.281-.006l-14.484,8.363c-.075.043-.07.115.01.162l2.035,1.175a.311.311,0,0,0,.281.006L89.074,247.9c.075-.043.07-.116-.01-.162Zm-15.3,8.831a.31.31,0,0,0-.281-.006l-2.166,1.251c-.075.043-.07.115.01.162l2.035,1.175a.311.311,0,0,0,.281.005l2.166-1.25c.075-.043.07-.115-.01-.162Zm18.274-10.551a.31.31,0,0,0-.281-.006l-2.166,1.25c-.075.043-.07.116.01.162l2.035,1.175a.31.31,0,0,0,.281.006l2.166-1.251c.075-.043.07-.116-.01-.162Zm-21.252,12.27a.31.31,0,0,0-.281-.006l-2.166,1.25c-.075.043-.07.116.01.162l2.035,1.175a.311.311,0,0,0,.281.006l2.166-1.25c.075-.044.07-.116-.01-.162Zm27.208-15.709a.309.309,0,0,0-.281-.006l-2.166,1.25c-.074.043-.07.115.01.162l2.035,1.175a.309.309,0,0,0,.28.006l2.166-1.25c.075-.043.07-.115-.01-.162Zm9.2-5.314a.31.31,0,0,0-.281-.006l-1.76,1.016c-.075.043-.07.116.01.162l2.035,1.175a.311.311,0,0,0,.281.005l1.76-1.016c.075-.043.07-.116-.01-.162ZM110.8,232l1.76-1.016c.075-.043.07-.116-.01-.162l-2.035-1.175a.309.309,0,0,0-.281-.006l-1.76,1.016c-.075.043-.07.116.01.162L110.523,232a.309.309,0,0,0,.281.006m-11.5-.074,1.76-1.016c.075-.043.07-.116-.01-.162l-2.035-1.175a.311.311,0,0,0-.281-.006l-1.76,1.016c-.075.043-.07.116.01.162l2.035,1.175a.312.312,0,0,0,.281.006M93.477,242l5.144-2.97c.075-.043.07-.115-.01-.162L96.576,237.7a.31.31,0,0,0-.281-.006l-5.144,2.97c-.075.043-.07.116.01.162L93.2,242a.311.311,0,0,0,.281.006m14.474-8.524a.311.311,0,0,0,.281.006l1.76-1.016c.075-.044.07-.116-.01-.162l-2.035-1.175a.309.309,0,0,0-.28-.006l-1.76,1.016c-.075.043-.07.116.01.162Zm-2.626-1.673,1.76-1.016c.074-.043.07-.116-.01-.162l-2.035-1.175a.311.311,0,0,0-.281-.006L103,230.465c-.075.043-.07.116.01.162l2.035,1.175a.311.311,0,0,0,.281.006M90.9,243.49l1.76-1.016c.075-.043.07-.116-.01-.162l-2.035-1.175a.312.312,0,0,0-.281-.006l-1.76,1.016c-.075.043-.07.116.01.162l2.035,1.175a.311.311,0,0,0,.281.006m11.361-6.727a.31.31,0,0,0,.281.006l1.76-1.016c.075-.043.07-.116-.01-.162l-2.035-1.175a.311.311,0,0,0-.281-.006l-1.76,1.016c-.075.044-.07.116.01.162Zm-24.22,14.151L79.8,249.9c.075-.043.07-.116-.01-.162l-2.035-1.175a.311.311,0,0,0-.281-.006l-1.76,1.016c-.075.043-.07.115.01.162l2.035,1.175a.31.31,0,0,0,.281.006m2.572-1.485,1.76-1.016c.075-.043.07-.116-.01-.162l-2.035-1.175a.311.311,0,0,0-.281-.006l-1.76,1.016c-.075.043-.07.116.01.162l2.035,1.175a.312.312,0,0,0,.281.006m-5.144,2.97,1.76-1.016c.075-.043.07-.116-.01-.162l-2.035-1.175a.31.31,0,0,0-.281-.006l-1.76,1.016c-.075.043-.07.115.01.162l2.035,1.175a.311.311,0,0,0,.281.005m10.287-5.94,1.76-1.016c.075-.044.07-.116-.01-.162l-2.035-1.175a.31.31,0,0,0-.281-.006l-1.76,1.016c-.074.043-.07.115.01.162l2.035,1.175a.31.31,0,0,0,.281.006m-2.572,1.485,1.76-1.016c.075-.043.07-.115-.01-.162L82.9,245.591a.311.311,0,0,0-.281-.006l-1.76,1.016c-.075.043-.07.116.01.162l2.035,1.175a.31.31,0,0,0,.281.005m5.144-2.97,1.76-1.016c.075-.043.07-.116-.01-.162l-2.035-1.175a.309.309,0,0,0-.281-.006l-1.76,1.016c-.075.043-.07.116.01.162l2.035,1.175a.311.311,0,0,0,.281.005M100.1,223.008a.311.311,0,0,0,.281.006L102.14,222c.075-.043.07-.116-.01-.162l-.541-.313a.312.312,0,0,0-.281-.006l-1.76,1.016c-.075.043-.07.115.01.162Zm-12.654,8.168a.31.31,0,0,0,.281.006l1.76-1.016c.075-.043.07-.115-.01-.162l-2.035-1.175a.311.311,0,0,0-.281-.006l-1.76,1.016c-.075.043-.07.116.01.162Zm5.144-2.97a.309.309,0,0,0,.28.006l1.76-1.016c.075-.043.07-.115-.01-.162l-2.035-1.175a.311.311,0,0,0-.281-.006l-1.76,1.016c-.075.043-.07.116.01.162ZM84.3,232.989a.31.31,0,0,0,.281.005l1.76-1.016c.075-.043.07-.115-.01-.162L84.3,230.642a.312.312,0,0,0-.281-.005l-1.76,1.016c-.075.043-.07.115.01.162Zm5.713-3.3a.311.311,0,0,0,.281.006l1.76-1.016c.075-.043.07-.116-.01-.162l-2.035-1.175a.31.31,0,0,0-.281-.006l-1.76,1.016c-.075.043-.07.115.01.162Zm-10.856,6.268a.311.311,0,0,0,.281.006l1.76-1.016c.075-.043.07-.116-.01-.162l-2.035-1.175a.312.312,0,0,0-.281-.006l-1.76,1.016c-.075.043-.07.116.01.162Zm2.572-1.485a.311.311,0,0,0,.281.006l1.76-1.016c.075-.043.07-.115-.01-.162l-2.035-1.175a.311.311,0,0,0-.281-.006l-1.76,1.016c-.075.043-.07.116.01.162Zm13.223-8.5a.311.311,0,0,0,.281.006L97,224.967c.075-.043.07-.116-.01-.162l-.542-.313a.309.309,0,0,0-.28-.006L94.4,225.5c-.075.043-.07.116.01.162Zm7.716-4.454a.311.311,0,0,0,.281.006l1.76-1.016c.075-.044.07-.116-.01-.162l-.542-.313a.311.311,0,0,0-.281-.006l-1.76,1.016c-.075.043-.07.116.01.162Zm4.274,2.468a.311.311,0,0,0,.281.006l1.76-1.016c.075-.043.07-.116-.01-.162l-2.035-1.175a.311.311,0,0,0-.281-.006l-1.76,1.016c-.075.043-.07.116.01.162Zm6.43,6.526,1.76-1.016c.075-.043.07-.115-.01-.162l-2.035-1.175a.312.312,0,0,0-.281-.006l-1.76,1.016c-.075.043-.07.116.01.162l2.035,1.175a.31.31,0,0,0,.281.006m-15.848-6.024a.311.311,0,0,0,.281.006l1.76-1.016c.075-.043.07-.116-.01-.162l-.542-.313a.309.309,0,0,0-.281-.006l-1.76,1.016c-.075.043-.07.115.01.162ZM76.589,237.444a.311.311,0,0,0,.281.006l1.76-1.016c.075-.043.07-.116-.01-.162L76.584,235.1a.311.311,0,0,0-.281-.006l-1.76,1.016c-.074.043-.07.116.01.162Z" transform="translate(-29.263 -135.308)" fill="#263238"/>
        <g id="Group_13799" data-name="Group 13799" transform="translate(58.338 107.321)" opacity="0.3">
          <g id="Group_13798" data-name="Group 13798">
            <g id="Group_13797" data-name="Group 13797" clip-path="url(#clip-path-9)">
              <path id="Path_36839" data-name="Path 36839" d="M151.934,289.032,169.3,279.006a2.094,2.094,0,0,1,1.9,0l9.958,5.749a.578.578,0,0,1,0,1.094l-17.366,10.026a2.094,2.094,0,0,1-1.9,0l-9.958-5.749a.578.578,0,0,1,0-1.094" transform="translate(-151.541 -278.779)"/>
            </g>
          </g>
        </g>
        <path id="Path_36840" data-name="Path 36840" d="M3.609,288.9a2.4,2.4,0,0,0,.485.208,2.271,2.271,0,0,1-.485-.2,1.4,1.4,0,0,1-.15-.1c.048.033.1.066.15.095" transform="translate(-2.127 -177.624)" fill="#27debf"/>
        <g id="Group_13802" data-name="Group 13802" transform="translate(0.464 17.699)" opacity="0.3">
          <g id="Group_13801" data-name="Group 13801">
            <g id="Group_13800" data-name="Group 13800" clip-path="url(#clip-path-10)">
              <path id="Path_36841" data-name="Path 36841" d="M67.4,48.737c-.113-.817-.77-1.116-1.565-.657L5.283,83.041a3.211,3.211,0,0,0-1.116,1.175L1.2,82.508A3.218,3.218,0,0,1,2.321,81.33L62.872,46.37A2.954,2.954,0,0,1,67.4,48.737" transform="translate(-1.205 -45.975)"/>
            </g>
          </g>
        </g>
        <path id="Path_36842" data-name="Path 36842" d="M11.03,289.4a.078.078,0,0,1,.025-.022c-.007.007-.015.011-.018.018s0,0-.007,0" transform="translate(-6.784 -177.979)" fill="#27debf"/>
        <g id="Group_13805" data-name="Group 13805" transform="translate(50.3 101.915)" opacity="0.5">
          <g id="Group_13804" data-name="Group 13804">
            <g id="Group_13803" data-name="Group 13803" clip-path="url(#clip-path-11)">
              <path id="Path_36843" data-name="Path 36843" d="M194.372,267.258a3.386,3.386,0,0,1-1.58,2.622l-60.551,34.957a3.217,3.217,0,0,1-1.579.372V301.8a3.22,3.22,0,0,0,1.579-.38l60.551-34.957c.813-.474.868-1.215.161-1.722a3.4,3.4,0,0,1,1.419,2.52" transform="translate(-130.662 -264.738)"/>
            </g>
          </g>
        </g>
      </g>
    </g>
    <g id="Group_13818" data-name="Group 13818">
      <g id="Group_13817" data-name="Group 13817" clip-path="url(#clip-path)">
        <path id="Path_36844" data-name="Path 36844" d="M344.069,186.059l0,0-7.078-4.079v0c-.154-.085-.383-.028-.661.184q-.216.165-.44.317c-.053.036-.109.069-.162.1-.1.063-.194.126-.292.185-.069.041-.139.079-.209.118-.086.048-.171.1-.259.144s-.159.079-.239.119-.158.079-.238.115-.177.077-.266.114c-.074.031-.147.063-.221.092-.1.037-.192.072-.289.107-.068.024-.136.049-.2.072-.1.035-.209.066-.313.1l-.185.054c-.111.03-.223.058-.335.085l-.167.039c-.119.026-.237.049-.356.07l-.146.026c-.126.021-.252.038-.378.054l-.125.015q-.2.022-.4.036l-.1.007q-.207.012-.414.015h-.084c-.144,0-.288,0-.43-.008l-.062,0q-.223-.011-.445-.033l-.042,0c-.153-.016-.306-.036-.457-.06l-.022,0a1.414,1.414,0,0,1-.212-.044l-4.39-2.53h0c-.323-.183-.621-.05-.811.421-2.549,6.33-7.978,12.746-11.6,14.35a1.9,1.9,0,0,0-.206.108c-.044.027-.086.057-.129.087-.019.013-.038.025-.057.04a2.036,2.036,0,0,0-.157.132l-.01.01a2.062,2.062,0,0,0-.152.159h0a1.522,1.522,0,0,0-.4,1.033l.521,6.43c0,4.145,1.765,8.519,5.363,10.611h0l7.074,4.077h0l.05.029v0a9.933,9.933,0,0,0,6,1.174A3.9,3.9,0,0,0,332,219.093c7.912-8.173,11.76-19.235,11.76-25.354l.523-7.083c.011-.321-.067-.519-.209-.6" transform="translate(-191.227 -111.558)" fill="#f0ca30"/>
        <g id="Group_13810" data-name="Group 13810" transform="translate(120.223 69.825)" opacity="0.4">
          <g id="Group_13809" data-name="Group 13809">
            <g id="Group_13808" data-name="Group 13808" clip-path="url(#clip-path-13)">
              <path id="Path_36845" data-name="Path 36845" d="M332.437,185.507a.44.44,0,0,0-.447.023.6.6,0,0,0-.078.059.888.888,0,0,0-.12.142.066.066,0,0,0-.01.016,1.58,1.58,0,0,0-.1.211,31.868,31.868,0,0,1-2.379,4.687,37.985,37.985,0,0,1-2.632,3.783c-.46.577-.924,1.128-1.391,1.647a.034.034,0,0,1-.013.016c-.133.146-.262.288-.392.428a.2.2,0,0,1-.013.016c-.133.136-.263.273-.392.405-.065.071-.13.139-.2.208a15.083,15.083,0,0,1-4.185,3.161,1.97,1.97,0,0,0-.574.389,1.9,1.9,0,0,0-.139.143v0c-.01.013-.02.023-.029.036a.253.253,0,0,1,.026-.036l-7.066-4.075a.152.152,0,0,1,.023-.026.358.358,0,0,1,.049-.058.455.455,0,0,1,.042-.039.39.39,0,0,1,.036-.036.526.526,0,0,1,.042-.039s.007-.007.01-.007a1.423,1.423,0,0,1,.114-.1l.058-.039c.042-.029.084-.061.13-.087a1.779,1.779,0,0,1,.2-.107c3.621-1.6,9.051-8.023,11.6-14.35.136-.337.327-.5.541-.5a.552.552,0,0,1,.269.081l4.392,2.528Z" transform="translate(-312.297 -181.381)" fill="#fff"/>
            </g>
          </g>
        </g>
        <g id="Group_13813" data-name="Group 13813" transform="translate(137.61 70.385)" opacity="0.1">
          <g id="Group_13812" data-name="Group 13812">
            <g id="Group_13811" data-name="Group 13811" clip-path="url(#clip-path-14)">
              <path id="Path_36846" data-name="Path 36846" d="M372.692,186.949l0,0-7.08-4.078v0c-.156-.084-.382-.026-.661.185-.142.11-.292.217-.441.318-.052.036-.107.068-.162.1-.1.062-.191.126-.292.185-.068.042-.139.078-.207.12-.087.045-.172.1-.259.143s-.159.078-.24.117-.159.081-.237.117-.178.078-.269.114c-.071.032-.146.065-.221.094-.094.036-.191.071-.288.1-.068.026-.136.052-.2.075l-.314.1c-.062.016-.123.035-.185.052-.11.033-.224.059-.334.084-.055.013-.11.029-.165.039-.12.026-.24.052-.356.072-.052.01-.1.019-.149.026-.123.023-.249.039-.376.055-.042,0-.084.01-.127.016-.133.013-.263.026-.4.036a.977.977,0,0,0-.1.007c-.14.006-.279.013-.415.013h-.084c-.146,0-.289,0-.431-.007l-.062,0c-.149-.007-.3-.019-.444-.032-.016,0-.029,0-.042-.007q-.233-.024-.457-.058c-.01,0-.017,0-.023,0a1.549,1.549,0,0,1-.211-.045l2.632,1.517.046.024a1.078,1.078,0,0,1,.265.235h0a.7.7,0,0,1,.049.055c2.7,3.147,8.023,3.144,11.576.428.269-.2.493-.269.645-.2l.019.013a0,0,0,0,0,0,0,.329.329,0,0,1,.152.185.367.367,0,0,0-.152-.194" transform="translate(-357.46 -182.834)"/>
            </g>
          </g>
        </g>
        <g id="Group_13816" data-name="Group 13816" transform="translate(119.695 84.974)" opacity="0.2">
          <g id="Group_13815" data-name="Group 13815">
            <g id="Group_13814" data-name="Group 13814" clip-path="url(#clip-path-15)">
              <path id="Path_36847" data-name="Path 36847" d="M323.79,243.066l-6.98-4.021h0c-3.6-2.093-5.363-6.467-5.363-10.612l-.52-6.429a1.625,1.625,0,0,1,.644-1.272,2.237,2.237,0,0,0-.241.238l7.073,4.074a1.513,1.513,0,0,0-.4,1.036l.52,6.429c0,4.109,1.736,8.443,5.271,10.556" transform="translate(-310.923 -220.732)"/>
            </g>
          </g>
        </g>
        <path id="Path_36848" data-name="Path 36848" d="M355.581,193.168l-.525,7.083c0,6.12-3.847,17.18-11.757,25.356a3.888,3.888,0,0,1-2.065,1.027,9.921,9.921,0,0,1-6-1.173v0l-.049-.029-.094-.055c-3.536-2.113-5.27-6.447-5.27-10.558l-.522-6.428a1.53,1.53,0,0,1,.4-1.034l0,0c.045-.052.091-.1.139-.142a1.964,1.964,0,0,1,.574-.389,15.061,15.061,0,0,0,4.184-3.161c.072-.068.137-.136.2-.207.13-.133.259-.269.392-.4.007-.007.01-.013.013-.016.13-.139.259-.282.392-.428a.032.032,0,0,0,.013-.016c.466-.519.93-1.069,1.391-1.646a37.957,37.957,0,0,0,2.632-3.783,31.837,31.837,0,0,0,2.38-4.687,1.624,1.624,0,0,1,.1-.211.065.065,0,0,1,.01-.016.893.893,0,0,1,.12-.143.624.624,0,0,1,.078-.058.439.439,0,0,1,.447-.023l.049.023a1.086,1.086,0,0,1,.263.236h0c.016.016.032.036.049.055,2.7,3.148,8.023,3.144,11.576.428.269-.2.493-.269.646-.2l.019.013a0,0,0,0,0,0,0,.212.212,0,0,1,.087.075.753.753,0,0,1,.123.512" transform="translate(-202.529 -118.07)" fill="#f0ca30"/>
        <path id="Path_36849" data-name="Path 36849" d="M361.766,236.762l-4.213,2.432.653-7.621a1.986,1.986,0,0,1-.825-1.863,5.458,5.458,0,0,1,2.279-4.354c1.258-.726,2.278.045,2.278,1.723a5.726,5.726,0,0,1-.825,2.816Z" transform="translate(-219.801 -138.434)" fill="#455a64"/>
        <path id="Path_36850" data-name="Path 36850" d="M362.041,251.9l-3.816-2.2-.4,4.635Z" transform="translate(-220.076 -153.573)" fill="#37474f"/>
        <path id="Path_36851" data-name="Path 36851" d="M360.2,225.356a4.972,4.972,0,0,0-1.943,2.579l3.4,1.961h0a5.72,5.72,0,0,0,.825-2.816c0-1.678-1.021-2.449-2.279-1.723" transform="translate(-220.338 -138.434)" fill="#37474f"/>
        <path id="Path_36852" data-name="Path 36852" d="M346.664,146.123a3.978,3.978,0,0,0-4.038.206l-11.067,6.392a8.431,8.431,0,0,0-3.924,6.8v13.557a.973.973,0,0,0,.574.8,3.052,3.052,0,0,0,2.763,0,.973.973,0,0,0,.574-.8V159.517a4.565,4.565,0,0,1,1.968-3.408l11.067-6.392.012-.007v13.571a.973.973,0,0,0,.574.8,3.052,3.052,0,0,0,2.763,0,.973.973,0,0,0,.574-.8V149.724a3.978,3.978,0,0,0-1.841-3.6" transform="translate(-201.507 -89.589)" fill="#37474f"/>
        <path id="Path_36853" data-name="Path 36853" d="M371.686,155.124v13.557a.973.973,0,0,0,.574.8,2.356,2.356,0,0,0,.575.229V154.447l-1.149.663Z" transform="translate(-228.599 -94.99)" fill="#263238"/>
      </g>
    </g>
  </g>
</svg>
