<svg xmlns="http://www.w3.org/2000/svg" width="137.1" height="17.88" viewBox="0 0 137.1 17.88">
  <path id="ic-desktop-normal-bwkf-logo" d="M17.972,16.133a2.821,2.821,0,0,1-.214,1.231,2.561,2.561,0,0,1-.535.91,2.37,2.37,0,0,1-.8.642,5.708,5.708,0,0,1-1.017.375,8.415,8.415,0,0,1-1.231.214,10.752,10.752,0,0,1-1.338.054H4V7.246h8.726A7.175,7.175,0,0,1,13.8,7.3c.375.054.7.107,1.017.161.321.107.642.214.91.321a2.6,2.6,0,0,1,.749.589,2.233,2.233,0,0,1,.482.857,3.679,3.679,0,0,1,.161,1.178,2.8,2.8,0,0,1-.589,1.874,2.721,2.721,0,0,1-1.874.91,6.227,6.227,0,0,1,1.552.268,2.684,2.684,0,0,1,1.017.589,2.066,2.066,0,0,1,.589.91,3.679,3.679,0,0,1,.161,1.178ZM13.85,10.887a1.044,1.044,0,0,0-.054-.428.96.96,0,0,0-.268-.375,1.255,1.255,0,0,0-.535-.268,3.24,3.24,0,0,0-.8-.107H7.319v2.3h4.872a3.24,3.24,0,0,0,.8-.107,1.675,1.675,0,0,0,.535-.268.96.96,0,0,0,.268-.375.794.794,0,0,0,.054-.375Zm.749,4.872a1.482,1.482,0,0,0-.161-.7.952.952,0,0,0-.428-.375,1.788,1.788,0,0,0-.8-.161,7.559,7.559,0,0,0-1.178-.054H7.266V17.1H12.03a7.918,7.918,0,0,0,1.178-.054,2.9,2.9,0,0,0,.8-.214c.214-.107.375-.214.428-.375a1.04,1.04,0,0,0,.161-.7Zm19,3.158a16.1,16.1,0,0,1-3,.7,19.5,19.5,0,0,1-3.051.214,14.641,14.641,0,0,1-3.587-.428,7.023,7.023,0,0,1-2.623-1.231,5.574,5.574,0,0,1-1.66-2.034,6.324,6.324,0,0,1-.589-2.677A6.17,6.17,0,0,1,21.291,8.8a7.639,7.639,0,0,1,2.516-1.392,10.457,10.457,0,0,1,3.266-.482,10.77,10.77,0,0,1,3.051.428,7.552,7.552,0,0,1,2.409,1.338,6.525,6.525,0,0,1,1.552,2.195,7.493,7.493,0,0,1,.535,3v.8h-12.1a2.881,2.881,0,0,0,.535,1.071,3.081,3.081,0,0,0,1.017.8,8.717,8.717,0,0,0,1.552.535,12.693,12.693,0,0,0,2.195.214c.589,0,1.178-.054,1.767-.107a8.281,8.281,0,0,0,1.66-.321,10.574,10.574,0,0,0,1.392-.428,9.516,9.516,0,0,0,.964-.428v2.891Zm-2.3-6.638a3.25,3.25,0,0,0-.268-.964,2.149,2.149,0,0,0-.7-.857,3.607,3.607,0,0,0-1.285-.642,6.809,6.809,0,0,0-1.981-.268,6.693,6.693,0,0,0-1.927.268,3.932,3.932,0,0,0-1.338.7,3.411,3.411,0,0,0-.857.91,2.323,2.323,0,0,0-.375.857ZM48.326,7.246l3.158,8.512,3.373-8.512h3.426L53.358,19.506H49.664l-3.212-8.244L43.24,19.506H39.546L34.621,7.246H38.1L41.42,15.6l3.212-8.351h3.694Zm21.36,12.259V18.274c-.428.214-.857.428-1.338.642-.482.161-.964.321-1.5.482-.535.107-1.071.214-1.606.268s-1.124.107-1.66.107a7.882,7.882,0,0,1-1.927-.214A5.07,5.07,0,0,1,60,18.97a2.839,2.839,0,0,1-1.124-1.124,3.179,3.179,0,0,1-.428-1.66,3.174,3.174,0,0,1,.7-2.088,4.414,4.414,0,0,1,2.088-1.338,13.3,13.3,0,0,1,3.533-.8c1.445-.214,3.1-.321,5.032-.428v-.268a1.079,1.079,0,0,0-.161-.589,1.449,1.449,0,0,0-.589-.535,4.357,4.357,0,0,0-1.178-.375A9.029,9.029,0,0,0,65.992,9.6c-.589,0-1.178.054-1.767.107a16.391,16.391,0,0,0-1.713.268,13.169,13.169,0,0,0-1.552.375c-.482.161-.91.268-1.338.428V7.835c.428-.107.91-.214,1.392-.321.535-.107,1.071-.214,1.606-.268a16.931,16.931,0,0,1,1.713-.161c.589-.054,1.124-.054,1.66-.054a15.483,15.483,0,0,1,2.837.268,6.983,6.983,0,0,1,2.248.8,4.566,4.566,0,0,1,1.5,1.338,3.322,3.322,0,0,1,.535,1.981v8.137H69.686v-.054Zm0-5.621c-1.285.054-2.355.107-3.266.214s-1.606.214-2.195.321a9.786,9.786,0,0,0-1.392.375,3.087,3.087,0,0,0-.749.428,1.123,1.123,0,0,0-.321.428,1.045,1.045,0,0,0-.054.375,1.26,1.26,0,0,0,.107.428,1.016,1.016,0,0,0,.428.375,5.817,5.817,0,0,0,.749.268,7.517,7.517,0,0,0,1.231.107c.535,0,1.071-.054,1.606-.107.535-.107,1.017-.214,1.5-.321a7.133,7.133,0,0,0,1.285-.535,9.415,9.415,0,0,0,1.071-.642V13.885Zm17.666,5.621a4.8,4.8,0,0,0-.482-1.767,5.763,5.763,0,0,0-.964-1.285,5.9,5.9,0,0,0-1.338-.91,13.321,13.321,0,0,0-1.552-.589c-.535-.161-1.071-.214-1.552-.321-.535-.054-1.017-.107-1.445-.107h-.964v4.925H75.735V7.246h3.319v4.711h.7A13.126,13.126,0,0,0,81.2,11.85a7.5,7.5,0,0,0,1.5-.321,10.863,10.863,0,0,0,1.392-.589,6.648,6.648,0,0,0,1.231-.91,5.246,5.246,0,0,0,.91-1.231,4.748,4.748,0,0,0,.428-1.552h3.373a8.577,8.577,0,0,1-.375,1.767A4.911,4.911,0,0,1,88.9,10.4a9.653,9.653,0,0,1-.964,1.071,7.31,7.31,0,0,1-1.124.8,5.36,5.36,0,0,1-1.124.535,4.78,4.78,0,0,1-1.071.321,5.647,5.647,0,0,1,1.285.321,13.942,13.942,0,0,1,1.338.535,8.931,8.931,0,0,1,1.285.857A5.612,5.612,0,0,1,89.6,16.026a6.052,6.052,0,0,1,.8,1.552,7.246,7.246,0,0,1,.428,1.927h-3.48ZM133.819,9.87a5.829,5.829,0,0,0-1.017.054,2.9,2.9,0,0,0-.8.214,1.05,1.05,0,0,0-.482.482,2.133,2.133,0,0,0-.161.91v.482h9.261v2.623h-9.261v4.925h-3.319v-8.3a5.746,5.746,0,0,1,.268-1.713,3.137,3.137,0,0,1,.964-1.285,5.442,5.442,0,0,1,1.767-.8,12.689,12.689,0,0,1,2.73-.268H141.1V9.816h-7.281V9.87ZM108.444,13.3a6.707,6.707,0,0,1-.589,2.837,5.791,5.791,0,0,1-1.713,2.088,7.722,7.722,0,0,1-2.677,1.231,14.519,14.519,0,0,1-3.533.428,14.194,14.194,0,0,1-3.533-.428,7.289,7.289,0,0,1-2.677-1.231,5.019,5.019,0,0,1-1.713-2.088,5.985,5.985,0,0,1-.589-2.837,6.707,6.707,0,0,1,.589-2.837,6.4,6.4,0,0,1,1.713-2.088A8.208,8.208,0,0,1,96.4,7.139a14.789,14.789,0,0,1,7.066,0,7.722,7.722,0,0,1,2.677,1.231,5.462,5.462,0,0,1,1.713,2.088,6.708,6.708,0,0,1,.589,2.837Zm18.148,0A6.707,6.707,0,0,1,126,16.133a5.791,5.791,0,0,1-1.713,2.088,7.722,7.722,0,0,1-2.677,1.231,14.519,14.519,0,0,1-3.533.428,14.194,14.194,0,0,1-3.533-.428,7.289,7.289,0,0,1-2.677-1.231,5.019,5.019,0,0,1-1.713-2.088,5.985,5.985,0,0,1-.589-2.837,6.707,6.707,0,0,1,.589-2.837,6.4,6.4,0,0,1,1.713-2.088,8.208,8.208,0,0,1,2.677-1.231,14.789,14.789,0,0,1,7.066,0,7.722,7.722,0,0,1,2.677,1.231A5.462,5.462,0,0,1,126,10.459a6.708,6.708,0,0,1,.589,2.837Zm-1.071-6.049L124.13,5.962a5.709,5.709,0,0,0-4.5-1.392l-2.463.321-.321-2.516,2.463-.321a8.391,8.391,0,0,1,6.478,2.034l1.392,1.285-1.66,1.874Z" transform="translate(-4 -2)"/>
</svg>
