<?xml version="1.0" encoding="utf-8"?>
<!-- Generator: Adobe Illustrator 24.3.0, SVG Export Plug-In . SVG Version: 6.00 Build 0)  -->
<svg version="1.1" id="Layer_1" xmlns="http://www.w3.org/2000/svg" xmlns:xlink="http://www.w3.org/1999/xlink" x="0px" y="0px"
	 viewBox="0 0 255.1 56.7" style="enable-background:new 0 0 255.1 56.7;" xml:space="preserve">
<g>
	<path d="M21.1,19.7c3.1,0,5.9,1.5,7.5,3.9c1.4-2.4,4-3.9,7.1-3.9c2.9,0,5.5,1.4,7.2,3.6l1.2-3h4.6v24.3h-6.6V31.4
		c0-3.8-1.8-6-4.7-6c-2.3,0-3.6,1.7-3.6,5v14.1h-6.4V31.4c0-3.8-1.7-6-4.7-6c-2.4,0-3.7,1.7-3.7,5v14.1h-6.6V29.3
		C12.6,23.6,16.1,19.7,21.1,19.7"/>
	<path d="M53.1,32.4c0-7.4,5.6-12.8,13.1-12.8c7.5,0,13.1,5.5,13.1,12.8c0,7.3-5.6,12.8-13.1,12.8C58.8,45.2,53.1,39.7,53.1,32.4
		 M72.7,32.4c0-3.9-2.7-6.7-6.5-6.7c-3.8,0-6.5,2.7-6.5,6.7c0,3.9,2.7,6.7,6.5,6.7C70.1,39,72.7,36.3,72.7,32.4"/>
	<polygon points="99,44.5 91.3,32.9 91.3,44.5 84.7,44.5 84.7,11.5 91.3,11.5 91.3,31 98.6,20.2 106.1,20.2 97.9,31.8 107,44.5 	"/>
	<path d="M107.3,32.4c0-7.4,5.6-12.8,13.1-12.8c7.5,0,13.1,5.5,13.1,12.8c0,7.3-5.6,12.8-13.1,12.8C113,45.2,107.3,39.7,107.3,32.4
		 M126.9,32.4c0-3.9-2.7-6.7-6.5-6.7c-3.8,0-6.5,2.7-6.5,6.7c0,3.9,2.7,6.7,6.5,6.7C124.3,39,126.9,36.3,126.9,32.4"/>
	<path d="M164.3,32.4c0,7.4-5.4,12.8-12.8,12.8c-3,0-5.6-1-7.6-2.7l-0.8,2h-4.8v-33h6.6v10.1c1.9-1.3,4.2-2,6.7-2
		C159,19.5,164.3,25,164.3,32.4 M151,39c3.8,0,6.6-2.8,6.6-6.6c0-3.8-2.8-6.7-6.6-6.7c-3.8,0-6.6,2.9-6.6,6.7
		C144.4,36.1,147.2,39,151,39"/>
	<path d="M193.8,20.2v24.3h-5.1l-0.6-2.2c-2.1,1.8-4.8,2.9-7.9,2.9c-7.3,0-12.7-5.5-12.7-12.9c0-7.3,5.4-12.8,12.7-12.8
		c3.1,0,5.9,1.1,8,3l0.7-2.3C188.9,20.2,193.8,20.2,193.8,20.2z M187.3,32.3c0-3.8-2.8-6.7-6.6-6.7s-6.6,2.9-6.6,6.7
		c0,3.8,2.8,6.7,6.6,6.7C184.5,39,187.3,36.2,187.3,32.3"/>
	<path d="M214.6,20.1v6.2h-2.8c-3.7,0-5.2,1.6-5.2,5.6v12.6h-6.6V20.2h4.2l1.2,3c1.7-2.1,3.9-3.1,7-3.1H214.6z"/>
	<path d="M242.6,20.2v24.3h-5.1l-0.6-2.2c-2.1,1.8-4.8,2.9-7.9,2.9c-7.3,0-12.7-5.5-12.7-12.9c0-7.3,5.4-12.8,12.7-12.8
		c3.1,0,5.9,1.1,8,3l0.7-2.3C237.7,20.2,242.6,20.2,242.6,20.2z M236.1,32.3c0-3.8-2.8-6.7-6.6-6.7s-6.6,2.9-6.6,6.7
		c0,3.8,2.8,6.7,6.6,6.7C233.3,39,236.1,36.2,236.1,32.3"/>
</g>
</svg>
