<svg xmlns="http://www.w3.org/2000/svg" width="52" height="52.12" viewBox="0 0 52 52.12">
  <g id="customer-service" transform="translate(-0.572)">
    <g id="Group_14163" data-name="Group 14163" transform="translate(0.573 8.406)">
      <g id="Group_14162" data-name="Group 14162" transform="translate(0)">
        <path id="Path_24039" data-name="Path 24039" d="M42.817,116.989l-1.946-5.839a5.885,5.885,0,0,0-4.53-3.928L30.722,106.2v-.435a8.46,8.46,0,0,0,2.506-2.225h1.7a2.525,2.525,0,0,0,2.522-2.522V90.928a10.928,10.928,0,0,0-21.857,0v5.885a3.368,3.368,0,0,0,2.681,3.293,8.422,8.422,0,0,0,4.044,5.658v.435L16.7,107.221a5.884,5.884,0,0,0-4.529,3.928l-.336,1.01L8.968,109.3a.842.842,0,0,1,0-1.19l3.321-3.32L6.056,98.554,2.3,102.307a5.885,5.885,0,0,0,0,8.322L13.665,121.99a5.882,5.882,0,0,0,8.3.025l4.095-3.752-1.277-1.274Zm-7.051-15.972a.841.841,0,0,1-.841.841h-.707a8.35,8.35,0,0,0,.548-1.751,3.33,3.33,0,0,0,1-.4Zm-.841-2.756v-2.9a1.667,1.667,0,0,1,0,2.9Zm-16.813,0a1.667,1.667,0,0,1,0-2.9Zm0-5.651v.96a3.334,3.334,0,0,0-.841.348V90.928a9.247,9.247,0,0,1,18.494,0v2.989a3.3,3.3,0,0,0-.841-.348v-.96h-.841A9.249,9.249,0,0,1,27.5,89.884l-.984-.984-.984.984a9.249,9.249,0,0,1-6.581,2.726Zm1.681,5.885V94.259a10.9,10.9,0,0,0,6.725-2.988,10.894,10.894,0,0,0,6.725,2.988v4.235a6.675,6.675,0,0,1-.91,3.363H26.519v1.681h4.434a6.715,6.715,0,0,1-11.159-5.044Zm9.247,8.019v.04l-2.522,2.522L24,106.553v-.04a8.4,8.4,0,0,0,5.044,0Zm-15.28,5.167A4.2,4.2,0,0,1,17,108.874l5.876-1.068,3.646,3.646,3.645-3.645,5.875,1.068a4.2,4.2,0,0,1,3.236,2.807l1.21,3.626H23.1l-3.274-3.274-3.638,3.291a.859.859,0,0,1-1.189,0l-1.836-1.836ZM6.055,100.931l3.855,3.855L9,105.7l-3.855-3.855ZM20.8,120.8a4.2,4.2,0,0,1-5.944,0L3.49,109.44a4.2,4.2,0,0,1,0-5.944l.462-.462,3.855,3.855-.03.03a2.526,2.526,0,0,0,0,3.567l6.028,6.028a2.509,2.509,0,0,0,1.784.739,2.475,2.475,0,0,0,1.753-.71l.063-.056,3.873,3.873Zm1.723-1.58-3.864-3.864,1.11-1,3.858,3.858Z" transform="translate(-0.58 -80)"/>
      </g>
    </g>
    <g id="Group_14165" data-name="Group 14165" transform="translate(35.759)">
      <g id="Group_14164" data-name="Group 14164">
        <path id="Path_24040" data-name="Path 24040" d="M349.719,0H337.95a2.525,2.525,0,0,0-2.522,2.522V9.247a2.525,2.525,0,0,0,2.522,2.522H340.2l-.869,5.07,8.112-5.07h2.281a2.525,2.525,0,0,0,2.522-2.522V2.522A2.525,2.525,0,0,0,349.719,0Zm.841,9.247a.842.842,0,0,1-.841.841h-2.763l-5.339,3.337.572-3.337H337.95a.842.842,0,0,1-.841-.841V2.522a.842.842,0,0,1,.841-.841h11.769a.842.842,0,0,1,.841.841Z" transform="translate(-335.428)"/>
      </g>
    </g>
    <g id="Group_14167" data-name="Group 14167" transform="translate(39.122 3.363)">
      <g id="Group_14166" data-name="Group 14166">
        <rect id="Rectangle_8486" data-name="Rectangle 8486" width="10.088" height="1.681"/>
      </g>
    </g>
    <g id="Group_14169" data-name="Group 14169" transform="translate(39.122 6.725)">
      <g id="Group_14168" data-name="Group 14168">
        <rect id="Rectangle_8487" data-name="Rectangle 8487" width="6.725" height="1.681"/>
      </g>
    </g>
    <g id="Group_14171" data-name="Group 14171" transform="translate(47.528 6.725)">
      <g id="Group_14170" data-name="Group 14170">
        <rect id="Rectangle_8488" data-name="Rectangle 8488" width="1.681" height="1.681"/>
      </g>
    </g>
    <g id="Group_14173" data-name="Group 14173" transform="translate(0.572 2.522)">
      <g id="Group_14172" data-name="Group 14172">
        <path id="Path_24041" data-name="Path 24041" d="M26.512,24A23.523,23.523,0,0,0,3.607,42.2L2.014,39.54l-1.442.865,2.955,4.924,4.924-2.955-.865-1.442L5.307,42.3A21.863,21.863,0,0,1,32.988,26.656l.5-1.606A23.523,23.523,0,0,0,26.512,24Z" transform="translate(-0.572 -24)"/>
      </g>
    </g>
    <g id="Group_14175" data-name="Group 14175" transform="translate(43.494 15.659)">
      <g id="Group_14174" data-name="Group 14174">
        <path id="Path_24042" data-name="Path 24042" d="M417.706,151.971l-4.924-2.955-2.954,4.925,1.442.865,1.471-2.452a21.875,21.875,0,0,1-3.7,20.825l1.306,1.059a23.541,23.541,0,0,0,4.028-22.307l2.471,1.482Z" transform="translate(-409.036 -149.016)"/>
      </g>
    </g>
  </g>
</svg>
