<svg id="Group_13216" data-name="Group 13216" xmlns="http://www.w3.org/2000/svg" width="211.962" height="91.646" viewBox="0 0 211.962 91.646">
  <path id="Path_1130" data-name="Path 1130" d="M238.512,172.923c-.45-.529.016-.9.22-1.322.1-.205.535-.237.319-.6.485-.418,1.07.112,1.57-.166.44.24,1.014-.076,1.412.341-.014.381-.3.247-.5.254-.246.009-.511-.169-.729.084.074.608-.464.831-.758,1.207-.111.142-.391.285-.132.49a.35.35,0,0,0,.528-.127c.093-.149.167-.309.264-.455a.3.3,0,0,1,.369-.151.329.329,0,0,1,.23.34,1.313,1.313,0,0,1-.783,1.09c-.411.176-.921.554-1.3-.1-.331-.218-.363-.676-.707-.883" transform="translate(-174.134 -170.657)"/>
  <path id="Path_1136" data-name="Path 1136" d="M241.827,171.638c.217-.812.889.029,1.229-.339a1.6,1.6,0,0,1,1.231.369c-.226.166-.57.006-.744.251.006.469,1.1.62.429,1.166-.511.419-.692-.409-1.051-.63-.386-.237-.565-.759-1.093-.818" transform="translate(-175.156 -170.786)"/>
  <path id="Path_1138" data-name="Path 1138" d="M239.541,170.759c-.5.312-1.05.081-1.57.165a17.193,17.193,0,0,1-3.348-.162,17.416,17.416,0,0,1,4.918,0" transform="translate(-173.054 -170.586)"/>
  <path id="Path_1170" data-name="Path 1170" d="M232.091,171.253l.4.051c-.293.138-.582.244-.86.009l.457-.06" transform="translate(-172.182 -170.781)"/>
  <path id="Path_1307" data-name="Path 1307" d="M240.169,172.537a.909.909,0,0,1-.531.519c-.164.046-.252-.123-.258-.271-.013-.327.186-.464.487-.479.153-.008.288.024.3.231" transform="translate(-174.442 -171.088)"/>
  <path id="Path_1372" data-name="Path 1372" d="M237.165,175.592c-.168.171-.266.473-.576.441-.166-.017-.2-.2-.141-.351.089-.225.213-.427.506-.388.161.021.278.087.211.3" transform="translate(-173.579 -171.959)"/>
  <g id="Group_13196" data-name="Group 13196" transform="translate(0 0.003)">
    <path id="Path_1127" data-name="Path 1127" d="M330.017,223.856a3.958,3.958,0,0,1,1.765.5,2.165,2.165,0,0,0,.877.218c.384.183.85.234,1.08.667-.35.406-.126,1.309-1.052,1.219a11.961,11.961,0,0,0-1.832-.012,2.54,2.54,0,0,0,.493,1.22.77.77,0,0,1,.018.245c-.1.453.011,1.02-.676,1.152a.355.355,0,0,0-.205.44c.069.178.262.216.445.22s.321-.149.5-.13c.433.368.857.657,1.445.234.258-.186.572-.181.573.29-.027.135-.208.36.146.291a2.144,2.144,0,0,0,1.195-.644,2.071,2.071,0,0,0,.5-.743c.026-.069.057-.138.085-.207a1.252,1.252,0,0,0-.018-.875c-.03-.074-.055-.148-.079-.223a2.583,2.583,0,0,0-.849-1.159c-.128-.106-.278-.261-.152-.434.143-.2.348-.149.53-.02.89.283,1.3,1.1,1.755,1.768a15.63,15.63,0,0,1,2.424,8.47c-.109.147-.077.334-.142.494-.04.885-.029,1.77-.006,2.656a1.3,1.3,0,0,0,.139.365,24.641,24.641,0,0,1-.495,4.609.445.445,0,0,1-.072-.445,1.813,1.813,0,0,0,.035.945,7.2,7.2,0,0,1-.309,1.627c-.115-.115-.139-.243-.095-.316.023.224-.118.524.087.806q9.886.013,19.773.031c.4,0,.822-.12,1.193.143a.918.918,0,0,1-.6.088q-9.728,0-19.455,0c-.15,0-.3.028-.322.015a6.07,6.07,0,0,1,.814-.008q9.375,0,18.751,0a3.73,3.73,0,0,0,.964-.043,1.035,1.035,0,0,1,.681.846,1.583,1.583,0,0,0-.011.86,1.142,1.142,0,0,1-.839.861.833.833,0,0,0-.317-.127c-.411-.033-.822-.018-1.234-.018q-71.268,0-142.537,0a9.768,9.768,0,0,0-1.319.031.422.422,0,0,0-.249.212l.031-.04c-.353.305-.149.673-.114,1.022-.4,4.151-3,6.625-7.2,7.025-.3-.055-.6-.189-.856.1a10.137,10.137,0,0,1-6.362,4.144c-1.232.017-2.464.024-3.7,0a9.279,9.279,0,0,1-3.058-1c-.135-.248-.294-.161-.455-.032a7.4,7.4,0,0,1-3.367.856c-.358-.168-.752,0-1.115-.116-.578-.076-1.164-.076-1.735-.205a9.486,9.486,0,0,1-4.492-2.287c-.337-.272-.636-.591-.952-.889-.082-.212-.29-.123-.438-.181-.892.064-1.785,0-2.675.026a.834.834,0,0,0-.216.137,1.082,1.082,0,0,1-.724-.158.234.234,0,0,1,.212-.086.991.991,0,0,0-.535.04c-3.425-.848-5.143-3.223-5.868-6.513a6.1,6.1,0,0,0-.362-1.874c-.034-.245-.234-.183-.39-.209-6.623.008-13.243-.023-19.863.016a.863.863,0,0,0-.3.118,1.36,1.36,0,0,1-.242-2.464l.165.023c6.27.038,12.539,0,18.809.018a3.727,3.727,0,0,1,.851.026c-6.11-.066-12.2-.007-18.291-.035-.393,0-.828.142-1.171-.2.317-.232.681-.119,1.02-.119q8.971-.012,17.944,0c1.484,0,1.484,0,1.854-1.311a.275.275,0,0,1,.11.251,2.426,2.426,0,0,0-.065-.9,11.286,11.286,0,0,1,.5-2.491.233.233,0,0,1,.088.212.923.923,0,0,0-.045-.535.369.369,0,0,1,.136-.361c.146-.334.377-.649.224-1.047,1.745-6.016,5.752-9.59,11.818-10.94.227-.21.579.093.787-.193a3.8,3.8,0,0,1,1.456-.3,3.832,3.832,0,0,0,1.589-.084.525.525,0,0,1,.271.025c1.118.053,2.236.044,3.354,0a.741.741,0,0,0,.24-.134,21.638,21.638,0,0,1,4.543.678c.457-.151.254-.554.325-.852a2.11,2.11,0,0,0,.093-1.249,48,48,0,0,1,1.19-5.85,1.234,1.234,0,0,0,.21-1.023q.115-.445.23-.89a1.464,1.464,0,0,0,.3-1.046,11.3,11.3,0,0,1,.836-2.865.734.734,0,0,0,.206-.662,37.7,37.7,0,0,1,1.973-5.526c.235-.57.131-.762-.44-.792.034-.083.119-.13.144-.209a7.7,7.7,0,0,0-.96.035.8.8,0,0,0-.19.122c-3.362-.472-5.65-2.483-7.418-5.215a10.248,10.248,0,0,1-1.173-2.347.571.571,0,0,0-.237-.664,15.487,15.487,0,0,1-1.237-5.758c-.137-.308.012-.656-.132-.964,0-.062,0-.123-.006-.185a4.458,4.458,0,0,0,0-1.751,17.915,17.915,0,0,1,.673-4.607.236.236,0,0,1,.088.212.943.943,0,0,0-.044-.536,20.377,20.377,0,0,1,10.262-13.442,20.126,20.126,0,0,1,4.109-1.652c1.19-.341,2.387-.712,3.573-1.093a1.572,1.572,0,0,0,.711.051.22.22,0,0,1-.254-.111,7.071,7.071,0,0,1,1.661-.3c1.045.145,2.088-.137,3.131-.009.491.149.489.435.21.787a1.29,1.29,0,0,0-.374,1.281c.124.409.1.715-.455.65-.088-.01-.175-.023-.263-.024a1.3,1.3,0,0,0-1.426.914,1.1,1.1,0,0,0,.707,1.277,1.216,1.216,0,0,0,1.631-.421.409.409,0,0,0,.1-.376c-.3.059-.432.366-.676.487-.224.111-.452.184-.645-.023a.39.39,0,0,1,.055-.558c.43-.457.739-1.085,1.487-1.123.984.307,1.384.137,1.77-.759-.234-.049-.267.179-.384.281-.249.218-.537.313-.784.081-.3-.278-.045-.544.146-.753a6.58,6.58,0,0,0,.8-1.035c.415-.263.648.069.908.287a10.586,10.586,0,0,0,1.087,1c.17-.154.046-.272-.018-.389-.13-.241-.5-.443-.262-.751a.712.712,0,0,1,.817-.123,9.749,9.749,0,0,1,4.669,2.758,15.092,15.092,0,0,1,3.738,6c.227.66.442,1.324.662,1.986l1.928-.751c1.575-.615,3.163-1.188,4.78-1.684.5-.153,1.054-.064,1.5-.391.28.163.483-.017.695-.156a6.279,6.279,0,0,1,1.888-.4c.21-.178.533.077.719-.188a.388.388,0,0,1,.4-.126.94.94,0,0,0,.514.062c.056,0,.125.024.169-.039a.151.151,0,0,1-.208-.074,32.873,32.873,0,0,1,5.36-.879c1.337-.157,2.685-.213,4.028-.314.234.125.5.063.747.149,2.813-.057,5.626-.067,8.44-.061a29.679,29.679,0,0,0,3.423.035,1.487,1.487,0,0,1,.487-.046,7.625,7.625,0,0,1,1.622.073,3.964,3.964,0,0,1,1.714.164.371.371,0,0,1-.414.088,3.3,3.3,0,0,0,1.241-.044,50.354,50.354,0,0,1,7.634,1.36c-.022.063-.117.089-.118.1-.018.135.051.016.076.018a2.618,2.618,0,0,1,.515.038c.271.218.671.133.921.4a12.941,12.941,0,0,1,4.087,1.05c1.424.429,2.721,1.137,4.13,1.576.534.167.413-.328.468-.52a18.559,18.559,0,0,1,1.953-4.593,12.764,12.764,0,0,1,5.613-5.154c.659-.3,1.365-.506,2.049-.754a1.507,1.507,0,0,0,.478.038c.023,0,.19.045.023-.051a.542.542,0,0,0-.041-.069,4.036,4.036,0,0,1,1.3-.289c1.7-.03,3.4-.016,5.093-.006a6.757,6.757,0,0,1,1.631.3c.035-.112.023.154-.057.074-.037-.038-.093.049-.058.048a1.881,1.881,0,0,1,.814.058l-.027-.016a1.82,1.82,0,0,0,1.22.243c3.958,1.063,7.658,2.617,10.611,5.587a1.131,1.131,0,0,0,.685.695,17.924,17.924,0,0,1,3.881,5.812c-.047.535.275,1.282-.225,1.547-.518.273-.808-.515-1.236-.78a.367.367,0,0,0-.3-.064c-.109.331.165.5.343.7.547.613,1.292,1.015,1.792,1.683.284.38.485.108.684-.11a2.984,2.984,0,0,1,.365,1.442c.031.29-.046.6.17.856a1.206,1.206,0,0,1,.171.869,2.51,2.51,0,0,1,.064.86.5.5,0,0,1-.067.277.166.166,0,0,1-.234-.077,6.278,6.278,0,0,1-.037-1.051c.114.282-.2.808.169,1.221a21.138,21.138,0,0,1,.1,4.221,1.089,1.089,0,0,0,.151.415,17.421,17.421,0,0,1-1.542,6.044c-.288.133-.309.373-.257.642-1.685,3.559-4.164,6.165-8.237,6.854a1.658,1.658,0,0,0-.317-.127c-.285-.045-.572-.009-.849-.028-.008.125.164.1.166.212-.581.026-.664.232-.428.787a71.468,71.468,0,0,1,3.03,8.846c.089.32.055.716.564.735a11.621,11.621,0,0,1,4.287,1.117,1.012,1.012,0,0,0,.907-.04,7.977,7.977,0,0,1,3.047-.71c.4.19.852-.038,1.255.144l-.014-.028a1.605,1.605,0,0,0,1.219.062,11.228,11.228,0,0,1,6.014,3.67c-.028.156.089.161.19.184a6.015,6.015,0,0,0,1-.024.828.828,0,0,0,.191-.119" transform="translate(-147.977 -170.775)"/>
    <path id="Path_1128" data-name="Path 1128" d="M240.39,282.469c-.018-.081-.037-.161-.055-.242a1.849,1.849,0,0,1,.95-.084q71.909-.007,143.819,0a1.616,1.616,0,0,1,.945.095.33.33,0,0,0-.006.132,2.79,2.79,0,0,1-1.132.081q-71.249.005-142.5,0c-.675,0-1.35.008-2.025.013" transform="translate(-174.933 -203.273)"/>
    <path id="Path_1129" data-name="Path 1129" d="M406.734,250.325l0-.175a1.9,1.9,0,0,1,1.408-1.409l.736-.261c-.458-.215-.458-.215.339-.8.22.46,1.019.2,1.075.864-.138.03-.324.018-.4.1s.066.175.164.236a1.6,1.6,0,0,1,.909,1.438,18.59,18.59,0,0,1-1.214,1.724c-.232.276-.427.662-.9.566-.05-.385-.234-.346-.463-.143-.682.6-1.148.385-1.472-.382-.565-.538-.2-1.168-.176-1.765" transform="translate(-223.458 -193.222)"/>
    <path id="Path_1131" data-name="Path 1131" d="M388.084,191.9c-.052.208.108.518-.169.6a.615.615,0,0,1-.55-.169c-.546-.9-1.547-1.319-2.176-2.121a1.8,1.8,0,0,1-.217-.271.53.53,0,0,1,.064-.649c.244-.248.434-.048.581.126a7.474,7.474,0,0,0,1.016,1.086c.286-.582.066-1.14.392-1.582l.466,1.1a.888.888,0,0,0,.258.809,1.781,1.781,0,0,1,.335,1.068" transform="translate(-217.123 -176.072)"/>
    <path id="Path_1132" data-name="Path 1132" d="M437.718,278.824a.925.925,0,0,1-.673.127q-9.993,0-19.987,0c-.084,0-.169-.023-.251-.177h20.756a.124.124,0,0,1,.156.05" transform="translate(-226.438 -202.293)"/>
    <path id="Path_1135" data-name="Path 1135" d="M301.895,180.122l-.369.01a2.162,2.162,0,0,1-.955.072q-5.109.01-10.217,0a2.14,2.14,0,0,1-.955-.072c-.193-.015-.4.028-.54-.171q6.518-.312,13.035,0c.058.035.078.072.059.108s-.038.055-.057.055" transform="translate(-189.095 -173.41)"/>
    <path id="Path_1139" data-name="Path 1139" d="M390.319,199.074l.011-.19c.056-.075.109-.072.159.008a20.334,20.334,0,0,1,0,4.931l-.169-.186a27.039,27.039,0,0,1,0-4.563" transform="translate(-218.679 -178.963)"/>
    <path id="Path_1140" data-name="Path 1140" d="M214.711,299.824a8.85,8.85,0,0,1,3.694,0,8.643,8.643,0,0,1-3.694,0" transform="translate(-167.454 -208.383)"/>
    <path id="Path_1142" data-name="Path 1142" d="M202.434,253.574l-.182-.015c-.042-.033-.057-.064-.043-.1s.028-.049.042-.049a34.777,34.777,0,0,1,3.871,0c0,.057,0,.114,0,.17a17.974,17.974,0,0,1-3.687,0" transform="translate(-163.804 -194.878)"/>
    <path id="Path_1143" data-name="Path 1143" d="M417.441,263.721a.4.4,0,0,1,.171-.358,24.168,24.168,0,0,1-.008,3.515l-.167-.185a11.966,11.966,0,0,1,0-2.973" transform="translate(-226.595 -197.798)"/>
    <path id="Path_1144" data-name="Path 1144" d="M201.618,253.422c0,.049,0,.1,0,.147a1.682,1.682,0,0,1-1.583.038,5.1,5.1,0,0,1,1.582-.184" transform="translate(-163.171 -194.887)"/>
    <path id="Path_1145" data-name="Path 1145" d="M205.281,201.161a2.184,2.184,0,0,1,0,1.751q0-.875,0-1.751" transform="translate(-164.701 -179.644)"/>
    <path id="Path_1146" data-name="Path 1146" d="M200.97,299.191c.6.064,1.227-.2,1.8.159a.342.342,0,0,1-.262.089,2.4,2.4,0,0,1-.849-.067c-.249.011-.5.05-.688-.181" transform="translate(-163.444 -208.245)"/>
    <path id="Path_1147" data-name="Path 1147" d="M375.6,224.744l.176.154-1,.057c-.145-.189-.489.152-.569-.214a2.6,2.6,0,0,1,1.393,0" transform="translate(-214.006 -186.499)"/>
    <path id="Path_1148" data-name="Path 1148" d="M221.444,224.747c-.2.247-.514.091-.752.2l-1.006-.053a.519.519,0,0,0,0-.137,3.532,3.532,0,0,1,1.763-.014" transform="translate(-168.905 -186.497)"/>
    <path id="Path_1149" data-name="Path 1149" d="M403.035,245.869c-.154-.076-.069-.135.013-.194l1.384.04a.484.484,0,0,0,0,.14,2.4,2.4,0,0,1-1.4.014" transform="translate(-222.393 -192.636)"/>
    <path id="Path_1150" data-name="Path 1150" d="M216.63,241.715c.365.38.007.717-.067,1.07a.116.116,0,0,1-.076,0,.233.233,0,0,1-.065-.051,2.829,2.829,0,0,1,.209-1.023" transform="translate(-167.951 -191.48)"/>
    <path id="Path_1151" data-name="Path 1151" d="M217.347,238.981c.278.458.048.77-.3,1.046a2.986,2.986,0,0,1,.3-1.046" transform="translate(-168.135 -190.682)"/>
    <path id="Path_1152" data-name="Path 1152" d="M214.668,251.42a1.088,1.088,0,0,1-.019,1.231.334.334,0,0,1-.159-.175l.178-1.057" transform="translate(-167.39 -194.312)"/>
    <path id="Path_1153" data-name="Path 1153" d="M382.142,180.428c-.477.013-.715-.208-.685-.695a2.009,2.009,0,0,1,.685.695" transform="translate(-216.12 -173.39)"/>
    <path id="Path_1154" data-name="Path 1154" d="M307.267,180.186c0-.054,0-.108,0-.162a5.188,5.188,0,0,1,1.683.15l-1.681.012" transform="translate(-194.467 -173.474)"/>
    <path id="Path_1155" data-name="Path 1155" d="M312.725,180.512c-.389.289-.81.123-1.233.028l.405-.072.828.044" transform="translate(-195.701 -173.604)"/>
    <path id="Path_1157" data-name="Path 1157" d="M408.413,246.632c-.381.282-.624.011-.877-.219.35-.159.6.1.877.219" transform="translate(-223.732 -192.836)"/>
    <path id="Path_1158" data-name="Path 1158" d="M390.031,196.016a.555.555,0,0,1-.17-.856,1.344,1.344,0,0,1,.17.856" transform="translate(-218.535 -177.892)"/>
    <path id="Path_1159" data-name="Path 1159" d="M325.626,183.063c-.3-.083-.635-.07-.865-.333a.1.1,0,0,1,.164-.025c.293,0,.622-.064.7.358" transform="translate(-199.573 -174.247)"/>
    <path id="Path_1160" data-name="Path 1160" d="M214.391,252.912l.159.175c-.079.314.192.79-.4.869.258-.307.13-.7.239-1.044" transform="translate(-167.291 -194.748)"/>
    <path id="Path_1161" data-name="Path 1161" d="M416.9,275.1c-.283-.331-.073-.7-.046-1.06l.083.561c-.012.166-.025.333-.037.5" transform="translate(-226.422 -200.915)"/>
    <path id="Path_1163" data-name="Path 1163" d="M388.775,191.282a.508.508,0,0,1-.258-.809,1.59,1.59,0,0,1,.258.809" transform="translate(-218.149 -176.524)"/>
    <path id="Path_1164" data-name="Path 1164" d="M203.24,299.434c.057,0,.115,0,.173-.007.348.067.737-.126,1.051.163a3.524,3.524,0,0,1-1.225,0c-.059-.035-.079-.069-.059-.1s.04-.05.06-.05" transform="translate(-164.086 -208.323)"/>
    <path id="Path_1166" data-name="Path 1166" d="M392.379,240.361c-.418-.046-.866.158-1.255-.144.423.006.872-.211,1.255.144" transform="translate(-218.942 -191.025)"/>
    <path id="Path_1167" data-name="Path 1167" d="M394.094,240.457a.94.94,0,0,1-1.219-.061c.4.1.822-.144,1.219.061" transform="translate(-219.453 -191.088)"/>
    <path id="Path_1168" data-name="Path 1168" d="M324.62,182.64l-.164.025c-.193,0-.388,0-.581-.018-.057,0-.193.05-.15-.089.016-.052.132-.074.2-.109a.9.9,0,0,1,.693.19" transform="translate(-199.268 -174.183)"/>
    <path id="Path_1169" data-name="Path 1169" d="M270.4,182.795c-.142.449-.4.37-.695.157Z" transform="translate(-183.504 -174.283)"/>
    <path id="Path_1171" data-name="Path 1171" d="M218.858,234c.221.312.088.512-.207.662a.964.964,0,0,1,.207-.662" transform="translate(-168.603 -189.228)"/>
    <path id="Path_1172" data-name="Path 1172" d="M207.221,213.387c.387.111.444.341.237.664l-.237-.664" transform="translate(-165.268 -183.212)"/>
    <path id="Path_1174" data-name="Path 1174" d="M416.431,278.111c-.3-.258-.175-.576-.132-1.019.069.26.1.394.14.53,0,.164,0,.326-.008.489" transform="translate(-226.271 -201.805)"/>
    <path id="Path_1176" data-name="Path 1176" d="M388.014,215.057c-.172-.317-.181-.57.257-.643l-.257.643" transform="translate(-218.002 -183.512)"/>
    <path id="Path_1177" data-name="Path 1177" d="M240.223,283.579c-.183-.365-.318-.724.113-1.022q-.056.511-.113,1.022" transform="translate(-174.849 -203.4)"/>
    <path id="Path_1179" data-name="Path 1179" d="M274.068,181.962c-.135.464-.5.055-.719.188.2-.232.465-.181.719-.188" transform="translate(-184.568 -174.04)"/>
    <path id="Path_1180" data-name="Path 1180" d="M275.405,181.71l.215.1c-.053.03-.105.086-.159.088-.188.006-.39.042-.53-.14l.474-.052" transform="translate(-185.03 -173.967)"/>
    <path id="Path_1181" data-name="Path 1181" d="M206.276,194.2c.224.217.114.467.043.717l-.087-.393c.015-.108.029-.216.044-.324" transform="translate(-164.979 -177.612)"/>
    <path id="Path_1182" data-name="Path 1182" d="M390.533,198.531c-.054,0-.106,0-.159-.008l.016-.928a1.909,1.909,0,0,1,.142.936" transform="translate(-218.723 -178.603)"/>
    <path id="Path_1183" data-name="Path 1183" d="M205.284,203.9c.263.29.12.637.132.964a1.893,1.893,0,0,1-.132-.964" transform="translate(-164.7 -180.442)"/>
    <path id="Path_1185" data-name="Path 1185" d="M228.913,293.951c.246-.381.546-.282.856-.1l-.856.1" transform="translate(-171.599 -206.649)"/>
    <path id="Path_1187" data-name="Path 1187" d="M209.75,298.361c0-.375.268-.143.4-.162.168-.024.172.088.054.193l-.455-.031" transform="translate(-166.006 -207.95)"/>
    <path id="Path_1188" data-name="Path 1188" d="M202.881,299.438c0,.051,0,.1,0,.153a1.748,1.748,0,0,1-.938-.137l.939-.016" transform="translate(-163.727 -208.327)"/>
    <path id="Path_1189" data-name="Path 1189" d="M218.39,232.893c.416-2.061.786-4.132,1.255-6.181a62.948,62.948,0,0,1,10.065-23.237,45.265,45.265,0,0,1,23.587-16.9c2.034-.649,4.127-1.058,6.183-1.615.137-.193.3-.122.468-.054a5,5,0,0,0,1.468-.3.849.849,0,0,1,.822-.055,6.977,6.977,0,0,0,1.658-.3c.214-.326.533-.1.8-.153.37-.107.765,0,1.132-.135a2.764,2.764,0,0,1,.994.06l.94-.13c.552-.477,1.2.077,1.772-.166a102.039,102.039,0,0,1,10.428,0c.584.159,1.227-.3,1.782.165l.94.132a3.749,3.749,0,0,1,1.139-.063c.317.115.661.046.981.142.258.106.573-.1.8.149a7.052,7.052,0,0,0,1.837.288c.222-.054.448-.14.647.059a6.08,6.08,0,0,0,1.976.353,1.6,1.6,0,0,1,.85.173,2.561,2.561,0,0,0,1.11.285.6.6,0,0,1,.69.154,53.3,53.3,0,0,1,12.323,4.779,44.25,44.25,0,0,1,11.5,9.083,56.474,56.474,0,0,1,11.577,20.849c.307.945.568,1.9.862,2.852.125.4.11.644-.382.825a9.18,9.18,0,0,0-4.416,3.35c-.455.647-1.061.337-1.55.585a.61.61,0,0,1-.83.06,6.785,6.785,0,0,0-5.475,5.741c-.181.2.045.513-.2.7a4.783,4.783,0,0,0-.334,2.415c-.149.312-.014.663-.135.978,0,.062,0,.124-.008.186a7.273,7.273,0,0,1,0,2.1,3.119,3.119,0,0,0,.125,1.3c.374.375.109.778.048,1.172a10.008,10.008,0,0,0,.3,2.187c.209.2.13.414.048.633.047.189.094.378.142.569.2.172.047.436.165.629.023.306.22.6.049.916l.193.716c.12.338.331.661.164,1.045.1.511.194,1.023.305,1.612h-.913q-40.862,0-81.725,0c-.376,0-.855.18-1.009-.405-.161-.144-.1-.315-.059-.484a16.4,16.4,0,0,0-1.025-3.357c-.126-.279-.321-.541-.19-.875a11.807,11.807,0,0,0-4.23-5.99.594.594,0,0,1-.334-.337,24.666,24.666,0,0,0-6.9-4.007c-.856-.333-2.047-.227-2.6-1.255.189-.394-.069-.858.188-1.241" transform="translate(-168.473 -174.519)" fill="#fefefe"/>
    <path id="Path_1190" data-name="Path 1190" d="M381.506,263.788a16.063,16.063,0,0,1,3,.179c.165-.062.331-.125.467.056a14.8,14.8,0,0,1,4.834,2.388,8.74,8.74,0,0,1,3.122,4.334,1.324,1.324,0,0,1,.012,1.14,4.342,4.342,0,0,1-.819,1.435,2.813,2.813,0,0,1-2.156.936c-4.892-.045-9.784-.022-14.677-.023-2.165,0-2.876-.5-3.63-2.527a.517.517,0,0,1,0-.8c1.095-3.456,3.728-5.282,6.913-6.523.159-.062.311-.138.467-.207a2.342,2.342,0,0,1,1.069-.287,2.212,2.212,0,0,1,1.4-.1" transform="translate(-213.206 -197.902)" fill="#fefefe"/>
    <path id="Path_1191" data-name="Path 1191" d="M386.049,282.2c-.147,0-.293-.013-.44-.013l-145.275,0c.255-.3.6-.173.909-.173q71.952-.01,143.9,0c.3,0,.654-.134.9.184" transform="translate(-174.933 -203.234)" fill="#013046"/>
    <path id="Path_1192" data-name="Path 1192" d="M405.447,260.567a8.627,8.627,0,0,1-.4.867,2.372,2.372,0,0,1-1.807,1.275,2.312,2.312,0,0,1-2.317-1.3c-.135-.22-.239-.46-.358-.69a.832.832,0,0,1-.05-.823,2.934,2.934,0,0,1,2.164-2.8c.336-.308.606-.19.845.13a2.333,2.333,0,0,1,1.58,1.33,7.6,7.6,0,0,1,.328.69,1.093,1.093,0,0,1,.018,1.326" transform="translate(-221.657 -195.915)" fill="#fdfdfd"/>
    <path id="Path_1193" data-name="Path 1193" d="M366.651,257.255a3.428,3.428,0,0,1,1.733,2.185.659.659,0,0,1,.012.966c-.067.188-.132.377-.2.566a2.453,2.453,0,0,1-2.531,1.751,2.616,2.616,0,0,1-2.163-2.212c-.249-1.518.389-2.608,1.981-3.376.423-.285.8-.093,1.169.122" transform="translate(-210.865 -195.938)" fill="#fdfdfd"/>
    <path id="Path_1194" data-name="Path 1194" d="M380.079,252.787a9.568,9.568,0,0,1-.522,1.19,2.256,2.256,0,0,1-4.011-.05,2.916,2.916,0,0,1-.161-2.777,2.305,2.305,0,0,1,2.154-1.549,2.33,2.33,0,0,1,2.229,1.569c.118.263.209.537.312.807a.525.525,0,0,1,0,.809" transform="translate(-214.268 -193.782)" fill="#fdfdfd"/>
    <path id="Path_1195" data-name="Path 1195" d="M393.6,253.169c-.053.1-.11.205-.159.31a2.372,2.372,0,0,1-2.672,1.634,2.68,2.68,0,0,1-2.025-2.554,2.869,2.869,0,0,1,1.751-2.87,2.44,2.44,0,0,1,3.024,1.826c.07.251.1.514.146.771a1.025,1.025,0,0,1-.065.884" transform="translate(-218.245 -193.776)" fill="#fdfdfd"/>
    <path id="Path_1196" data-name="Path 1196" d="M240.523,278.973c-.029-.006-.067,0-.084-.019a.548.548,0,0,1-.07-.11c.2-.013.4-.037.594-.037h82.49c0,.055,0,.11,0,.164H312.581a28.653,28.653,0,0,1-3.587.158q-33.637.029-67.275.01a1.878,1.878,0,0,1-1.2-.165" transform="translate(-174.943 -202.305)"/>
    <path id="Path_1197" data-name="Path 1197" d="M240.586,279.041l72.058,0a7.4,7.4,0,0,1-2.465.174,1.941,1.941,0,0,1-.952.08q-33.845.006-67.692,0a1.926,1.926,0,0,1-.952-.081c0-.057,0-.114,0-.171" transform="translate(-175.005 -202.373)"/>
    <path id="Path_1198" data-name="Path 1198" d="M240.584,279.283h69.6c-.261.287-.605.169-.914.169q-33.884.008-67.768,0c-.308,0-.653.117-.913-.17" transform="translate(-175.005 -202.445)" fill="#013046"/>
    <path id="Path_1199" data-name="Path 1199" d="M364.984,210.723a5.6,5.6,0,0,1-.083-1.634,1.944,1.944,0,0,0-.432-1.178c-.183-.234-.108-.591.033-.476.482.39,1-.29,1.427.163.179.191.377-.033.56-.093a2.179,2.179,0,0,1,2.193.4,1.668,1.668,0,0,1-.176,1.573,10.481,10.481,0,0,1-1.328,1.729,1.251,1.251,0,0,1-1.489.4l-.707-.88Z" transform="translate(-211.131 -181.456)"/>
    <path id="Path_1200" data-name="Path 1200" d="M208.845,281.6l.528-.177a1.149,1.149,0,0,1,1.411,0,.54.54,0,0,1,.528.351c.156.814.087.879-.675.634-.177-.062-.379-.2-.515.03-.115.19.078.29.2.393.257.148.834-.431.813.353a9.28,9.28,0,0,1-1.7,1.965c-.417.411-.865.556-1.218-.033-.249-.414-.758.358-.94-.27-.033-.11-.611.246-.584-.177.02-.3.461-.865.563-.833.711.224.188-.374.355-.475.19-.741.3-1.539,1.231-1.762" transform="translate(-165.114 -202.997)"/>
    <path id="Path_1201" data-name="Path 1201" d="M371.207,203.164a.724.724,0,0,1,.41-.827c.205-.09.37-.136.559.033.243.216.1.321-.079.467a.373.373,0,0,0-.033.609c.254.244.432.016.584-.149.414-.452.809-.921,1.22-1.377.138-.152.3-.312.53-.192a.335.335,0,0,1,.12.464c-.37.748.043,1.21.551,1.664.234.21.554.471.223.8s-.6-.015-.826-.2a5.224,5.224,0,0,1-.5-.6c-.179-.2-.3-.547-.685-.213a.583.583,0,0,0-.142.838c.168.309.483.421.726.621.427.353.28.666-.023.947-.416.387-.427-.143-.605-.3-.411-.359-.638-1.025-1.4-.809-.1.029-.4-.21-.386-.277.113-.522-.274-.947-.241-1.5" transform="translate(-213.128 -179.797)"/>
    <path id="Path_1202" data-name="Path 1202" d="M382.245,195.909c-.645-.833-.564-1.218.445-2.116a1.458,1.458,0,0,1,1.887,2.215c-.4.365-.392.563-.034.891.15.137.443.3.178.561a.537.537,0,0,1-.72.033,2.331,2.331,0,0,1-.727-.739,1.184,1.184,0,0,0-.86-.676.3.3,0,0,1-.169-.169" transform="translate(-216.23 -177.39)"/>
    <path id="Path_1203" data-name="Path 1203" d="M224.662,269.11a2.474,2.474,0,0,1,1.724-1.7,1.409,1.409,0,0,1,1.488.855,1.232,1.232,0,0,1-.306,1.656c-.368.285-.482.431-.068.766a.528.528,0,0,1,.033.787c-.239.233-.448,0-.674-.154a4.989,4.989,0,0,1-1.319-1.495c-.314-.21-.553-.513-.877-.711" transform="translate(-170.358 -198.969)"/>
    <path id="Path_1204" data-name="Path 1204" d="M237.646,173.786c.581.018.6.482.707.883-.666.133-.929.76-1.392,1.141-.1.086-.219.232-.057.367a.288.288,0,0,0,.4-.045,5.869,5.869,0,0,0,.533-.577.389.389,0,0,1,.542-.116c.23.145.1.355.021.544a1.547,1.547,0,0,1-1.934.9,1.412,1.412,0,1,1,.733-2.724c.387.065.624.144.452-.376" transform="translate(-173.479 -171.654)"/>
    <path id="Path_1205" data-name="Path 1205" d="M224.436,270.761c.484.928-.613,1.17-.791,1.827.378.227.493-.077.659-.311s.383-.593.681-.37c.328.247.193.64-.072.92-.2.21-.433.386-.652.577a1.43,1.43,0,0,1-1.058,0,1.417,1.417,0,0,0-.88.175.5.5,0,0,1-.236-.512c.1-.294.264-.583.059-.9.1-1.4.77-1.814,2.292-1.409Z" transform="translate(-169.606 -199.915)"/>
    <path id="Path_1206" data-name="Path 1206" d="M230.483,262.39c.141.084.356.093.334.338-.53.36-.4.918-.258,1.347.147.446.663.194,1.015.218.247.016.6-.178.678.158.1.4-.368.345-.582.484-.324.21-1.315-.206-.727.84.077.137-.239.368-.455.473a14.818,14.818,0,0,1-2.459-2.23.689.689,0,0,1-.184-.943c.348-.249.586-.064.818.2.29.326.593.64,1,1.073a3.438,3.438,0,0,1,.825-1.954" transform="translate(-171.252 -197.514)"/>
    <path id="Path_1207" data-name="Path 1207" d="M381.473,196.858l.169.169c.244.638-.452.721-.648,1.1-.1.2-.551.327-.229.606.2.173.419-.091.574-.267.195-.223.326-.739.689-.453s.031.7-.185,1a1.342,1.342,0,0,1-1.843.34,4.318,4.318,0,0,0-.472-.205h0c-.586-1.193-.426-1.84.509-2.352.517-.283.955.1,1.434.063" transform="translate(-215.458 -178.339)"/>
    <path id="Path_1208" data-name="Path 1208" d="M378.66,199.966c.073.607-.465.829-.758,1.205-.11.142-.391.284-.13.488a.363.363,0,0,0,.53-.126c.22-.29.373-.981.826-.542.36.347-.147.83-.456,1.149a1.424,1.424,0,0,1-1.823-.021c-.764-.682-.848-1.32-.227-2.05.49-.576,1.057-.812,1.726-.239a1.172,1.172,0,0,0,.312.137Z" transform="translate(-214.589 -179.159)"/>
    <path id="Path_1209" data-name="Path 1209" d="M221.331,273.87l.176.531,0,0a2.011,2.011,0,0,1-.435.839c.4-.007.363-.588.785-.491.385.03.5.181.341.572a1.591,1.591,0,0,1-1.985.967,1.575,1.575,0,0,1-.823-2.066c.665-.8,1.158-.974,1.81-.625a.215.215,0,0,1,.13.271" transform="translate(-168.789 -200.735)"/>
    <path id="Path_1210" data-name="Path 1210" d="M216.137,277.374c.023.054.081.127.064.157-.531.913.137,1.394.688,1.913.2.184.294.349.042.574s-.405.1-.6-.067c-.479-.415-.79-1-1.616-.994-.495,0-.749-2.01-.319-2.353.224-.179.479-.346.793-.135.4.266.058.428-.079.615-.1.142-.245.278-.038.439.15.116.315.166.466,0,.171-.186.348-.313.6-.149Z" transform="translate(-167.298 -201.594)"/>
    <path id="Path_1211" data-name="Path 1211" d="M232.09,177.919c.048.106.169.257.135.312-.569.921.205,1.322.692,1.832.243.255.577.494.135.847-.406.324-.578-.044-.748-.293a1.691,1.691,0,0,0-1.309-.863c-.309-.023-.368-.229-.367-.557,0-.657-.992-1.329.045-1.968.166-.1.353-.237.557-.05a.448.448,0,0,1,.128.4c-.018.24-.552.447-.07.712.4.224.5-.317.8-.369Z" transform="translate(-171.975 -172.617)"/>
    <path id="Path_1212" data-name="Path 1212" d="M212.3,283.739c.333-.072.27-.491.588-.658a1.65,1.65,0,0,1,0,1.947,2.419,2.419,0,0,1-2.787,1.3c.552-.489,1.076-.93,1.571-1.4a1.555,1.555,0,0,0,.634-1.186Z" transform="translate(-166.109 -203.553)"/>
    <path id="Path_1215" data-name="Path 1215" d="M370.088,209.115a2.609,2.609,0,0,1-1.232,3.168c-.265.207-.619-.038-.882.175h-.527c-.146-.18-.075-.3.089-.431a6.257,6.257,0,0,0,1.932-2.432c.112-.251.227-.562.62-.482" transform="translate(-212.009 -181.961)"/>
    <path id="Path_1216" data-name="Path 1216" d="M391.861,278.943H375.023c0-.019,0-.038,0-.057h16.837c0,.019,0,.038,0,.057" transform="translate(-214.243 -202.329)"/>
    <path id="Path_1217" data-name="Path 1217" d="M227.462,263.358a1.466,1.466,0,0,0,.659,1.139,17.029,17.029,0,0,1,1.984,2.033c-.144.017-.317.021-.189.241.245.421-.09.408-.339.463-.522-.846-1.03-1.707-2.115-1.938-.462.031-.9-.039-1.023-.564-.122-.5.219-.632.637-.7.358-.062-.176-.691.387-.67" transform="translate(-170.87 -197.796)"/>
    <path id="Path_1218" data-name="Path 1218" d="M216.947,277.105c-.015-.737.69-1.029.983-1.577a.173.173,0,0,1,.295,0c.072.114.154.3.109.4-.382.832.013,1.384.625,1.875.236.189.339.44.1.671-.271.261-.46-.033-.654-.174-.507-.372-.774-1.037-1.459-1.19Z" transform="translate(-168.106 -201.324)"/>
    <path id="Path_1219" data-name="Path 1219" d="M409.589,253.7a4.6,4.6,0,0,0,1.393-1.62c.19-.3.355-.585.727-.669h0a1.451,1.451,0,0,1,0,1.058h0a4.045,4.045,0,0,0-.53.88c-.326.62-.955.714-1.54.863-.173.045-.47.094-.491-.189-.018-.237.225-.307.443-.322" transform="translate(-224.202 -194.311)"/>
    <path id="Path_1220" data-name="Path 1220" d="M387.142,193.78a.425.425,0,0,1-.737.308q-.715-.757-1.406-1.536c-.086-.1-.257-.23-.127-.363a.766.766,0,0,1,.458-.2,5.706,5.706,0,0,1,1.812,1.794" transform="translate(-217.103 -176.966)"/>
    <path id="Path_1221" data-name="Path 1221" d="M227.894,266.02c.185-.076.418-.274.567-.126.612.611,1.575.974,1.549,2.065-.1.052-.249.176-.285.149-.749-.571-1.609-1.053-1.831-2.088" transform="translate(-171.302 -198.521)"/>
    <path id="Path_1222" data-name="Path 1222" d="M289.621,180.267h12.128c-.2.246-.487.163-.739.164q-5.325.006-10.65,0c-.253,0-.536.084-.739-.164" transform="translate(-189.317 -173.546)"/>
    <path id="Path_1223" data-name="Path 1223" d="M407.881,249.106a7.9,7.9,0,0,0-1.408,1.409l-.465-.125c.188-.486-.3-.8-.313-1.212-.008-.2.283-.258.5-.238.564.052,1.126.11,1.689.165" transform="translate(-223.194 -193.588)"/>
    <path id="Path_1224" data-name="Path 1224" d="M208.976,281.621a5.3,5.3,0,0,0-1.231,1.762c-.283-.493-.138-1.132-.56-1.588-.13-.142.094-.455.126-.435.524.326,1.239-.562,1.666.261" transform="translate(-165.246 -203.022)"/>
    <path id="Path_1225" data-name="Path 1225" d="M300.279,183.435c.3.054.637-.106.886.183l-.149.078q-5.133.024-10.266,0l-.149-.078c.31-.317.709-.113,1.061-.182a28.2,28.2,0,0,1,3.828-.068,45.982,45.982,0,0,1,4.789.067" transform="translate(-189.603 -174.441)"/>
    <path id="Path_1226" data-name="Path 1226" d="M406.285,251.413a4.886,4.886,0,0,0,.176,1.765c-.236.761-.681.228-1.053.174-.244-.035-.457-.251-.288-.377.3-.23.277-.889.815-.741.332.091.156-.134.165-.185.036-.221-.045-.47.185-.635" transform="translate(-223.009 -194.31)"/>
    <path id="Path_1227" data-name="Path 1227" d="M300.716,183.407H292.1c.148-.19.36-.168.564-.168h7.489c.2,0,.416-.023.564.167" transform="translate(-190.041 -174.413)"/>
    <path id="Path_1228" data-name="Path 1228" d="M211.888,280.964h-1.411c.14-.284-.044-.72.407-.86.256-.079.437-.711.577-.409.173.375,1.02.633.426,1.269" transform="translate(-166.218 -202.541)"/>
    <path id="Path_1229" data-name="Path 1229" d="M369.758,208.828c-.074.046-.184.075-.215.142a13.141,13.141,0,0,1-2.425,3.2c-.252-.221-.653-.072-.88-.354,1.393.059,1.78-1.17,2.459-1.982a2.146,2.146,0,0,0,.534-1.716l.528.707" transform="translate(-211.679 -181.675)"/>
    <path id="Path_1230" data-name="Path 1230" d="M227.639,180.287c.416.207.441.638.666.92.094.118-.112.292-.254.2-.323-.2-.88.137-.987-.3-.052-.211.362-.535.574-.822" transform="translate(-171.058 -173.551)"/>
    <path id="Path_1231" data-name="Path 1231" d="M369.165,206.829h-1.578c.726-.742.726-.742,1.578,0" transform="translate(-212.073 -181.135)"/>
    <path id="Path_1232" data-name="Path 1232" d="M364.809,211.743c-.02.163.048.442-.149.437a1.624,1.624,0,0,1-.841-.261c-.15-.1.074-.281.167-.422a3.74,3.74,0,0,0,.256-.623l.568.871Z" transform="translate(-210.958 -182.479)"/>
    <path id="Path_1233" data-name="Path 1233" d="M390.275,199.172l0,4.563c-.362-.654-.124-1.36-.159-2.04-.044-.841-.011-1.687-.011-2.53h0a1.48,1.48,0,0,1,.168.007" transform="translate(-218.635 -179.061)"/>
    <path id="Path_1234" data-name="Path 1234" d="M212.593,283.427c-.15-.174-.251-.568-.528-.091-.18.311-.222-.117-.356-.086a.94.94,0,0,1,.358-.88c.511.431.768.36.7-.353.544.471,0,.94,0,1.411h-.176Z" transform="translate(-166.572 -203.242)"/>
    <path id="Path_1235" data-name="Path 1235" d="M222.421,275.155c-.238.262-.269.7-.706.8-.172.038-.351.125-.46-.055s.028-.3.169-.422c.232-.2.433-.445.648-.669l.35.348" transform="translate(-169.353 -201.138)"/>
    <path id="Path_1236" data-name="Path 1236" d="M384.49,191.091c-.042.272-.182.443-.462.416a.525.525,0,0,1-.465-.547.388.388,0,0,1,.449-.412.6.6,0,0,1,.477.542" transform="translate(-216.735 -176.545)"/>
    <path id="Path_1237" data-name="Path 1237" d="M221.374,273.691c-.813-.792-1.342-.033-1.94.354.178-.755.751-.9,1.4-.87.3.014.6.126.537-.362.182.293.426.585,0,.878" transform="translate(-168.832 -200.556)"/>
    <path id="Path_1238" data-name="Path 1238" d="M202.529,253.664l3.687,0a8.478,8.478,0,0,1-3.687,0" transform="translate(-163.899 -194.967)"/>
    <path id="Path_1240" data-name="Path 1240" d="M417.394,263.868q0,1.486,0,2.973a5.47,5.47,0,0,1,0-2.973" transform="translate(-226.549 -197.946)"/>
    <path id="Path_1241" data-name="Path 1241" d="M289.58,183.855l-1.7.045c-.251-.077-.562.064-.757-.212a4.112,4.112,0,0,1,1.738,0l.727.008h0c.057.037.075.074.055.11s-.038.053-.058.053" transform="translate(-188.587 -174.516)"/>
    <path id="Path_1242" data-name="Path 1242" d="M307.2,183.9l-1.705-.043c-.058-.035-.077-.072-.059-.108s.038-.055.057-.055h0l.375-.009a5.022,5.022,0,0,1,1.9,0c-.081.359-.4.084-.567.214" transform="translate(-193.932 -174.516)"/>
    <path id="Path_1243" data-name="Path 1243" d="M310.382,184.167l-1.123-.035a2.891,2.891,0,0,1,2.113.017l-.125.076a2.422,2.422,0,0,1-.865-.057" transform="translate(-195.049 -174.618)"/>
    <path id="Path_1244" data-name="Path 1244" d="M285.989,184.132l-.96.032a3.026,3.026,0,0,1-1.025.06l-.127-.076a2.875,2.875,0,0,1,2.112-.016" transform="translate(-187.641 -174.617)"/>
    <path id="Path_1245" data-name="Path 1245" d="M356.041,266.029q-.024-.586-.048-1.173c.022-.256.043-.511.066-.787.227.168.1.39.15.574a1.523,1.523,0,0,1,0,1.015l-.169.371" transform="translate(-208.689 -198.004)"/>
    <path id="Path_1246" data-name="Path 1246" d="M366.427,246.394a2.12,2.12,0,0,1-1.927-.017,5.262,5.262,0,0,1,1.927.017" transform="translate(-211.172 -192.817)"/>
    <path id="Path_1247" data-name="Path 1247" d="M355.817,262.483v-2.1a3.15,3.15,0,0,1,0,2.1" transform="translate(-208.637 -196.927)"/>
    <path id="Path_1248" data-name="Path 1248" d="M401.788,274.691c0-.38-.007-.76-.012-1.139.031-.095.157-.24.159-.21.033.506.028,1.015.028,1.523,0,.009-.062.028-.065.023-.04-.064-.074-.13-.11-.2" transform="translate(-222.051 -200.709)"/>
    <path id="Path_1249" data-name="Path 1249" d="M307.95,183.64h-1.9a2.369,2.369,0,0,1,1.9,0" transform="translate(-194.112 -174.472)"/>
    <path id="Path_1250" data-name="Path 1250" d="M366.427,246.352l-1.927-.017a.4.4,0,0,0,0-.123l.83-.059c.352.142.773-.094,1.1.2" transform="translate(-211.171 -192.775)"/>
    <path id="Path_1251" data-name="Path 1251" d="M407.508,261.477q-.01-.664-.018-1.326c.06-.079.11-.206.219-.044a3.32,3.32,0,0,1-.006,1.573l-.194-.2" transform="translate(-223.719 -196.825)"/>
    <path id="Path_1252" data-name="Path 1252" d="M288.857,183.639l-1.738,0a1.971,1.971,0,0,1,1.738,0" transform="translate(-188.587 -174.471)"/>
    <path id="Path_1253" data-name="Path 1253" d="M385.032,263.748l-1.412.183c-.06-.033-.081-.065-.061-.1s.04-.049.06-.049c.433-.37.953-.1,1.423-.191h0q-.006.078-.008.155" transform="translate(-216.732 -197.862)"/>
    <path id="Path_1254" data-name="Path 1254" d="M205.891,204.166v1.361a1.977,1.977,0,0,1,0-1.361" transform="translate(-164.844 -180.521)"/>
    <path id="Path_1255" data-name="Path 1255" d="M218.378,253.125a2.478,2.478,0,0,1-.188,1.241,5.761,5.761,0,0,1,.025-1.323c.074-.3.089.075.163.082" transform="translate(-168.461 -194.752)"/>
    <path id="Path_1256" data-name="Path 1256" d="M308.822,180.558h1.336c0,.029,0,.058,0,.087H308.8l.026-.087" transform="translate(-194.914 -173.631)"/>
    <path id="Path_1257" data-name="Path 1257" d="M221.444,224.7l-1.763.013a1.923,1.923,0,0,1,1.763-.013" transform="translate(-168.905 -186.455)"/>
    <path id="Path_1258" data-name="Path 1258" d="M385.657,263.524c.448-.32.921-.127,1.389,0h-1.389Z" transform="translate(-217.346 -197.794)"/>
    <path id="Path_1259" data-name="Path 1259" d="M390.047,198.591c-.351-.438-.1-.921,0-1.389v1.39Z" transform="translate(-218.575 -178.488)"/>
    <path id="Path_1260" data-name="Path 1260" d="M407.79,261.713q0-.787.006-1.574a1.614,1.614,0,0,1-.006,1.574" transform="translate(-223.806 -196.857)"/>
    <path id="Path_1261" data-name="Path 1261" d="M367.489,257.221l-1.169-.122c.4-.329.619-.306,1.169.122" transform="translate(-211.703 -195.904)"/>
    <path id="Path_1262" data-name="Path 1262" d="M371.615,273.766c0,.267,0,.534,0,.8l-.19.392a2.387,2.387,0,0,1-.011-1.406c.272-.122.106.169.2.213" transform="translate(-213.16 -200.763)"/>
    <path id="Path_1263" data-name="Path 1263" d="M395.6,254.283q.033-.442.065-.884c.4.139.387.258-.065.884" transform="translate(-220.249 -194.89)"/>
    <path id="Path_1264" data-name="Path 1264" d="M412.007,253.788c-.126-.475.274-.634.529-.88a1.09,1.09,0,0,1-.529.88" transform="translate(-225.03 -194.747)"/>
    <path id="Path_1265" data-name="Path 1265" d="M371.372,273.565l.011,1.406a1.3,1.3,0,0,1-.011-1.406" transform="translate(-213.119 -200.776)"/>
    <path id="Path_1266" data-name="Path 1266" d="M356.973,273.37c-.008-.3-.266-.559-.172-.884a.349.349,0,0,1,.159-.171.826.826,0,0,1,.013,1.055" transform="translate(-208.918 -200.411)"/>
    <path id="Path_1267" data-name="Path 1267" d="M375.6,224.7l-1.393,0a1.329,1.329,0,0,1,1.393,0" transform="translate(-214.006 -186.457)"/>
    <path id="Path_1268" data-name="Path 1268" d="M224.662,269.826c.446.047.665.375.877.711l-.351-.006h0l-.528-.706" transform="translate(-170.358 -199.684)"/>
    <path id="Path_1269" data-name="Path 1269" d="M357.482,275.859a3.147,3.147,0,0,1-.164-1.044.681.681,0,0,1,.164,1.044" transform="translate(-209.071 -201.141)"/>
    <path id="Path_1270" data-name="Path 1270" d="M320.537,185.635a1.4,1.4,0,0,1-.85-.173c.314-.355.6.078.908.026a.257.257,0,0,1,0,.081.272.272,0,0,1-.053.066" transform="translate(-198.092 -175.021)"/>
    <path id="Path_1271" data-name="Path 1271" d="M403.07,245.943l1.4-.014a1.3,1.3,0,0,1-1.4.014" transform="translate(-222.429 -192.71)"/>
    <path id="Path_1272" data-name="Path 1272" d="M370.43,261.319l-.013-.966.207-.232a1.935,1.935,0,0,1,.007,1.229c-.093.159-.144.042-.2-.031" transform="translate(-212.899 -196.852)"/>
    <path id="Path_1273" data-name="Path 1273" d="M404.361,257.173l-.845-.131-.21-.191a1.344,1.344,0,0,1,1.059.006l0,.317" transform="translate(-222.498 -195.866)"/>
    <path id="Path_1274" data-name="Path 1274" d="M382.365,252.658a1.01,1.01,0,0,1,0,1.233,1.973,1.973,0,0,1,0-1.233" transform="translate(-216.357 -194.674)"/>
    <path id="Path_1275" data-name="Path 1275" d="M382.325,252.658c0,.412,0,.822,0,1.233l-.2-.212c0-.269,0-.539,0-.808l.2-.212" transform="translate(-216.317 -194.674)"/>
    <path id="Path_1276" data-name="Path 1276" d="M238,271.327a1.993,1.993,0,0,1,.191.874c-.358-.227-.482-.5-.191-.874" transform="translate(-174.203 -200.122)"/>
    <path id="Path_1277" data-name="Path 1277" d="M370.716,261.351q0-.614-.007-1.229a1.014,1.014,0,0,1,.007,1.229" transform="translate(-212.984 -196.852)"/>
    <path id="Path_1278" data-name="Path 1278" d="M279.962,184.869l-.822.055c-.023-.081-.363-.091-.122-.17a.906.906,0,0,1,.944.115" transform="translate(-186.198 -174.832)"/>
    <path id="Path_1279" data-name="Path 1279" d="M223.663,274.556l1.058,0c-.353.141-.7.474-1.058,0" transform="translate(-170.067 -201.064)"/>
    <path id="Path_1280" data-name="Path 1280" d="M283.374,184.357l-.814.048c-.156-.04-.329-.049-.407-.227a1.6,1.6,0,0,1,1.032.007l.19.008h0c.058.036.077.073.057.109s-.038.054-.058.054" transform="translate(-187.138 -174.663)"/>
    <path id="Path_1281" data-name="Path 1281" d="M383.213,263.863c0,.05,0,.1,0,.147l-1.053.2a1.126,1.126,0,0,1,1.052-.352" transform="translate(-216.326 -197.942)"/>
    <path id="Path_1282" data-name="Path 1282" d="M313.028,184.444l-.812-.048c-.058-.035-.078-.071-.059-.107s.038-.055.057-.055h0c.319,0,.639,0,.957.012.144.008.091.1.02.147a.564.564,0,0,1-.165.052" transform="translate(-195.893 -174.703)"/>
    <path id="Path_1283" data-name="Path 1283" d="M412.764,252.472v-1.059a.806.806,0,0,1,0,1.059" transform="translate(-225.258 -194.31)"/>
    <path id="Path_1284" data-name="Path 1284" d="M404.366,256.814l-1.059-.006a.776.776,0,0,1,1.059.006" transform="translate(-222.498 -195.825)"/>
    <path id="Path_1285" data-name="Path 1285" d="M400.467,261.124q.024.411.05.823c-.433-.249-.189-.539-.05-.823" transform="translate(-221.612 -197.145)"/>
    <path id="Path_1286" data-name="Path 1286" d="M283.184,184.142l-1.032-.007a.792.792,0,0,1,1.032.007" transform="translate(-187.137 -174.62)"/>
    <path id="Path_1287" data-name="Path 1287" d="M356.53,270.457l-.049-.633a.674.674,0,0,1,.047-.164c.042-.073.139-.137.146,0,.016.273.113.573-.144.8" transform="translate(-208.831 -199.612)"/>
    <path id="Path_1288" data-name="Path 1288" d="M356.949,272.03l-.159.172c-.013-.221-.028-.441-.042-.662a.5.5,0,0,1,.063-.155c.079-.087.123-.042.126.056.006.2.008.393.011.589" transform="translate(-208.909 -200.126)"/>
    <path id="Path_1289" data-name="Path 1289" d="M356.41,258.65a1.312,1.312,0,0,1-.065-.911,1.312,1.312,0,0,1,.065.911" transform="translate(-208.777 -196.157)"/>
    <path id="Path_1290" data-name="Path 1290" d="M316.631,184.936l-.647-.059c.23-.229.52-.129.786-.132.127,0,.089.084.015.132a.769.769,0,0,1-.154.059" transform="translate(-197.012 -174.847)"/>
    <path id="Path_1291" data-name="Path 1291" d="M356.3,265.9q0-.509,0-1.016a.761.761,0,0,1,0,1.016" transform="translate(-208.777 -198.241)"/>
    <path id="Path_1292" data-name="Path 1292" d="M280.859,184.333a.5.5,0,0,1,.579-.029.505.505,0,0,1-.579.029" transform="translate(-186.76 -174.701)"/>
    <path id="Path_1293" data-name="Path 1293" d="M390.348,264.062l-.468-.056c.142-.181.343-.152.534-.142.052,0,.1.064.154.1l-.22.1" transform="translate(-218.579 -197.942)"/>
    <path id="Path_1294" data-name="Path 1294" d="M363.095,261.412a.525.525,0,0,1-.028-.581.56.56,0,0,1,.028.581" transform="translate(-210.732 -197.059)"/>
    <path id="Path_1295" data-name="Path 1295" d="M355.822,259.715a1.7,1.7,0,0,1,.135-.979c-.033.328.123.681-.135.979" transform="translate(-208.634 -196.448)"/>
    <path id="Path_1296" data-name="Path 1296" d="M239.725,277.3l.059.484a.459.459,0,0,1-.06.164c-.113.12-.123-.008-.125-.071-.009-.2-.049-.414.126-.576" transform="translate(-174.715 -201.867)"/>
    <path id="Path_1297" data-name="Path 1297" d="M391.849,257.683l.5.022c-.019.232-.192.079-.288.106-.062.017-.144-.035-.217-.056l.008-.072" transform="translate(-219.151 -196.14)"/>
    <path id="Path_1298" data-name="Path 1298" d="M230.237,184.077h-.354c.041-.134-.094-.377.142-.382.19,0,.193.222.212.382" transform="translate(-171.882 -174.546)"/>
    <path id="Path_1299" data-name="Path 1299" d="M378.694,257.8h-.5c0-.025,0-.052,0-.076.166-.013.331-.027.5-.042l0,.118" transform="translate(-215.168 -196.139)"/>
    <path id="Path_1300" data-name="Path 1300" d="M276.869,185.387l-.468.053-.22-.1c.051-.033.1-.093.153-.1.191-.008.4-.039.535.147" transform="translate(-185.395 -174.995)"/>
    <path id="Path_1301" data-name="Path 1301" d="M356.488,255.039a.806.806,0,0,1,.2-.7c-.139.211.268.576-.2.7" transform="translate(-208.833 -195.166)"/>
    <path id="Path_1302" data-name="Path 1302" d="M374.822,253.158v.511c-.2-.144-.11-.319,0-.511" transform="translate(-214.149 -194.82)"/>
    <path id="Path_1303" data-name="Path 1303" d="M323.146,186.261l-.689-.154c.281-.177.542-.261.689.154" transform="translate(-198.901 -175.207)"/>
    <path id="Path_1304" data-name="Path 1304" d="M368.224,213.768c.248-.29.585-.132.882-.176-.247.295-.584.136-.882.176" transform="translate(-212.258 -183.271)"/>
    <path id="Path_1305" data-name="Path 1305" d="M409.071,252.429c-.146.29-.326.618-.667.574-.358-.046-.782-.233-.761-.683a.608.608,0,0,1,.671-.639c.441.039.612.377.757.747" transform="translate(-223.763 -194.388)"/>
    <path id="Path_1306" data-name="Path 1306" d="M409.942,249.93a.491.491,0,0,1,.583.493.455.455,0,0,1-.411.484c-.335.031-.506-.237-.559-.543-.049-.283.091-.438.387-.434" transform="translate(-224.319 -193.876)"/>
    <path id="Path_1308" data-name="Path 1308" d="M331.614,253.815c-3.817.22-8.768-2.731-10.24-6.1-.113-.558.534-.8.549-1.333-.4.042-.412.644-.855.584a10.85,10.85,0,0,1-.411-2.844c-.052-.283-.086-.569-.128-.853a1.862,1.862,0,0,0-.173-1.4,24.646,24.646,0,0,0-3.213-7.151,30.424,30.424,0,0,0-1.957-2.523,5.318,5.318,0,0,1-.978-2.5,2.309,2.309,0,0,0-.089-1.211.44.44,0,0,1,.011-.242,9.873,9.873,0,0,0,.022-1.718,1.484,1.484,0,0,0-.132-.337,5.28,5.28,0,0,1,5.268-5.092,13.182,13.182,0,0,0,2.984,0,11.232,11.232,0,0,1,3.367.5c-.044.07-.141.059-.188.123.045,0,.084-.026.132-.029a2.253,2.253,0,0,1,.572.086.309.309,0,0,1,.356.039.683.683,0,0,0,.689.186,16.111,16.111,0,0,1,7.691,5.608c1.714,2.094,3.321,4.252,3.739,7.038a2.33,2.33,0,0,0-.025.972c.026.116.187-.007.071.012-.045.007-.067-.007-.073-.042a.453.453,0,0,1,.08-.462,12.423,12.423,0,0,1,.312,2.869,2.911,2.911,0,0,0,0,1.4l0,.185c-.158.371.021.784-.143,1.154a11.928,11.928,0,0,1-.523,3.8c-.1-.051-.064-.169-.118-.242.044.184-.039.388.081.562a.381.381,0,0,1-.139.383c-.263.173-.061.475-.189.685a14.178,14.178,0,0,1-3.108,6.564,2.79,2.79,0,0,1-1.785,1.02c-.465.191-1.035-.1-1.452.314" transform="translate(-196.438 -185.459)"/>
    <path id="Path_1309" data-name="Path 1309" d="M265.292,243.062a.383.383,0,0,1-.12.409c-.263.263-.105.547-.045.827a6.483,6.483,0,0,1-.144,1.628c-.217-.375-.047-.757-.129-1.173a12.093,12.093,0,0,0,.079,1.656,8.89,8.89,0,0,1-3.993,5.214,11.523,11.523,0,0,1-4.616,1.986,1.827,1.827,0,0,0-1.234.091c-.285.078-.593-.055-.87.093a4.3,4.3,0,0,1-3.033-1.194.357.357,0,0,0-.334-.341,14.122,14.122,0,0,1-2.993-6.368,1.13,1.13,0,0,0-.231-.868c-.1-.037-.112-.11-.079-.2a.984.984,0,0,0,.057-.5c0-.052.025-.118-.042-.153.043.093,0,.149-.079.193a11.587,11.587,0,0,1-.506-3.832A1.729,1.729,0,0,1,247,239.36c.406.013.355.324.3.554a5.967,5.967,0,0,0-.059.858c.016-.212,0-.425.021-.637.392-.339.775-.047,1.148.036a1.635,1.635,0,0,0,1.9-.687,1.585,1.585,0,0,0-.767-1.879,1.13,1.13,0,0,0-.92-.093c-.944.136-1.308-.144-1.4-1.024-.014-.117-.168.039-.06-.008.045-.02.079,0,.074.045-.045.357.142.691.124,1.039-.02.382.087.872-.535.918a14.524,14.524,0,0,1,2.689-9.075c1.874-2.469,3.813-4.86,6.6-6.324.862-.453,1.689-1.21,2.816-.991.169-.233.52-.133.685-.371a6.13,6.13,0,0,1,2.639-.522c.353-.165.751.035,1.1-.136l.183,0a4.242,4.242,0,0,0,1.143.077c.673.7,1.712.84,2.345,1.607a2.334,2.334,0,0,0-2.089-1.481.154.154,0,0,1,0-.217,7.319,7.319,0,0,1,4.019.654,4.877,4.877,0,0,1,2.644,3.4.529.529,0,0,0-.056.309,1.4,1.4,0,0,1-.021.175c.075-.031.048-.137.123-.169a1.245,1.245,0,0,1,.147.736,1.118,1.118,0,0,0-.138.319,11.789,11.789,0,0,0,0,1.644,1.226,1.226,0,0,0,.135.32A7.658,7.658,0,0,1,270,232.965a20.5,20.5,0,0,0-4.108,7.567c-.051.163-.128.318-.193.476-.323.14.01.489-.21.661a1.245,1.245,0,0,1-.156.912c-.1-.078-.145-.161-.032-.263a.18.18,0,0,0-.081.178c.017.19-.05.388.068.565" transform="translate(-176.831 -185.434)"/>
    <path id="Path_1310" data-name="Path 1310" d="M281.755,256.957a23.034,23.034,0,0,0,4.263,1.524c.2.232.5.026.725.145a4.628,4.628,0,0,0,1.2.028,7.224,7.224,0,0,0,2.355-1.12c1.386-.979,1.611-2.461,1.823-3.966.044-.313.13-.619.2-.928.115.113.173.231.1.295a1.977,1.977,0,0,0-.051-.774c-.068-.671-.741-.165-.98-.5.131-.129.262-.2.336-.093a4.32,4.32,0,0,0-.863-.033c-.329-.025-.634-.275-.984-.1a13.081,13.081,0,0,1-6.2-3.313,1.206,1.206,0,0,0-.69-.693,6.625,6.625,0,0,1-2.093-4.005,1.358,1.358,0,0,1,.134-1.01.18.18,0,0,1,.105.19.733.733,0,0,0-.043-.477,1.869,1.869,0,0,1,.657-1.1.743.743,0,0,0,.533-.5,6.421,6.421,0,0,1,2.668-1.36.68.68,0,0,0,.688-.181l.311-.055a1.818,1.818,0,0,1,.67-.076c.117-.015.181-.072.068-.042-.008,0-.03-.045-.045-.069a.76.76,0,0,1,.59-.137c.369.2.7.006,1.041-.1.782.043,1.544-.242,2.329-.147,1.789-.021,3.577-.014,5.364.043a1.22,1.22,0,0,0,.422-.145,6.819,6.819,0,0,1,1.993.3c-.064.116-.189.106-.292.142a1.3,1.3,0,0,1,.282-.021c.142,0,.285,0,.426.01.393.287.879.084,1.3.244l.354.044a.671.671,0,0,0,.691.181,6.429,6.429,0,0,1,3.25,1.872,3.015,3.015,0,0,1,.708,3.018,9.245,9.245,0,0,1-3.773,5.012,13.284,13.284,0,0,1-5.117,2.367.459.459,0,0,0-.319-.065c-.061.006-.113-.026-.171-.023.039.073.145.051.18.13a1.008,1.008,0,0,1-.151.082c-.648.221-1.635-.095-1.916.533-.237.53.137,1.333.241,2.015a2.316,2.316,0,0,0,.013,1.226,5.8,5.8,0,0,0,3.248,3.032,5.759,5.759,0,0,1,.819.164.884.884,0,0,0,.189.123,2.9,2.9,0,0,0,1.025-.018.323.323,0,0,1,.224.022l0,0a1.507,1.507,0,0,1,.077,1.544c-.236.214-.549.2-.838.356a3.626,3.626,0,0,1,.764-.227c.223-.18.45-.29.7-.04a5.4,5.4,0,0,1-5.184.049c-2.058-.909-2.03-.924-4.1.011a5.478,5.478,0,0,1-4.335.3c-.163-.251-.479,0-.658-.2a8.605,8.605,0,0,1-4.437-3.093c-.085-.2.008-.316.192-.383" transform="translate(-186.76 -190.47)"/>
    <path id="Path_1311" data-name="Path 1311" d="M247.157,245.593c-.335.341-.114.773-.19,1.156a5.229,5.229,0,0,1-.142-2.042c.525-.321.281-.842.323-1.283.03-.318.006-.641.006-1.1.314.417-.007,1.015.58,1.132a3.3,3.3,0,0,0,1.258-.054c.822-.144,1.166.661,1.52,1.217a1.207,1.207,0,0,1-.315,1.651c-.955.833-1.908.349-2.865.024-.194-.2.018-.5-.173-.7" transform="translate(-176.817 -191.658)"/>
    <path id="Path_1312" data-name="Path 1312" d="M307.236,268.031q.012-.807.023-1.615l.5-.149a4.927,4.927,0,0,0,1.071-.171c.141-.025.324-.152.415-.06.873.877.741-.117.939-.494l1.459-.654c.208.075.554.04.348.441a8.833,8.833,0,0,1-2.83,2.316c-.653-.6-.965-.188-1.212.411l.005-.007a1.213,1.213,0,0,0-.728.142c-.058-.037-.077-.074-.057-.11s.041-.052.062-.052" transform="translate(-194.438 -198.243)"/>
    <path id="Path_1313" data-name="Path 1313" d="M293.554,238.359a13.135,13.135,0,0,1-2.472.169c-.059-.032-.08-.066-.065-.1s.033-.059.051-.059a37.058,37.058,0,0,1,8.281-.172l-.2.17a42.678,42.678,0,0,1-5.6,0" transform="translate(-189.723 -190.408)"/>
    <path id="Path_1314" data-name="Path 1314" d="M301.165,183.732c0,.055,0,.109,0,.164H290.6c0-.054,0-.108,0-.163Z" transform="translate(-189.602 -174.557)"/>
    <path id="Path_1315" data-name="Path 1315" d="M310.435,265.812c.142.15.006.361.159.552.166.207-.086.411-.261.562s-.462.2-.533.022c-.328-.838-.921-.353-1.413-.318-.152.01-.275.044-.376-.094l2.424-.724" transform="translate(-194.685 -198.513)"/>
    <path id="Path_1316" data-name="Path 1316" d="M323.973,257.2c.169-.232.348-.457.5-.7.133-.207.292-.434.541-.282.285.174.171.454.016.679-.244.355-.5.7-.754,1.052a1.288,1.288,0,0,1-.305-.751" transform="translate(-199.343 -195.699)"/>
    <path id="Path_1317" data-name="Path 1317" d="M308.275,268.915a2.507,2.507,0,0,1,0-.425.735.735,0,0,1,.676-.652c.594-.1.235.545.536.666-.379.211-.729.506-1.212.411" transform="translate(-194.759 -199.101)"/>
    <path id="Path_1318" data-name="Path 1318" d="M324.442,221.061a6.02,6.02,0,0,1-2.983,0,16.858,16.858,0,0,1,2.983,0" transform="translate(-198.61 -185.433)"/>
    <path id="Path_1319" data-name="Path 1319" d="M290.345,267.009A.933.933,0,0,1,289.1,267c0-.037,0-.073,0-.11.411.08.85-.13,1.243.123" transform="translate(-189.166 -198.824)"/>
    <path id="Path_1320" data-name="Path 1320" d="M313.843,265.108c.013-.249-.26-.272-.348-.441l1.085-.538a1.868,1.868,0,0,1-.736.979" transform="translate(-196.285 -198.022)"/>
    <path id="Path_1321" data-name="Path 1321" d="M314.151,230.38c-.015.062-.03.125-.045.187H314a8.909,8.909,0,0,1-.009-2.285l.165.188a5.063,5.063,0,0,1,0,1.909" transform="translate(-196.41 -187.559)"/>
    <path id="Path_1322" data-name="Path 1322" d="M282,230.563l-.162-.178a4.9,4.9,0,0,1,0-1.921l.169-.183a10.833,10.833,0,0,1,0,2.282" transform="translate(-187.018 -187.559)"/>
    <path id="Path_1323" data-name="Path 1323" d="M322.966,250.424c.506.413.409.9.173,1.4q-.086-.7-.173-1.4" transform="translate(-199.049 -194.022)"/>
    <path id="Path_1324" data-name="Path 1324" d="M272.328,256.155c-.309-.574-.055-1.168-.029-1.756q.039.636.079,1.273Z" transform="translate(-184.226 -195.182)"/>
    <path id="Path_1325" data-name="Path 1325" d="M338.866,267.154c.364-.659.97-.2,1.452-.314a3.006,3.006,0,0,1-1.452.314" transform="translate(-203.69 -198.799)"/>
    <path id="Path_1326" data-name="Path 1326" d="M294.569,256.843h1.065l0,.157-.407.06a2.21,2.21,0,0,1-1.2-.193.433.433,0,0,1,.535-.025" transform="translate(-190.605 -195.872)"/>
    <path id="Path_1327" data-name="Path 1327" d="M314.032,231.509h.106a1.018,1.018,0,0,1,.073,1.223q-.089-.612-.179-1.223" transform="translate(-196.442 -188.501)"/>
    <path id="Path_1328" data-name="Path 1328" d="M283.862,251.2a.59.59,0,0,1,.69.693,1.8,1.8,0,0,1-.69-.693" transform="translate(-187.636 -194.248)"/>
    <path id="Path_1329" data-name="Path 1329" d="M307.478,239.075c-.421,0-.861.142-1.238-.173q-.091-.053-.062-.106t.062-.053c.373.256.9-.071,1.238.332" transform="translate(-194.148 -190.613)"/>
    <path id="Path_1330" data-name="Path 1330" d="M271.853,221.066c0,.055,0,.11-.007.164-.048.084-.1.084-.163.012-.408-.079-.855.147-1.233-.162l1.4-.014" transform="translate(-183.722 -185.453)"/>
    <path id="Path_1331" data-name="Path 1331" d="M306.712,266.988c-.081.018-.161.036-.242.052a2.276,2.276,0,0,1-1.192-.016c0-.054-.006-.11-.006-.164.474.1.985-.2,1.44.127" transform="translate(-193.885 -198.81)"/>
    <path id="Path_1332" data-name="Path 1332" d="M258.5,267a1.094,1.094,0,0,1,1.228-.028l-1.056.186A.351.351,0,0,1,258.5,267" transform="translate(-180.234 -198.801)"/>
    <path id="Path_1333" data-name="Path 1333" d="M349.213,246.353a1.441,1.441,0,0,1,0-1.4l0,1.4" transform="translate(-206.657 -192.425)"/>
    <path id="Path_1334" data-name="Path 1334" d="M330.78,221.973h-.9c0-.035,0-.069,0-.1l.39-.076c.2-.006.405-.054.516.18" transform="translate(-201.066 -185.663)"/>
    <path id="Path_1335" data-name="Path 1335" d="M299.455,261.854a1.146,1.146,0,0,1-.013-1.225,3.212,3.212,0,0,1,.013,1.225" transform="translate(-192.134 -197)"/>
    <path id="Path_1336" data-name="Path 1336" d="M264.623,222.017c-.1.365-.46.242-.685.372.086-.385.386-.378.685-.372" transform="translate(-181.821 -185.73)"/>
    <path id="Path_1337" data-name="Path 1337" d="M348.762,240.706l-.053.585a1.046,1.046,0,0,1,0-1.064c.018.159.035.319.052.479" transform="translate(-206.52 -191.046)"/>
    <path id="Path_1338" data-name="Path 1338" d="M282.645,241.454c.044.4-.105.6-.534.5a1.035,1.035,0,0,1,.534-.5" transform="translate(-187.125 -191.404)"/>
    <path id="Path_1339" data-name="Path 1339" d="M281.811,264.591l-.192.383-.57-.441c.392-.28.557,0,.762.058" transform="translate(-186.815 -198.104)"/>
    <path id="Path_1340" data-name="Path 1340" d="M347.793,255.868c-.052-.261-.221-.553.19-.685a.89.89,0,0,1-.19.685" transform="translate(-206.273 -195.411)"/>
    <path id="Path_1341" data-name="Path 1341" d="M247.955,254.921c.287.234.48.492.231.868a1.889,1.889,0,0,1-.231-.868" transform="translate(-177.157 -195.334)"/>
    <path id="Path_1342" data-name="Path 1342" d="M283.877,184.4c0-.055,0-.109,0-.163l1.151.015a2.879,2.879,0,0,1-1.152.148" transform="translate(-187.641 -174.704)"/>
    <path id="Path_1343" data-name="Path 1343" d="M309.207,239.455c-.295.184-.562.263-.691-.181l.691.181" transform="translate(-194.832 -190.767)"/>
    <path id="Path_1344" data-name="Path 1344" d="M287.32,239.278c-.13.435-.394.366-.688.181l.688-.181" transform="translate(-188.445 -190.769)"/>
    <path id="Path_1345" data-name="Path 1345" d="M272.583,253.557c-.145-.283-.385-.574.045-.826-.015.275-.03.552-.045.826" transform="translate(-184.286 -194.695)"/>
    <path id="Path_1346" data-name="Path 1346" d="M288.736,238.934a.473.473,0,0,1,.158.047c.06.045.137.135-.017.142-.278.013-.556,0-.834,0a.746.746,0,0,1,.693-.187" transform="translate(-188.857 -190.666)"/>
    <path id="Path_1347" data-name="Path 1347" d="M258.137,267.086l.172.159h-1.048c.255-.261.584-.107.876-.157" transform="translate(-179.873 -198.884)"/>
    <path id="Path_1348" data-name="Path 1348" d="M290.731,238.5c.006.055.01.109.014.163a.631.631,0,0,1-.889.012l.875-.175" transform="translate(-189.386 -190.541)"/>
    <path id="Path_1349" data-name="Path 1349" d="M349.072,248.344c.047-.385-.144-.8.143-1.154a2.5,2.5,0,0,1-.143,1.154" transform="translate(-206.663 -193.078)"/>
    <path id="Path_1350" data-name="Path 1350" d="M297.086,257.893c.229.278.152.579.066.989l-.119-.51.053-.479" transform="translate(-191.481 -196.202)"/>
    <path id="Path_1351" data-name="Path 1351" d="M269.736,221.085c-.339.278-.731.13-1.1.137a2.346,2.346,0,0,1,1.1-.137" transform="translate(-183.191 -185.455)"/>
    <path id="Path_1352" data-name="Path 1352" d="M332.346,222.291c-.293.173-.564.261-.69-.186Z" transform="translate(-201.586 -185.757)"/>
    <path id="Path_1353" data-name="Path 1353" d="M288.12,269.568c.184.183.559-.26.658.2a.764.764,0,0,1-.658-.2" transform="translate(-188.879 -199.604)"/>
    <path id="Path_1354" data-name="Path 1354" d="M288.822,266.869c0,.037,0,.074,0,.11-.224-.064-.541.269-.679-.16Z" transform="translate(-188.886 -198.807)"/>
    <path id="Path_1355" data-name="Path 1355" d="M252.507,265.124c.332-.1.455,0,.334.341a.548.548,0,0,1-.334-.341" transform="translate(-178.485 -198.301)"/>
    <path id="Path_1356" data-name="Path 1356" d="M311.834,184.235c0,.054,0,.108,0,.161a1.987,1.987,0,0,1-.989-.144l.988-.017" transform="translate(-195.512 -174.704)"/>
    <path id="Path_1357" data-name="Path 1357" d="M301.9,256.833l-.472-.1c.319-.123.563-.151.782.061l-.31.042" transform="translate(-192.762 -195.835)"/>
    <path id="Path_1358" data-name="Path 1358" d="M294.439,256.8l-.535.025-.315-.038a.6.6,0,0,1,.85.013" transform="translate(-190.475 -195.829)"/>
    <path id="Path_1359" data-name="Path 1359" d="M348.225,254.315c-.212-.218-.178-.464-.066-.792.044.2.074.339.1.473-.012.107-.025.213-.037.319" transform="translate(-206.376 -194.926)"/>
    <path id="Path_1360" data-name="Path 1360" d="M247.754,253.891c.033-.074.05-.19.1-.212.116-.046.095.079.1.138.006.19.037.392-.138.537q-.031-.231-.063-.462" transform="translate(-177.098 -194.969)"/>
    <path id="Path_1361" data-name="Path 1361" d="M272.835,251.868c-.2-.169-.145-.4-.14-.614,0-.028.054-.055.082-.081l.1.215c-.015.16-.03.319-.045.48" transform="translate(-184.374 -194.24)"/>
    <path id="Path_1362" data-name="Path 1362" d="M281.157,243.711c.191.206.175.438.059.787-.056-.229-.089-.365-.122-.5Z" transform="translate(-186.829 -192.062)"/>
    <path id="Path_1363" data-name="Path 1363" d="M305.983,238.725q0,.08,0,.159c-.2,0-.4,0-.6,0-.118-.006-.12-.072-.034-.135a.628.628,0,0,1,.159-.062Z" transform="translate(-193.891 -190.595)"/>
    <path id="Path_1364" data-name="Path 1364" d="M281.827,227.111c-.029.135-.057.269-.1.468a.7.7,0,0,1,.053-.784l.047.316" transform="translate(-186.987 -187.125)"/>
    <path id="Path_1365" data-name="Path 1365" d="M273.179,249.915c.1-.21-.195-.546.21-.661-.02.236.02.491-.21.661" transform="translate(-184.515 -193.68)"/>
    <path id="Path_1366" data-name="Path 1366" d="M367.477,210.816c-.1.415-.279.717-.7.678s-.57-.317-.551-.734a.565.565,0,0,1,.6-.6c.408,0,.57.324.644.654" transform="translate(-211.675 -182.271)"/>
    <path id="Path_1367" data-name="Path 1367" d="M369,208.867c-.084.3-.169.555-.5.547a.467.467,0,0,1-.5-.564.46.46,0,0,1,.516-.463c.35,0,.381.288.487.479" transform="translate(-212.192 -181.753)"/>
    <path id="Path_1368" data-name="Path 1368" d="M210.421,284.552c-.051.421-.233.765-.668.807s-.6-.326-.649-.681c-.064-.445.242-.638.629-.64.325,0,.639.106.688.513" transform="translate(-165.815 -203.833)"/>
    <path id="Path_1369" data-name="Path 1369" d="M211.867,282.467c.07.37-.19.606-.358.879-.251-.155-.675-.218-.432-.669a.5.5,0,0,1,.79-.21" transform="translate(-166.372 -203.339)"/>
    <path id="Path_1370" data-name="Path 1370" d="M384.643,195.413c0,.339-.055.7-.49.644-.37-.043-.759-.2-.727-.694a.65.65,0,0,1,.671-.654c.473-.017.555.319.546.7" transform="translate(-216.695 -177.761)"/>
    <path id="Path_1371" data-name="Path 1371" d="M227.082,269.992a.729.729,0,0,1-.676-.751c-.022-.466.295-.605.666-.635.543-.042.615.408.63.766a.581.581,0,0,1-.62.621" transform="translate(-170.867 -199.327)"/>
    <path id="Path_1373" data-name="Path 1373" d="M223.981,271.862c-.159.213-.3.482-.617.523-.147.018-.185-.137-.154-.245a.635.635,0,0,1,.6-.527c.143-.007.19.1.176.249" transform="translate(-169.932 -200.206)"/>
    <path id="Path_1374" data-name="Path 1374" d="M380.738,197.69c.154.028.311.087.223.274a.879.879,0,0,1-.559.521c-.176.041-.235-.146-.186-.3.081-.254.179-.507.521-.494" transform="translate(-215.754 -178.631)"/>
    <path id="Path_1375" data-name="Path 1375" d="M377.483,201.464c-.157.017-.265-.034-.251-.178.028-.305.121-.579.494-.607.115-.008.273.011.267.154-.013.334-.3.464-.51.63" transform="translate(-214.887 -179.503)"/>
    <path id="Path_1376" data-name="Path 1376" d="M220.211,275.146a.687.687,0,0,1,.565-.555c.115-.021.261.052.222.188a.932.932,0,0,1-.579.6c-.114.047-.2-.078-.207-.232" transform="translate(-169.059 -201.074)"/>
    <path id="Path_1377" data-name="Path 1377" d="M227.544,264.979c-.016.277-.2.336-.427.311-.188-.021-.353-.107-.363-.312-.013-.265.192-.343.409-.359.244-.018.392.094.381.36" transform="translate(-170.969 -198.164)"/>
    <path id="Path_1378" data-name="Path 1378" d="M319.7,233.592c-.146-2.451,2.219-4.1,4.213-4.118a4.33,4.33,0,0,1,4.216,4.192,4.173,4.173,0,0,1-4.3,4.288,4.108,4.108,0,0,1-4.133-4.362" transform="translate(-198.091 -187.907)"/>
    <path id="Path_1379" data-name="Path 1379" d="M325.8,251.146a1.512,1.512,0,0,1,1.307,1.126c.2.524.254,1.135-.358,1.476-.507.283-.431.526-.076.862.149.141.453.3.193.563s-.5.178-.757-.067a25.145,25.145,0,0,0-2.22-2.121c-.243-.179-.513-.587.171-.664.289-.032.4-.312.538-.534a1.431,1.431,0,0,1,1.2-.641" transform="translate(-199.241 -194.232)"/>
    <path id="Path_1380" data-name="Path 1380" d="M327.14,247.538c-.152-.254-.057-.434.166-.588s.389-.014.525.138a8.266,8.266,0,0,0,1.093,1.107c.189-.645.054-1.282.683-1.614.183.055.19.217.171.353-.134.956.123,1.523,1.234,1.316.189-.035.451-.039.484.238.03.255-.207.359-.4.392-.369.064-.75.072-1.137.1-.148.344.566.511.2.892-.149.153-.29.427-.553.13a8.989,8.989,0,0,1-2.466-2.467" transform="translate(-200.246 -192.9)"/>
    <path id="Path_1381" data-name="Path 1381" d="M326.881,247.932a19.751,19.751,0,0,1,2.466,2.467.367.367,0,0,0-.177.353.334.334,0,0,1-.338.086,1.111,1.111,0,0,1-.461-.392,3.5,3.5,0,0,0-.5-.628,1.179,1.179,0,0,0-.477-.366c-.159.013-.175.147-.217.258a.365.365,0,0,1-.119.159l-.879-.7a1.594,1.594,0,0,0,.352-1.059.364.364,0,0,0,.353-.176" transform="translate(-199.986 -193.294)"/>
    <path id="Path_1382" data-name="Path 1382" d="M327.772,249.674a1.091,1.091,0,0,1,.528.528c-.195.514.1.661.53.7l.352.353a1.026,1.026,0,0,0,.178.355c-.151.269-.281.4-.593.121a8.22,8.22,0,0,1-1.35-1.354l0-.177a1.323,1.323,0,0,1,.353-.528" transform="translate(-200.348 -193.803)"/>
    <path id="Path_1383" data-name="Path 1383" d="M326.391,248.18c.527.568.207.853-.353,1.059-.506-.784-.477-.871.353-1.059" transform="translate(-199.848 -193.367)"/>
    <path id="Path_1384" data-name="Path 1384" d="M323.974,255.917v-1.362c.99.443.54.869,0,1.362" transform="translate(-199.344 -195.227)"/>
    <path id="Path_1385" data-name="Path 1385" d="M314.245,230.457q0-.955,0-1.909a2.387,2.387,0,0,1,0,1.909" transform="translate(-196.504 -187.637)"/>
    <path id="Path_1386" data-name="Path 1386" d="M348.638,249.481a2.015,2.015,0,0,1,.006-1.1,1.544,1.544,0,0,1-.006,1.1" transform="translate(-206.521 -193.425)"/>
    <path id="Path_1387" data-name="Path 1387" d="M330.06,252.264c-.312.009-.27-.161-.178-.355l.35,0a.362.362,0,0,1-.172.351" transform="translate(-201.048 -194.455)"/>
    <path id="Path_1388" data-name="Path 1388" d="M268.92,229.479a4.047,4.047,0,0,1,4.058,3.691,4.2,4.2,0,0,1-8.309,1.229,4.436,4.436,0,0,1,1.86-4.322,1.627,1.627,0,0,1,1.006-.239,1.2,1.2,0,0,0,1.043-.343.234.234,0,0,1,.342-.016" transform="translate(-182.023 -187.889)"/>
    <path id="Path_1389" data-name="Path 1389" d="M267.468,227.391c-.279.508-.663.37-1.057.172a2.305,2.305,0,0,1,.881-3.874l.175,0a1.34,1.34,0,0,1,1.586,0l.176.175a.7.7,0,0,1,.384.877,3.44,3.44,0,0,1-2.145,2.65" transform="translate(-182.331 -186.143)"/>
    <path id="Path_1390" data-name="Path 1390" d="M268.2,227.571a4.786,4.786,0,0,0,1.932-2.605,1.039,1.039,0,0,0-.171-.922c1.418.884,1.445,2.566,0,3.869l-.343.015a1.189,1.189,0,0,0-.344,0c-.45.142-.9.3-1.073-.358" transform="translate(-183.066 -186.322)"/>
    <path id="Path_1391" data-name="Path 1391" d="M266.893,223.731c-1.521,1.006-1.823,2.153-.88,3.874-.591.173-1-.365-1.552-.4-.232-.016-.149-.313.011-.384.374-.166.205-.831.77-.817.012,0,.113-.5.037-.551-.534-.326-.071-.976-.5-1.36a.3.3,0,0,1,.313-.489c.6.176,1.228-.25,1.8.128" transform="translate(-181.932 -186.184)"/>
    <path id="Path_1392" data-name="Path 1392" d="M272.191,221.278l.163-.012c1.241-.39,1.717.724,2.481,1.267.2.144.08.3-.043.442a.364.364,0,0,1-.6.039c-.36-.34-.756-.967-1.094-.94-.727.058-.729-.4-.906-.8" transform="translate(-184.23 -185.488)"/>
    <path id="Path_1393" data-name="Path 1393" d="M269.66,223.18h-1.586c.24-.2-.261-.479.066-.676.978-.586.6-.777-.375-.792,1.238-.184,2.056.516,1.9,1.469" transform="translate(-182.938 -185.633)"/>
    <path id="Path_1394" data-name="Path 1394" d="M247.308,246.94c.253.186.144.461.173.7v1.2h-.173Z" transform="translate(-176.968 -193.005)"/>
    <path id="Path_1395" data-name="Path 1395" d="M281.791,228.539q0,.961,0,1.922a2.33,2.33,0,0,1,0-1.922" transform="translate(-186.972 -187.634)"/>
    <path id="Path_1396" data-name="Path 1396" d="M294.6,238.49l5.6,0a9.59,9.59,0,0,1-3.194.143,5.205,5.205,0,0,1-2.4-.146" transform="translate(-190.771 -190.539)"/>
    <path id="Path_1397" data-name="Path 1397" d="M306.9,269.326q0,.081,0,.161c-.286.013-.525.274-.892.137a1.3,1.3,0,0,1,.9-.3" transform="translate(-194.098 -199.538)"/>
    <path id="Path_1398" data-name="Path 1398" d="M305.281,267.106l1.193.016a1.088,1.088,0,0,1-1.193-.016" transform="translate(-193.888 -198.891)"/>
    <path id="Path_1399" data-name="Path 1399" d="M325.7,232.752c.047-.312-.049-.637.125-.942a1.178,1.178,0,0,1,1.583-.479A1.155,1.155,0,0,1,327.79,233a1.117,1.117,0,0,1-1.622.239,4.4,4.4,0,0,1-.469-.5Z" transform="translate(-199.847 -188.408)" fill="#f8f8f8"/>
    <path id="Path_1400" data-name="Path 1400" d="M325.543,233.024c-.03.205-.078.532-.293.144a2.642,2.642,0,0,1-.083-.993c.358.26-.024.712.38.866l0-.016" transform="translate(-199.691 -188.695)"/>
    <path id="Path_1401" data-name="Path 1401" d="M327.463,234.838a.574.574,0,0,1-.6,0,.5.5,0,0,1,.6,0" transform="translate(-200.187 -189.443)"/>
    <path id="Path_1402" data-name="Path 1402" d="M326.261,252.418a.743.743,0,0,1,.656.776.538.538,0,0,1-.6.59.613.613,0,0,1-.61-.7c.017-.327.13-.632.557-.664" transform="translate(-199.848 -194.604)"/>
    <path id="Path_1403" data-name="Path 1403" d="M329.023,251.121c-.033.169-.08.4-.3.255a1.721,1.721,0,0,1-.629-.66c-.1-.232.2-.27.4-.3a.841.841,0,0,1,.53.7" transform="translate(-200.541 -194.02)"/>
    <path id="Path_1404" data-name="Path 1404" d="M327.741,249.674a.534.534,0,0,1-.353.528c-.194-.385.007-.5.353-.528" transform="translate(-200.318 -193.803)"/>
    <path id="Path_1405" data-name="Path 1405" d="M272.963,232.289a1.2,1.2,0,0,1-1.154,1.2,1.1,1.1,0,0,1-1.133-1.109,1.139,1.139,0,0,1,1.129-1.2,1.2,1.2,0,0,1,1.158,1.106" transform="translate(-183.788 -188.406)" fill="#f9f9f9"/>
    <path id="Path_1406" data-name="Path 1406" d="M271.958,234.749c.157.015.446.013.45.047.029.218-.165.1-.263.118a.608.608,0,0,1-.227-.05l.04-.115" transform="translate(-184.15 -189.447)"/>
    <path id="Path_1407" data-name="Path 1407" d="M267.395,226.273c.415.083.753.173.736.651-.015.4-.212.717-.61.729a.718.718,0,0,1-.756-.712c-.029-.431.314-.577.63-.667" transform="translate(-182.646 -186.973)"/>
    <path id="Path_1408" data-name="Path 1408" d="M268.721,225.2a.485.485,0,0,1,.485-.563.4.4,0,0,1,.443.419.482.482,0,0,1-.385.511.5.5,0,0,1-.543-.368" transform="translate(-183.217 -186.494)"/>
  </g>
</svg>
