<svg id="dinner" xmlns="http://www.w3.org/2000/svg" width="86" height="86" viewBox="0 0 86 86">
  <rect id="Rectangle_8090" data-name="Rectangle 8090" width="86" height="86" fill="#fff"/>
  <g id="dinner-2" data-name="dinner" transform="translate(-2.049)">
    <path id="Path_1490" data-name="Path 1490" d="M458.871,463.657a1.278,1.278,0,0,1-1.278-1.278v-5.836a1.278,1.278,0,0,1,2.557,0v5.836A1.279,1.279,0,0,1,458.871,463.657Z" transform="translate(-377.06 -377.657)" fill="#e9edf1"/>
    <path id="Path_1491" data-name="Path 1491" d="M354.367,333.945a1.278,1.278,0,0,1-1.279-1.279v-5.43a1.278,1.278,0,1,1,2.557,0v5.43A1.279,1.279,0,0,1,354.367,333.945Z" transform="translate(-290.37 -270.394)" fill="#a6e7f0"/>
    <g id="Group_13248" data-name="Group 13248" transform="translate(61.513 31.456)">
      <path id="Path_1492" data-name="Path 1492" d="M436.423,224.555l.9.276.836-.276A4.846,4.846,0,0,0,443,219.71v-4.772l-5.682-.978-5.744.978v4.772A4.846,4.846,0,0,0,436.423,224.555Z" transform="translate(-416.991 -208.943)" fill="#ffe5c2"/>
      <path id="Path_1493" data-name="Path 1493" d="M458.048,217.519v4.772a4.847,4.847,0,0,1-3.855,4.744,4.862,4.862,0,0,0,.991.1l.9.276.836-.276a4.846,4.846,0,0,0,4.846-4.846v-4.772l-2.6-.447Z" transform="translate(-435.752 -211.524)" fill="#fed2a4"/>
      <path id="Path_1494" data-name="Path 1494" d="M428.86,276.116h4.848a2.451,2.451,0,0,1,2.451,2.451v17.1l-6.41,1.148-5.986-1.148-1.021-4.345,1.021-4.287v-5.82A5.1,5.1,0,0,1,428.86,276.116Z" transform="translate(-409.662 -260.503)" fill="#a6e7f0"/>
      <path id="Path_1495" data-name="Path 1495" d="M468.99,276.116h-3.716a2.451,2.451,0,0,1,2.451,2.451v17.1h3.716v-17.1A2.451,2.451,0,0,0,468.99,276.116Z" transform="translate(-444.944 -260.503)" fill="#6bd9e7"/>
      <path id="Path_1496" data-name="Path 1496" d="M423.763,399.519l3.17,1.165,2.923-1.165a6.3,6.3,0,0,0,6.3-6.3V390.8h-12.4l-1.021,3.849Z" transform="translate(-409.663 -355.638)" fill="#cdbfba"/>
      <path id="Path_1497" data-name="Path 1497" d="M448.983,390.8v2.417a6.3,6.3,0,0,1-6.3,6.3l2.178.613,1.538-.613a6.3,6.3,0,0,0,6.3-6.3V390.8Z" transform="translate(-426.203 -355.638)" fill="#b9acac"/>
      <path id="Path_1498" data-name="Path 1498" d="M428.734,441.949h9.987a2.409,2.409,0,0,1,2.409,2.409v.009a2.409,2.409,0,0,1-2.409,2.409h-9.987Z" transform="translate(-414.633 -398.068)" fill="#5d5360"/>
      <path id="Path_1499" data-name="Path 1499" d="M469.236,441.949H465.52a2.409,2.409,0,0,1,2.409,2.409v.009a2.409,2.409,0,0,1-2.409,2.409h3.716a2.409,2.409,0,0,0,2.409-2.409v-.009A2.409,2.409,0,0,0,469.236,441.949Z" transform="translate(-445.148 -398.068)" fill="#4b3f4e"/>
      <path id="Path_1500" data-name="Path 1500" d="M415.534,184.528h8.909a2.77,2.77,0,0,1,2.77,2.77v3.225H415.534a2.992,2.992,0,0,1-2.992-2.992v-.011A2.992,2.992,0,0,1,415.534,184.528Z" transform="translate(-401.201 -184.528)" fill="#ffe270"/>
      <path id="Path_1501" data-name="Path 1501" d="M464.274,184.528h-3.716a2.77,2.77,0,0,1,2.77,2.77v3.225h3.716V187.3A2.77,2.77,0,0,0,464.274,184.528Z" transform="translate(-441.032 -184.528)" fill="#ffd15b"/>
      <path id="Path_1502" data-name="Path 1502" d="M475.094,276.116h.009a2.451,2.451,0,0,1,2.451,2.451v8.474l-2.455,1.166-2.455-1.174v-8.466A2.451,2.451,0,0,1,475.094,276.116Z" transform="translate(-451.057 -260.503)" fill="#2ed1e2"/>
      <path id="Path_1503" data-name="Path 1503" d="M396.1,340.159h15.564v.008a4.28,4.28,0,0,1-4.28,4.28h-8.116l-2.781.726-3.274-.726v-1.4A2.887,2.887,0,0,1,396.1,340.159Z" transform="translate(-385.167 -313.629)" fill="#ffe5c2"/>
      <path id="Path_1504" data-name="Path 1504" d="M458.827,340.159v.008a4.28,4.28,0,0,1-4.28,4.28h3.716a4.28,4.28,0,0,0,4.28-4.28v-.008Z" transform="translate(-436.046 -313.629)" fill="#fed2a4"/>
      <path id="Path_1505" data-name="Path 1505" d="M348.494,306.431h.009a2.48,2.48,0,0,0,2.48-2.48v-1.92a1.153,1.153,0,0,0-1.153-1.153h-2.663a1.153,1.153,0,0,0-1.153,1.153v1.92A2.48,2.48,0,0,0,348.494,306.431Z" transform="translate(-346.014 -281.043)" fill="#daf3f6"/>
    </g>
    <path id="Path_1506" data-name="Path 1506" d="M137.689,327.724a1.278,1.278,0,0,1-1.278-1.279v-6.708a1.278,1.278,0,0,1,2.557,0v6.708A1.278,1.278,0,0,1,137.689,327.724Z" transform="translate(-110.628 -264.173)" fill="#a6e7f0"/>
    <path id="Path_1507" data-name="Path 1507" d="M33.185,463.657a1.278,1.278,0,0,1-1.278-1.278v-5.836a1.278,1.278,0,0,1,2.557,0v5.836A1.278,1.278,0,0,1,33.185,463.657Z" transform="translate(-23.939 -377.657)" fill="#e9edf1"/>
    <g id="Group_13249" data-name="Group 13249" transform="translate(3.049 31.456)">
      <path id="Path_1508" data-name="Path 1508" d="M12.472,220.215l-.868.348-.868-.348a4.846,4.846,0,0,1-4.846-4.846V210.6l5.713-1.87,5.713,1.87v4.772a4.846,4.846,0,0,1-4.846,4.846Z" transform="translate(-5.407 -204.603)" fill="#fed2a4"/>
      <path id="Path_1509" data-name="Path 1509" d="M32.363,216.236v4.772a4.847,4.847,0,0,1-3.855,4.744,4.862,4.862,0,0,0,.991.1l.868.348.868-.348a4.846,4.846,0,0,0,4.846-4.846v-4.772l-2.172-.711Z" transform="translate(-24.168 -210.241)" fill="#ffbd86"/>
      <path id="Path_1510" data-name="Path 1510" d="M16.133,290.77l-.687,4.9-5.983,1-6.413-1v-17.1A2.45,2.45,0,0,1,5.5,276.12h4.848a5.1,5.1,0,0,1,5.1,5.1v5.82Z" transform="translate(-3.05 -260.507)" fill="#a2aee6"/>
      <path id="Path_1511" data-name="Path 1511" d="M33.57,290.77l-.687,4.9H29.167V281.217a5.1,5.1,0,0,0-5.1-5.1h3.716a5.1,5.1,0,0,1,5.1,5.1v5.82Z" transform="translate(-20.487 -260.507)" fill="#8795de"/>
      <path id="Path_1512" data-name="Path 1512" d="M15.445,399.519l-3.088.973-3.006-.973a6.3,6.3,0,0,1-6.3-6.3V390.8h12.4l.688,4.359Z" transform="translate(-3.049 -355.638)" fill="#a6e7f0"/>
      <path id="Path_1513" data-name="Path 1513" d="M53.967,390.8v8.719l2.018.535,1.7-.535.688-4.359-.688-4.36Z" transform="translate(-45.287 -355.638)" fill="#6bd9e7"/>
      <path id="Path_1514" data-name="Path 1514" d="M15.445,441.949H5.458a2.409,2.409,0,0,0-2.409,2.409v.009a2.409,2.409,0,0,0,2.409,2.409h9.987l.688-2.413Z" transform="translate(-3.049 -398.068)" fill="#5d5360"/>
      <path id="Path_1515" data-name="Path 1515" d="M53.967,441.949v4.827h3.716l.688-2.413-.688-2.413Z" transform="translate(-45.287 -398.068)" fill="#4b3f4e"/>
      <path id="Path_1516" data-name="Path 1516" d="M14.547,184.528H8.661a2.77,2.77,0,0,0-2.77,2.77v3.225H17.317V187.3A2.77,2.77,0,0,0,14.547,184.528Z" transform="translate(-5.407 -184.528)" fill="#5d5360"/>
      <path id="Path_1517" data-name="Path 1517" d="M38.59,184.528H34.874a2.77,2.77,0,0,1,2.77,2.77v3.225H41.36V187.3a2.77,2.77,0,0,0-2.77-2.77Z" transform="translate(-29.449 -184.528)" fill="#4b3f4e"/>
      <path id="Path_1518" data-name="Path 1518" d="M5.509,276.116H5.5a2.451,2.451,0,0,0-2.451,2.451v8.474l2.589,1.614,2.322-1.622v-8.466A2.451,2.451,0,0,0,5.509,276.116Z" transform="translate(-3.049 -260.503)" fill="#8795de"/>
      <path id="Path_1519" data-name="Path 1519" d="M18.613,340.159H3.049v.008a4.28,4.28,0,0,0,4.28,4.28h8.116l2.754.67,3.3-.67v-1.4A2.887,2.887,0,0,0,18.613,340.159Z" transform="translate(-3.049 -313.629)" fill="#fed2a4"/>
      <path id="Path_1520" data-name="Path 1520" d="M76.267,340.159H72.551a2.887,2.887,0,0,1,2.887,2.887v1.4l1.552.439,2.164-.439v-1.4A2.887,2.887,0,0,0,76.267,340.159Z" transform="translate(-60.703 -313.629)" fill="#ffbd86"/>
      <path id="Path_1521" data-name="Path 1521" d="M131.824,306.431h-.009a2.48,2.48,0,0,1-2.48-2.48v-1.973a1.1,1.1,0,0,1,1.1-1.1H133.2a1.1,1.1,0,0,1,1.1,1.1v1.973A2.48,2.48,0,0,1,131.824,306.431Z" transform="translate(-107.808 -281.043)" fill="#daf3f6"/>
    </g>
    <circle id="Ellipse_88" data-name="Ellipse 88" cx="2.606" cy="2.606" r="2.606" transform="translate(49.12 28.991)" fill="#c38c66"/>
    <path id="Path_1522" data-name="Path 1522" d="M225.315,229.314l-.868.348-.868-.348a4.846,4.846,0,0,1-4.846-4.846v-2.516l3.243-2.256h8.184v4.772A4.846,4.846,0,0,1,225.315,229.314Z" transform="translate(-178.918 -182.245)" fill="#ffe5c2"/>
    <path id="Path_1523" data-name="Path 1523" d="M245.205,219.7v4.772a4.847,4.847,0,0,1-3.855,4.744,4.862,4.862,0,0,0,.991.1l.867.348.868-.348a4.846,4.846,0,0,0,4.846-4.846v-4.772h-3.716Z" transform="translate(-197.679 -182.245)" fill="#fed2a4"/>
    <path id="Path_1524" data-name="Path 1524" d="M204.66,276.116h-.27l-6.2,1.564-6.2-1.564h-.27a4.641,4.641,0,0,0-4.641,4.641v10.563l11.109,2.134,11.109-2.134V280.757A4.641,4.641,0,0,0,204.66,276.116Z" transform="translate(-152.663 -229.048)" fill="#fd3581"/>
    <g id="Group_13250" data-name="Group 13250" transform="translate(39.331 47.068)">
      <path id="Path_1525" data-name="Path 1525" d="M215.892,276.116h12.4v15.2h-12.4Z" transform="translate(-215.892 -276.116)" fill="#fe5694"/>
      <path id="Path_1526" data-name="Path 1526" d="M215.892,276.116h12.4v15.2h-12.4Z" transform="translate(-215.892 -276.116)" fill="#fe5694"/>
      <path id="Path_1527" data-name="Path 1527" d="M228.288,276.116h-12.4v15.2l6.2,1.11,6.2-1.11Z" transform="translate(-215.892 -276.116)" fill="#fe5694"/>
    </g>
    <path id="Path_1528" data-name="Path 1528" d="M230.162,190.523v-.282a5.713,5.713,0,0,0-11.426,0v2.537Z" transform="translate(-178.92 -153.072)" fill="#d19a6e"/>
    <path id="Path_1529" data-name="Path 1529" d="M248.922,190.242v.283l-3.716.733v-1.016a5.713,5.713,0,0,0-3.856-5.4,5.715,5.715,0,0,1,7.572,5.4Z" transform="translate(-197.679 -153.074)" fill="#c38c66"/>
    <path id="Path_1530" data-name="Path 1530" d="M246.028,12.505a1.278,1.278,0,0,1-1.278-1.278V1.278a1.278,1.278,0,1,1,2.557,0v9.948A1.278,1.278,0,0,1,246.028,12.505Z" transform="translate(-200.499)" fill="#e9edf1"/>
    <path id="Path_1531" data-name="Path 1531" d="M75.766,365.309v21.916a1.811,1.811,0,0,0,1.811,1.811h56.547a1.811,1.811,0,0,0,1.811-1.811V365.309Z" transform="translate(-60.321 -303.036)" fill="#d19a6e"/>
    <path id="Path_1532" data-name="Path 1532" d="M404.491,365.31v21.917a1.81,1.81,0,0,1-1.81,1.81H399.51a1.812,1.812,0,0,0,1.812-1.81V365.31Z" transform="translate(-328.878 -303.037)" fill="#c38c66"/>
    <path id="Path_1533" data-name="Path 1533" d="M206.341,64.755l5.837-4.341a1.729,1.729,0,0,1,2.063,0l5.837,4.341a2.863,2.863,0,0,1-1.708,5.16H208.05a2.863,2.863,0,0,1-1.708-5.16Z" transform="translate(-167.68 -49.833)" fill="#5d5360"/>
    <path id="Path_1534" data-name="Path 1534" d="M249.932,64.709l-5.775-4.295a1.729,1.729,0,0,0-2.063,0l-.843.627,4.932,3.668a2.948,2.948,0,0,1,1.216,2.325,2.863,2.863,0,0,1-2.863,2.881h3.75a2.863,2.863,0,0,0,2.863-2.881A2.947,2.947,0,0,0,249.932,64.709Z" transform="translate(-197.596 -49.833)" fill="#4b3f4e"/>
    <path id="Path_1535" data-name="Path 1535" d="M75.77,390.8h60.168v2.557H75.77Z" transform="translate(-60.325 -324.182)" fill="#c38c66"/>
  </g>
</svg>
