<?xml version="1.0" encoding="UTF-8"?><svg id="Layer_1" xmlns="http://www.w3.org/2000/svg" viewBox="0 0 16 16"><defs><style>.cls-1,.cls-2{fill:#f7b801;}.cls-3{fill:#013046;}.cls-4,.cls-5{fill:#dbf0fa;}.cls-5,.cls-2{stroke:#000;stroke-miterlimit:10;stroke-width:0px;}.cls-6{fill:#fff;opacity:.3;}</style></defs><rect class="cls-3" width="16" height="16"/><g><path class="cls-1" d="M5.75,11.27l-.33,1.61c-.12,.59,.33,1.15,.94,1.15h0c5.42,0,8.54-3.32,8.54-7.62,0-2.93-2.52-4.73-6.25-4.73H3L1.38,13.11c-.07,.48,.3,.91,.79,.92h.97c.42,0,.77-.32,.8-.74l.23-4.5"/><path class="cls-5" d="M12.54,4.81c-.42-.59-1.39-.73-2.03-.48-.12,.05-.26,.03-.37-.03-.5-.29-1.08-.47-1.72-.52s-1.31,.05-1.9,.27c-.13,.05-.27,.03-.38-.04-.59-.37-1.51-.46-2.03,.05-.59,.57-.5,1.65,.03,2.27-.13,.34-.22,.7-.25,1.08-.17,2.24,.92,4.04,3.16,4.21s4.79-1.36,4.96-3.6c.03-.34,.01-.68-.04-1,.67-.5,1.05-1.52,.56-2.2Z"/><ellipse class="cls-3" cx="6.6" cy="7.16" rx="1.36" ry=".88" transform="translate(-3.12 7.86) rotate(-51.48)"/><ellipse class="cls-3" cx="9.85" cy="7.41" rx=".88" ry="1.36" transform="translate(-2.39 5.99) rotate(-30.32)"/><path class="cls-3" d="M8.73,9.43l-.32,.31c-.11,.11-.28,.11-.39,0l-.36-.31c-.17-.17-.05-.47,.19-.47h.67c.24,0,.37,.3,.19,.47Z"/><path class="cls-3" d="M9.29,9.98s-1.41,.92-2.42-.11c0,0,.44,.65,1.21,.79s1.21-.68,1.21-.68Z"/><path class="cls-3" d="M7.1,9.78s-.36,.17-.27,.51c0,0-.08-.17-.01-.34s.29-.16,.29-.16Z"/><path class="cls-3" d="M9.16,9.86s.19,.19,.06,.39c0,0,.09-.09,.09-.22s-.15-.17-.15-.17Z"/><path class="cls-1" d="M4.34,6.04c-.61,.42-.57,.99-.57,.99"/><path class="cls-1" d="M11.84,6.77s.46,.34,.41,1.07"/><path class="cls-4" d="M9.36,4.12s.22-.05,.29-.3c.01-.04,.03,.09,.03,.14,0,.13,.04,.22-.08,.39,0,0,.31-.23,.43-.72,.01-.05,.08,.13,.07,.32-.02,.28-.04,.43-.13,.53"/><path class="cls-6" d="M4.14,9.44s.19,1.15,1.49,2.38l.12-.55s-.4-.16-.75-.5-.63-.7-.86-1.34Z"/><path class="cls-3" d="M8.17,9.71s.17,.52-.07,.79l.17-.1s.08-.49-.02-.67l-.08-.02Z"/><path class="cls-2" d="M4.09,6.26s.17-.18,.25-.21c0,0-.23,.37-.26,.45"/><path class="cls-2" d="M12.03,6.98s-.12-.16-.2-.21c0,0,.15,.35,.17,.49"/></g></svg>