<svg xmlns="http://www.w3.org/2000/svg" width="52" height="52" viewBox="0 0 52 52">
  <g id="engineering" transform="translate(-2 -2)">
    <path id="Path_24031" data-name="Path 24031" d="M2.069,40.729a.866.866,0,0,0,.681.778l3.02.652a13.692,13.692,0,0,0,.406,1.518L3.89,45.749a.866.866,0,0,0-.2,1.015,17.33,17.33,0,0,0,1.383,2.414.867.867,0,0,0,.978.332l2.935-.946a13.887,13.887,0,0,0,1.118,1.118L9.16,52.617a.867.867,0,0,0,.332.978,17.33,17.33,0,0,0,2.414,1.383.867.867,0,0,0,1.015-.2l2.071-2.286a13.952,13.952,0,0,0,1.519.406l.652,3.02a.868.868,0,0,0,.777.681c.461.036.923.069,1.394.069s.933-.033,1.394-.069a.866.866,0,0,0,.778-.681l.652-3.02a13.707,13.707,0,0,0,1.519-.406l2.071,2.286a.866.866,0,0,0,1.015.2A17.417,17.417,0,0,0,29.176,53.6a.867.867,0,0,0,.332-.978l-.946-2.935a14.018,14.018,0,0,0,1.118-1.117l2.935.946a.865.865,0,0,0,.978-.332,17.33,17.33,0,0,0,1.383-2.414.866.866,0,0,0-.2-1.015l-2.286-2.071a13.952,13.952,0,0,0,.406-1.519l3.02-.652a.868.868,0,0,0,.681-.777c.036-.462.068-.924.068-1.394s-.033-.933-.069-1.394a.866.866,0,0,0-.681-.778l-3.02-.652a13.706,13.706,0,0,0-.406-1.519l2.286-2.071a.866.866,0,0,0,.2-1.015,17.418,17.418,0,0,0-1.383-2.414.865.865,0,0,0-.978-.332l-2.935.946a13.886,13.886,0,0,0-1.118-1.118l.946-2.935a.867.867,0,0,0-.332-.978,17.33,17.33,0,0,0-2.414-1.383.865.865,0,0,0-1.015.2l-2.071,2.286a13.952,13.952,0,0,0-1.519-.406l-.652-3.02a.868.868,0,0,0-.777-.681,17.614,17.614,0,0,0-2.788,0,.866.866,0,0,0-.778.681l-.652,3.02a13.691,13.691,0,0,0-1.518.406l-2.071-2.286a.866.866,0,0,0-1.015-.2,17.33,17.33,0,0,0-2.414,1.383.867.867,0,0,0-.332.978l.946,2.935a13.886,13.886,0,0,0-1.118,1.118l-2.935-.946a.865.865,0,0,0-.978.332A17.33,17.33,0,0,0,3.69,31.906a.866.866,0,0,0,.2,1.015l2.286,2.071a13.952,13.952,0,0,0-.406,1.519l-3.02.652a.868.868,0,0,0-.681.777C2.033,38.4,2,38.865,2,39.335s.033.933.069,1.394Zm1.682-2.008L6.7,38.084a.867.867,0,0,0,.673-.708A12.082,12.082,0,0,1,8,35.044a.866.866,0,0,0-.229-.949L5.54,32.077c.194-.372.4-.728.607-1.065L9,31.932a.87.87,0,0,0,.937-.276,12.186,12.186,0,0,1,1.714-1.714.866.866,0,0,0,.276-.937l-.92-2.857q.506-.316,1.065-.607l2.018,2.227a.868.868,0,0,0,.95.229,12.024,12.024,0,0,1,2.331-.623.867.867,0,0,0,.708-.673l.636-2.948a11.415,11.415,0,0,1,1.23,0l.637,2.948a.867.867,0,0,0,.708.673A12.082,12.082,0,0,1,23.625,28a.865.865,0,0,0,.949-.229l2.018-2.226c.372.194.728.4,1.065.607l-.92,2.857a.868.868,0,0,0,.276.937,12.186,12.186,0,0,1,1.714,1.714.864.864,0,0,0,.937.276l2.857-.92q.316.506.607,1.064L30.9,34.095a.867.867,0,0,0-.229.95,12.024,12.024,0,0,1,.623,2.331.867.867,0,0,0,.673.708l2.948.636c.011.2.019.409.019.615s-.007.412-.018.614l-2.948.637a.867.867,0,0,0-.673.708,12.082,12.082,0,0,1-.623,2.332.866.866,0,0,0,.229.949l2.226,2.018c-.194.372-.4.728-.607,1.065l-2.857-.92a.863.863,0,0,0-.937.276,12.232,12.232,0,0,1-1.714,1.714.866.866,0,0,0-.276.936l.92,2.857q-.506.316-1.064.607L24.575,50.9a.87.87,0,0,0-.95-.229,12.024,12.024,0,0,1-2.331.623.867.867,0,0,0-.708.673l-.636,2.948a11.414,11.414,0,0,1-1.23,0l-.637-2.948a.867.867,0,0,0-.708-.673,12.082,12.082,0,0,1-2.332-.623.865.865,0,0,0-.949.229l-2.018,2.226c-.372-.194-.728-.4-1.065-.607l.92-2.857a.868.868,0,0,0-.276-.937,12.186,12.186,0,0,1-1.714-1.714A.865.865,0,0,0,9,46.737l-2.857.92q-.316-.506-.607-1.065l2.227-2.018A.867.867,0,0,0,8,43.624a12.024,12.024,0,0,1-.623-2.331.867.867,0,0,0-.673-.708l-2.95-.634c-.01-.2-.018-.409-.018-.615S3.74,38.924,3.752,38.721Z" transform="translate(0 -2.669)"/>
    <path id="Path_24032" data-name="Path 24032" d="M51.123,14.337a.866.866,0,0,0,.6-.727A10.193,10.193,0,0,0,51.8,12.4a10.369,10.369,0,0,0-.075-1.21.866.866,0,0,0-.6-.727l-2.4-.755q-.108-.3-.239-.579L49.646,6.9a.869.869,0,0,0-.088-.939,10.493,10.493,0,0,0-1.715-1.715.869.869,0,0,0-.939-.089L44.671,5.319q-.283-.13-.579-.238l-.755-2.4a.866.866,0,0,0-.727-.6,9.587,9.587,0,0,0-2.421,0,.866.866,0,0,0-.727.6l-.755,2.4q-.3.108-.579.239L35.9,4.155a.87.87,0,0,0-.939.088,10.493,10.493,0,0,0-1.715,1.715.867.867,0,0,0-.089.939l1.164,2.232q-.13.283-.238.579l-2.4.755a.866.866,0,0,0-.6.727,9.745,9.745,0,0,0,0,2.42.866.866,0,0,0,.6.727l2.4.755q.108.3.239.579L33.154,17.9a.869.869,0,0,0,.088.939,10.493,10.493,0,0,0,1.715,1.715.869.869,0,0,0,.939.089l2.232-1.164q.283.13.579.238l.755,2.4a.866.866,0,0,0,.727.6A10.243,10.243,0,0,0,41.4,22.8a10.368,10.368,0,0,0,1.21-.075.866.866,0,0,0,.727-.6l.755-2.4q.3-.108.579-.239L46.9,20.646a.867.867,0,0,0,.939-.088,10.493,10.493,0,0,0,1.715-1.715.867.867,0,0,0,.089-.939l-1.165-2.232q.131-.283.239-.579Zm-3.345-.766a.869.869,0,0,0-.57.578,6.1,6.1,0,0,1-.463,1.121.864.864,0,0,0-.005.811l1.1,2.108a8.844,8.844,0,0,1-.65.65l-2.108-1.1a.867.867,0,0,0-.811.005,6.1,6.1,0,0,1-1.121.463.869.869,0,0,0-.578.57l-.714,2.274a7.3,7.3,0,0,1-.913,0l-.714-2.274a.869.869,0,0,0-.578-.57,6.022,6.022,0,0,1-1.121-.463.866.866,0,0,0-.812-.005l-2.108,1.1a8.845,8.845,0,0,1-.65-.65l1.1-2.108a.867.867,0,0,0-.005-.811,6.1,6.1,0,0,1-.463-1.121.869.869,0,0,0-.57-.578l-2.274-.714c-.01-.159-.015-.31-.015-.457s0-.3.015-.457l2.274-.714a.869.869,0,0,0,.57-.578,6.022,6.022,0,0,1,.463-1.121.866.866,0,0,0,.005-.812l-1.1-2.108a8.845,8.845,0,0,1,.65-.65l2.108,1.1a.869.869,0,0,0,.811-.005,6.1,6.1,0,0,1,1.121-.463.869.869,0,0,0,.578-.57l.714-2.274a7.3,7.3,0,0,1,.913,0l.714,2.274a.869.869,0,0,0,.578.57,6.022,6.022,0,0,1,1.121.463.866.866,0,0,0,.812.005l2.108-1.1a8.844,8.844,0,0,1,.65.65l-1.1,2.108a.867.867,0,0,0,.005.811,6.1,6.1,0,0,1,.463,1.121.869.869,0,0,0,.57.578l2.274.714c.01.159.015.31.015.457s0,.3-.015.457Z" transform="translate(-3.867)"/>
    <path id="Path_24033" data-name="Path 24033" d="M58.694,33.9,57.2,33.374a7.024,7.024,0,0,0-.292-.708l.677-1.426a.863.863,0,0,0-.1-.9A8.722,8.722,0,0,0,56,28.844a.867.867,0,0,0-.906-.1l-1.427.677a6.922,6.922,0,0,0-.707-.291l-.53-1.489a.869.869,0,0,0-.712-.57,7.986,7.986,0,0,0-2.1,0,.866.866,0,0,0-.712.57l-.529,1.489a7.024,7.024,0,0,0-.708.292l-1.426-.677a.867.867,0,0,0-.9.1,8.722,8.722,0,0,0-1.491,1.49.868.868,0,0,0-.1.906l.677,1.427a6.922,6.922,0,0,0-.291.707l-1.489.53a.869.869,0,0,0-.57.712,8.491,8.491,0,0,0-.07,1.05,8.687,8.687,0,0,0,.069,1.051.866.866,0,0,0,.57.712l1.489.529a7.023,7.023,0,0,0,.292.708l-.677,1.426a.863.863,0,0,0,.1.9,8.722,8.722,0,0,0,1.49,1.491.868.868,0,0,0,.906.1l1.427-.677a6.923,6.923,0,0,0,.707.291l.53,1.489a.869.869,0,0,0,.712.57,8.37,8.37,0,0,0,1.051.071,8.687,8.687,0,0,0,1.051-.069.866.866,0,0,0,.712-.57l.529-1.489a7.024,7.024,0,0,0,.708-.292l1.426.677a.861.861,0,0,0,.9-.1A8.722,8.722,0,0,0,57.488,41a.868.868,0,0,0,.1-.906l-.677-1.427a6.921,6.921,0,0,0,.291-.707l1.489-.53a.869.869,0,0,0,.57-.712,8.37,8.37,0,0,0,.071-1.051,8.687,8.687,0,0,0-.069-1.051.867.867,0,0,0-.57-.713Zm-1.1,2.081-1.374.488a.867.867,0,0,0-.545.585,5.157,5.157,0,0,1-.481,1.167.869.869,0,0,0-.029.8l.622,1.311q-.216.237-.452.452l-1.311-.622a.869.869,0,0,0-.8.029,5.16,5.16,0,0,1-1.167.481.87.87,0,0,0-.586.545l-.488,1.374a5.926,5.926,0,0,1-.633,0l-.488-1.374a.867.867,0,0,0-.585-.545,5.157,5.157,0,0,1-1.167-.481.874.874,0,0,0-.8-.029L46,40.784q-.237-.216-.452-.452l.622-1.311a.866.866,0,0,0-.029-.8,5.16,5.16,0,0,1-.481-1.167.87.87,0,0,0-.545-.586l-1.374-.488c-.007-.1-.01-.21-.01-.316s0-.212.009-.316l1.374-.489a.864.864,0,0,0,.544-.585,5.183,5.183,0,0,1,.482-1.167.869.869,0,0,0,.029-.8L45.548,31q.216-.237.452-.452l1.311.622a.864.864,0,0,0,.8-.029,5.16,5.16,0,0,1,1.167-.481.87.87,0,0,0,.586-.545l.488-1.374a5.925,5.925,0,0,1,.633,0l.488,1.374a.867.867,0,0,0,.585.545,5.157,5.157,0,0,1,1.167.481.864.864,0,0,0,.8.029l1.311-.622q.237.216.452.452l-.622,1.311a.866.866,0,0,0,.029.8,5.16,5.16,0,0,1,.481,1.167.87.87,0,0,0,.545.586l1.374.488c.007.106.01.211.01.317s0,.211-.009.316Z" transform="translate(-5.333 -3.333)"/>
    <path id="Path_24034" data-name="Path 24034" d="M20.533,50.067A9.533,9.533,0,1,0,11,40.533,9.545,9.545,0,0,0,20.533,50.067Zm0-17.333a7.8,7.8,0,1,1-7.8,7.8A7.81,7.81,0,0,1,20.533,32.733Z" transform="translate(-1.2 -3.867)"/>
    <path id="Path_24035" data-name="Path 24035" d="M2.022,23.75l1.331,1.11a20.758,20.758,0,0,1,15.983-7.488c.441,0,.881.025,1.322.053L19.59,18.493l1.225,1.225,2.6-2.6a.866.866,0,0,0,0-1.225l-2.6-2.6L19.59,14.518,20.768,15.7c-.477-.03-.954-.057-1.432-.057A22.488,22.488,0,0,0,2.022,23.75Z" transform="translate(-0.003 -1.506)"/>
    <path id="Path_24036" data-name="Path 24036" d="M42.333,9a4.333,4.333,0,1,0,4.333,4.333A4.338,4.338,0,0,0,42.333,9Zm0,6.933a2.6,2.6,0,1,1,2.6-2.6A2.6,2.6,0,0,1,42.333,15.933Z" transform="translate(-4.8 -0.933)"/>
    <path id="Path_24037" data-name="Path 24037" d="M51.467,33a3.467,3.467,0,1,0,3.467,3.467A3.47,3.47,0,0,0,51.467,33Zm0,5.2A1.733,1.733,0,1,1,53.2,36.467,1.735,1.735,0,0,1,51.467,38.2Z" transform="translate(-6.133 -4.133)"/>
    <path id="Path_24038" data-name="Path 24038" d="M60.239,4.884l-4.333-.867a.865.865,0,0,0-1.02.679L54.019,9.03l1.7.341.467-2.333a13,13,0,0,1,1.284,5.629,12.861,12.861,0,0,1-2.851,8.125l1.353,1.084A14.745,14.745,0,0,0,57.681,6.14l2.219.444Z" transform="translate(-6.936 -0.267)"/>
  </g>
</svg>
