<svg xmlns="http://www.w3.org/2000/svg" width="62" height="46" viewBox="0 0 62 46">
  <g id="checkout" transform="translate(-1 -9)">
    <path id="Path_24024" data-name="Path 24024" d="M60,9H4a3,3,0,0,0-3,3V52a3,3,0,0,0,3,3H60a3,3,0,0,0,3-3V12A3,3,0,0,0,60,9ZM3,17.535l4-2.667v3.6L3,21.132Zm0,6,4-2.667v3.6L3,27.132Zm0,6,4-2.667v3.6L3,33.132Zm0,6,4-2.667v3.6L3,39.132Zm0,6,4-2.667v3.6L3,45.132Zm0,9.6v-3.6l4-2.667v3.6ZM4,11H7v1.465L3,15.132V12A1,1,0,0,1,4,11ZM3.849,52.969,7,50.868V53H4a.843.843,0,0,1-.151-.031ZM61,52a1,1,0,0,1-1,1H9V11H60a1,1,0,0,1,1,1Z"/>
    <path id="Path_24025" data-name="Path 24025" d="M16,40H34.266a3.014,3.014,0,0,0,2.969-2.575l.865-6.051A8,8,0,1,0,27,24H16.514l-.528-3.164A1,1,0,0,0,15,20H11v2h3.153L16.82,38H16a3,3,0,0,0,0,6h1.184A2.966,2.966,0,0,0,17,45a3,3,0,0,0,6,0,2.966,2.966,0,0,0-.184-1h6.368A2.966,2.966,0,0,0,29,45a3,3,0,0,0,6,0,2.966,2.966,0,0,0-.184-1H38V42H16a1,1,0,0,1,0-2ZM35,18a6,6,0,1,1-6,6,6,6,0,0,1,6-6ZM16.847,26H27.263A7.931,7.931,0,0,0,36,31.931l-.745,5.211a1,1,0,0,1-.989.858H18.847ZM21,45a1,1,0,1,1-1-1A1,1,0,0,1,21,45Zm12,0a1,1,0,1,1-1-1A1,1,0,0,1,33,45Z"/>
    <path id="Path_24026" data-name="Path 24026" d="M34,28a1,1,0,0,0,.707-.293l5-5-1.414-1.414L34,25.586l-2.293-2.293-1.414,1.414,3,3A1,1,0,0,0,34,28Z"/>
    <path id="Path_24027" data-name="Path 24027" d="M52.641,39.231A1,1,0,0,0,51,40v1H42a1,1,0,0,0-1,1v6a1,1,0,0,0,1,1h9v1a1,1,0,0,0,.576.9A.986.986,0,0,0,52,51a1.007,1.007,0,0,0,.641-.231l6-5a1,1,0,0,0,0-1.538Zm.351,8.641A1,1,0,0,0,52,47H43V43h9a1,1,0,0,0,.992-.872L56.438,45Z"/>
    <path id="Path_24028" data-name="Path 24028" d="M51,13h8v2H51Z"/>
    <path id="Path_24029" data-name="Path 24029" d="M47,17H59v2H47Z"/>
    <path id="Path_24030" data-name="Path 24030" d="M47,21H59v2H47Z"/>
  </g>
</svg>
