<svg id="shopping" xmlns="http://www.w3.org/2000/svg" width="38.049" height="38.049" viewBox="0 0 38.049 38.049">
  <g id="mobilephone_路_ecommerce_路_shopping_路_buy_路_cart">
    <path id="Path_23978" data-name="Path 23978" d="M112.634,25.268h.634a.634.634,0,0,0,0-1.268h-.634a.634.634,0,0,0,0,1.268Z" transform="translate(-103.122 -22.098)"/>
    <path id="Path_23979" data-name="Path 23979" d="M152.634,25.268h.634a.634.634,0,0,0,0-1.268h-.634a.634.634,0,1,0,0,1.268Z" transform="translate(-139.951 -22.098)"/>
    <path id="Path_23980" data-name="Path 23980" d="M37.415,6.341H22.829V3.171A3.171,3.171,0,0,0,19.658,0H3.171A3.171,3.171,0,0,0,0,3.171V31.707a3.171,3.171,0,0,0,3.171,3.171H15.219v2.537a.634.634,0,0,0,.634.634H28.537a.634.634,0,0,0,.634-.634v-3.8a.634.634,0,0,0-.634-.634H27.9v-.247a.648.648,0,0,1,.108-.355l.412-.621a4.439,4.439,0,0,0,.748-2.467V22.829h8.244a.634.634,0,0,0,.634-.634V6.976A.634.634,0,0,0,37.415,6.341ZM1.268,3.171a1.908,1.908,0,0,1,1.9-1.9H19.658a1.908,1.908,0,0,1,1.9,1.9V3.8H1.268Zm0,1.9H21.561V6.341h-1.9a.634.634,0,0,0-.634.634v7.1a1.98,1.98,0,0,0-1.268,1.852v5.638h-.634a1.908,1.908,0,0,0-1.9,1.9v5.073H1.268ZM15.219,33.61H3.171a1.908,1.908,0,0,1-1.9-1.9V29.8H15.258a4.443,4.443,0,0,0,.71,1.947l.412.621a.648.648,0,0,1,.108.355v.247h-.634A.634.634,0,0,0,15.219,33.61ZM27.9,36.78H16.488V34.244H27.9Zm0-7.5a3.181,3.181,0,0,1-.533,1.763l-.419.621a1.9,1.9,0,0,0-.317,1.059v.247H17.756v-.247a1.9,1.9,0,0,0-.317-1.059l-.419-.621a3.181,3.181,0,0,1-.533-1.763V23.463a.634.634,0,0,1,.634-.634h.634V26a.634.634,0,1,0,1.268,0V15.923a.693.693,0,0,1,.577-.7.625.625,0,0,1,.507.2.589.589,0,0,1,.184.438v7.61a.634.634,0,0,0,1.268,0V20.293a.634.634,0,0,1,.634-.634.6.6,0,0,1,.45.2.588.588,0,0,1,.184.438v3.171a.634.634,0,1,0,1.268,0V20.927a.634.634,0,0,1,.634-.634.6.6,0,0,1,.45.2.588.588,0,0,1,.184.438v2.537a.634.634,0,1,0,1.268,0V22.2a.634.634,0,0,1,.634-.634.6.6,0,0,1,.45.2.588.588,0,0,1,.184.438Zm8.878-7.724H29.057a1.885,1.885,0,0,0-.438-.7,1.941,1.941,0,0,0-2.048-.431,1.865,1.865,0,0,0-.488-.837,1.956,1.956,0,0,0-2.283-.317,1.74,1.74,0,0,0-.254-.317,1.944,1.944,0,0,0-1.985-.457V15.854a1.873,1.873,0,0,0-.552-1.338,1.933,1.933,0,0,0-.717-.45V7.61H36.78Z"/>
    <path id="Path_23981" data-name="Path 23981" d="M49.268,248h-.634a.634.634,0,1,0,0,1.268h.634a.634.634,0,0,0,0-1.268Z" transform="translate(-44.195 -228.342)"/>
    <path id="Path_23982" data-name="Path 23982" d="M94.976,248H88.634a.634.634,0,0,0,0,1.268h6.341a.634.634,0,1,0,0-1.268Z" transform="translate(-81.024 -228.342)"/>
    <path id="Path_23983" data-name="Path 23983" d="M49.268,280h-.634a.634.634,0,0,0,0,1.268h.634a.634.634,0,0,0,0-1.268Z" transform="translate(-44.195 -257.805)"/>
    <path id="Path_23984" data-name="Path 23984" d="M93.707,280H88.634a.634.634,0,0,0,0,1.268h5.073a.634.634,0,0,0,0-1.268Z" transform="translate(-81.024 -257.805)"/>
    <path id="Path_23985" data-name="Path 23985" d="M49.268,312h-.634a.634.634,0,1,0,0,1.268h.634a.634.634,0,1,0,0-1.268Z" transform="translate(-44.195 -287.268)"/>
    <path id="Path_23986" data-name="Path 23986" d="M93.707,312H88.634a.634.634,0,0,0,0,1.268h5.073a.634.634,0,1,0,0-1.268Z" transform="translate(-81.024 -287.268)"/>
    <circle id="Ellipse_134" data-name="Ellipse 134" cx="1.268" cy="1.268" r="1.268" transform="translate(26 15.854)"/>
    <circle id="Ellipse_135" data-name="Ellipse 135" cx="1.268" cy="1.268" r="1.268" transform="translate(29.171 15.854)"/>
    <path id="Path_23987" data-name="Path 23987" d="M304.634,121.268h.708l.088.7v.018l.474,3.795a.634.634,0,0,0,.632.556h4.439a.634.634,0,0,0,.6-.434l1.268-3.8a.634.634,0,0,0-.6-.835h-5.623l-.089-.713A.634.634,0,0,0,305.9,120h-1.268a.634.634,0,1,0,0,1.268Zm6.73,1.268-.846,2.537h-3.424l-.317-2.537Z" transform="translate(-279.902 -110.488)"/>
    <path id="Path_23988" data-name="Path 23988" d="M123.171,392h-2.537a.634.634,0,1,0,0,1.268h2.537a.634.634,0,1,0,0-1.268Z" transform="translate(-110.488 -360.927)"/>
    <path id="Path_23989" data-name="Path 23989" d="M76.2,96.653l-2.526-.634A.627.627,0,0,0,73.524,96h-1.28a.634.634,0,0,0-.634.634,1.268,1.268,0,0,1-2.537,0A.634.634,0,0,0,68.439,96H67.155a.636.636,0,0,0-.155.019l-2.521.634a.634.634,0,0,0-.479.615V99.8a.634.634,0,0,0,.788.615l1.748-.437v5.529a.634.634,0,0,0,.634.634h6.341a.634.634,0,0,0,.634-.634V99.983l1.748.437a.634.634,0,0,0,.788-.615V97.268A.634.634,0,0,0,76.2,96.653Zm-.789,2.339-1.748-.437a.635.635,0,0,0-.788.615v5.707H67.8V99.171a.634.634,0,0,0-.788-.615l-1.748.437v-1.23l1.966-.495h.651a2.537,2.537,0,0,0,4.913,0h.647l1.969.495Z" transform="translate(-58.927 -88.39)"/>
  </g>
</svg>
