<svg xmlns="http://www.w3.org/2000/svg" width="51.617" height="62" viewBox="0 0 51.617 62">
  <g id="money-growth" transform="translate(-42.9 -0.073)">
    <path id="Path_24023" data-name="Path 24023" d="M94.517,44.027A18.05,18.05,0,0,1,65.8,58.585H48.532A4.95,4.95,0,0,1,45.6,49.671a4.968,4.968,0,0,1,0-7.945,4.944,4.944,0,0,1,2.931-8.9H62.29a18.05,18.05,0,0,1,32.228,11.2ZM48.544,40.782H58.7a18,18,0,0,1,2.253-5.995H48.532C44.583,34.787,44.6,40.782,48.544,40.782Zm0,7.933H59.032a18.154,18.154,0,0,1-.618-4.687c0-.436.012-.872.048-1.308H48.544C44.62,42.719,44.6,48.714,48.544,48.714Zm0,7.933H63.586a18.215,18.215,0,0,1-3.912-5.995H48.544C44.62,50.652,44.6,56.647,48.544,56.647ZM92.58,44.027a16.12,16.12,0,1,0-16.12,16.12A16.137,16.137,0,0,0,92.58,44.027ZM42.9,26.042A4.455,4.455,0,0,1,47.345,21.6a4.384,4.384,0,0,1,2.7.92l8.1-6.782a4.445,4.445,0,1,1,8.284-3.016H77.09A4.433,4.433,0,0,1,83.569,9.8l6.3-7.133L84.235,4.1a.968.968,0,0,1-.472-1.877L92.144.1a.976.976,0,0,1,1.211.933l.036,8.647a.969.969,0,0,1-1.938,0l-.024-5.862-6.395,7.255a4.4,4.4,0,0,1,.848,2.6,4.444,4.444,0,0,1-8.781.969H66.444a4.453,4.453,0,0,1-4.336,3.476,4.384,4.384,0,0,1-2.7-.92l-8.1,6.782A4.45,4.45,0,1,1,42.9,26.042ZM78.906,13.689a2.507,2.507,0,1,0,2.507-2.507A2.512,2.512,0,0,0,78.906,13.689Zm-19.329,0a2.507,2.507,0,1,0,2.507-2.507A2.512,2.512,0,0,0,59.577,13.689ZM44.838,26.042a2.507,2.507,0,1,0,2.507-2.507,2.512,2.512,0,0,0-2.507,2.507Z" transform="translate(0 0)" fill-rule="evenodd"/>
  </g>
</svg>
