<svg id="learning-and-development" xmlns="http://www.w3.org/2000/svg" width="86" height="86" viewBox="0 0 86 86">
  <rect id="Rectangle_8090" data-name="Rectangle 8090" width="86" height="86" fill="#fff"/>
  <g id="inspiration" transform="translate(12)">
    <path id="Path_1562" data-name="Path 1562" d="M81.448,75.828l-.6.483v5.733H65.556V77.267l-1.661-1.495A23.854,23.854,0,0,1,56,58.045V57.2a17.2,17.2,0,1,1,34.4,0A23.845,23.845,0,0,1,81.448,75.828Zm0,0" transform="translate(-42.622 -30.444)" fill="#fbedbf"/>
    <path id="Path_1563" data-name="Path 1563" d="M61.156,250.4H0V217.911H30.578L61.156,216Zm0,0" transform="translate(0 -164.4)" fill="#6b9777"/>
    <path id="Path_1564" data-name="Path 1564" d="M158.578,250.4H128V217.911h15.289L158.578,216Zm0,0" transform="translate(-97.422 -164.4)" fill="#5e8569"/>
    <path id="Path_1565" data-name="Path 1565" d="M54.933,244.311l-.956-.573a36.189,36.189,0,0,0-18.626-5.16H32V208h6.744a36.189,36.189,0,0,1,16.189,3.822Zm0,0" transform="translate(-24.356 -158.311)" fill="#ebebeb"/>
    <path id="Path_1566" data-name="Path 1566" d="M128,244.311l.956-.573a36.189,36.189,0,0,1,18.626-5.16h3.352V208h-6.744A36.189,36.189,0,0,0,128,211.822Zm0,0" transform="translate(-97.422 -158.311)" fill="#e4e4e2"/>
    <path id="Path_1567" data-name="Path 1567" d="M96,216h15.289v3.822a3.822,3.822,0,0,1-3.822,3.822H99.822A3.822,3.822,0,0,1,96,219.822Zm0,0" transform="translate(-73.067 -164.4)" fill="#cdcdcd"/>
    <g id="Group_13265" data-name="Group 13265">
      <path id="Path_1568" data-name="Path 1568" d="M120,0h3.822V3.822H120Zm0,0" transform="translate(-91.333)" fill="#f7ba61"/>
      <path id="Path_1569" data-name="Path 1569" d="M31.836,34.534l2.7-2.7,2.7,2.7-2.7,2.7Zm0,0" transform="translate(-24.231 -24.228)" fill="#f7ba61"/>
      <path id="Path_1570" data-name="Path 1570" d="M0,120H3.822v3.822H0Zm0,0" transform="translate(0 -91.333)" fill="#f7ba61"/>
      <path id="Path_1571" data-name="Path 1571" d="M240,120h3.822v3.822H240Zm0,0" transform="translate(-182.667 -91.333)" fill="#f7ba61"/>
      <path id="Path_1572" data-name="Path 1572" d="M201.539,34.534l2.7-2.7,2.7,2.7-2.7,2.7Zm0,0" transform="translate(-153.394 -24.228)" fill="#f7ba61"/>
      <path id="Path_1573" data-name="Path 1573" d="M103.988,83.185a6.647,6.647,0,1,0-11.042,7.371l3.1,4.759-7,10.654a1.829,1.829,0,0,0-.084.191l.021.021,1.661,1.487v1.014h1.911V107.59l5.762-8.779,5.7,8.768v1.337h1.911v-2.2l.6-.483c.26-.208.487-.443.738-.662L100.6,95.327l3.083-4.7A6.666,6.666,0,0,0,103.988,83.185Zm-3.44,5.259-2.223,3.386-2.272-3.489a2.843,2.843,0,0,1-.191-3.188,2.772,2.772,0,0,1,2.425-1.375,2.81,2.81,0,0,1,2.469,1.45,2.867,2.867,0,0,1-.206,3.215Zm0,0" transform="translate(-67.709 -60.846)" fill="#f7ba61"/>
    </g>
    <path id="Path_1574" data-name="Path 1574" d="M96,192h15.289v5.733H96Zm0,0" transform="translate(-73.067 -146.133)" fill="#d9d9d9"/>
  </g>
</svg>
