<svg xmlns="http://www.w3.org/2000/svg" width="129.445" height="17.541" viewBox="0 0 129.445 17.541">
  <g id="Group_13244" data-name="Group 13244" transform="translate(2404.784 1184.597)">
    <path id="Path_1127" data-name="Path 1127" d="M-2395.242-1012.669a4.513,4.513,0,0,1,.9-1.043,4.351,4.351,0,0,1,2.555-1.153,6.2,6.2,0,0,1,2.308.267,4.7,4.7,0,0,1,2.068,1.266,4.978,4.978,0,0,1,1.028,1.673,7.126,7.126,0,0,1,.458,2.42c.04,2.361.007,4.723.017,7.084a.876.876,0,0,0,0,.088c.008.073-.017.1-.1.1-.693-.017-1.388.038-2.079-.042a2.571,2.571,0,0,1-1.164-.384,1.827,1.827,0,0,1-.764-1.272,4.6,4.6,0,0,1-.066-.809q0-2.4,0-4.791a3.9,3.9,0,0,0-.109-.929,1.365,1.365,0,0,0-1.318-1.13,1.958,1.958,0,0,0-.864.08,1.385,1.385,0,0,0-.855,1.036,3.221,3.221,0,0,0-.111.853q0,3.618,0,7.236c0,.119-.026.156-.15.154-.506-.007-1.012,0-1.518,0a3.746,3.746,0,0,1-.94-.124,1.775,1.775,0,0,1-1.342-1.446,4.346,4.346,0,0,1-.095-.919c0-1.651,0-3.3,0-4.954a2.846,2.846,0,0,0-.178-1.028,1.331,1.331,0,0,0-1.209-.884,2.558,2.558,0,0,0-.623.017,1.263,1.263,0,0,0-1.1,1.014,3.37,3.37,0,0,0-.115.877q0,3.649,0,7.3c0,.119-.027.156-.15.154-.493-.007-.987,0-1.48-.005a3.251,3.251,0,0,1-1.278-.26,2.065,2.065,0,0,1-1.221-1.669,3.38,3.38,0,0,1-.043-.56c0-1.576-.012-3.152.005-4.728a6.568,6.568,0,0,1,.65-2.878,4.775,4.775,0,0,1,3.021-2.521,7.362,7.362,0,0,1,2.047-.293,4.329,4.329,0,0,1,2.086.472,3.78,3.78,0,0,1,1.556,1.408C-2395.352-1012.9-2395.3-1012.785-2395.242-1012.669Z" transform="translate(0 -165.455)" fill="#00adee"/>
    <path id="Path_1128" data-name="Path 1128" d="M-1044.231-1012.571a4.974,4.974,0,0,1,1.4-1.427,4.109,4.109,0,0,1,2.335-.784,5.973,5.973,0,0,1,3.053.723,4.651,4.651,0,0,1,2.01,2.335,7.1,7.1,0,0,1,.5,2.22c.028.379.038.758.038,1.138q0,3.173,0,6.346c0,.132-.039.157-.161.156-.5-.007-1,0-1.505,0a4.07,4.07,0,0,1-1.1-.158,1.8,1.8,0,0,1-1.343-1.534,4.618,4.618,0,0,1-.066-.8q0-2.37,0-4.74a3.863,3.863,0,0,0-.13-1.064,1.354,1.354,0,0,0-1.321-1.064,2.008,2.008,0,0,0-.839.082,1.377,1.377,0,0,0-.854,1.021,3.267,3.267,0,0,0-.113.878q0,3.612,0,7.224c0,.132-.038.158-.161.156-.506-.007-1.012,0-1.518,0a3.368,3.368,0,0,1-1.153-.2,1.734,1.734,0,0,1-1.093-1.261,3.74,3.74,0,0,1-.12-.952c0-1.664,0-3.328,0-4.991a2.981,2.981,0,0,0-.178-1.066,1.329,1.329,0,0,0-1.194-.887,2.328,2.328,0,0,0-.807.05,1.25,1.25,0,0,0-.94.986,3.345,3.345,0,0,0-.112.828c-.034,2.453-.007,4.907-.012,7.36,0,.118-.037.135-.141.134-.5-.005-1,.007-1.493,0a3.008,3.008,0,0,1-1.5-.381,2.075,2.075,0,0,1-.985-1.551,3.46,3.46,0,0,1-.042-.561c0-1.563-.009-3.127,0-4.69a6.546,6.546,0,0,1,.714-3.038,4.657,4.657,0,0,1,1.945-1.977,6.077,6.077,0,0,1,2.45-.684,5.184,5.184,0,0,1,1.909.133,4.056,4.056,0,0,1,2.272,1.605,2.34,2.34,0,0,1,.128.215C-1044.3-1012.73-1044.272-1012.658-1044.231-1012.571Z" transform="translate(-1317.121 -165.553)" fill="#00adee"/>
    <path id="Path_1129" data-name="Path 1129" d="M2058.9-1167.3c.141-.165.264-.337.405-.495a3.249,3.249,0,0,1,1.594-.988,4.935,4.935,0,0,1,2.919.031,4.1,4.1,0,0,1,1.531.921,5.12,5.12,0,0,1,1.5,2.88,7.887,7.887,0,0,1,.122,1.455q0,3.637,0,7.274c0,.121-.03.153-.151.15-.627-.012-1.254.014-1.881-.015a2.864,2.864,0,0,1-1.056-.236,1.732,1.732,0,0,1-1.005-1.373,5.205,5.205,0,0,1-.076-.946c0-1.434,0-2.868,0-4.3a4.172,4.172,0,0,0-.219-1.438,1.563,1.563,0,0,0-1.7-1.078,3.047,3.047,0,0,0-.643.089,1.5,1.5,0,0,0-1.1,1.183,4.176,4.176,0,0,0-.129,1.04q0,3.461,0,6.922c0,.117-.022.156-.148.154-.564-.01-1.129.009-1.693-.018a2.539,2.539,0,0,1-1.642-.579,2.031,2.031,0,0,1-.615-1.175,3.71,3.71,0,0,1-.071-.72q0-7.111,0-14.221c0-.187-.027-.165.167-.165.489,0,.979-.011,1.467.013a2.566,2.566,0,0,1,1.812.725,2.186,2.186,0,0,1,.568,1.242,3.92,3.92,0,0,1,.035.586q0,1.48,0,2.96Z" transform="translate(-4347.743 -11.356)" fill="#80c241"/>
    <path id="Path_1130" data-name="Path 1130" d="M1690.229-1114.484c0-1.212.022-2.425-.006-3.636a3.521,3.521,0,0,1,1.5-3,3.588,3.588,0,0,1,1.762-.781,7.025,7.025,0,0,1,.726-.021c.088,0,.076.057.076.11q0,.658,0,1.317c0,.5,0,.995,0,1.492,0,.12.037.144.149.144,1.074,0,2.149,0,3.223,0,.115,0,.148.029.146.145-.007.422-.015.845,0,1.266a1.837,1.837,0,0,1-.906,1.652,2.044,2.044,0,0,1-1.215.361c-.426-.008-.853,0-1.279,0-.1,0-.117.028-.117.12,0,1.5,0,3,0,4.5a1.211,1.211,0,0,0,1.263,1.251,6.6,6.6,0,0,0,1.357-.1,3.251,3.251,0,0,0,.514-.155c.146-.056.167-.041.167.112,0,.481-.007.962,0,1.442a1.792,1.792,0,0,1-1.063,1.726,3.953,3.953,0,0,1-1.567.391,5.485,5.485,0,0,1-1.908-.173,3.591,3.591,0,0,1-2.638-2.713,6.351,6.351,0,0,1-.185-1.623C1690.228-1111.935,1690.229-1113.209,1690.229-1114.484Z" transform="translate(-3992.261 -61.105)" fill="#80c241"/>
    <path id="Path_1131" data-name="Path 1131" d="M1349.663-1007.675c0,1.237,0,2.474,0,3.712,0,.123-.033.154-.153.151-.459-.01-.92.011-1.379-.017a2.568,2.568,0,0,1-1.8-.751,2.527,2.527,0,0,1-.616-1.29,4.236,4.236,0,0,1-.077-.82c0-1.923-.019-3.846.008-5.768a4.379,4.379,0,0,1,1.227-3.074,4,4,0,0,1,2.449-1.192,5.236,5.236,0,0,1,2.192.155,2.186,2.186,0,0,1,1.261.872,1.635,1.635,0,0,1,.275.909c0,.518,0,1.037,0,1.555,0,.137-.03.161-.165.111a3.28,3.28,0,0,0-.71-.193,3.681,3.681,0,0,0-1.2,0,1.488,1.488,0,0,0-1.193,1.1,2.881,2.881,0,0,0-.122.863C1349.661-1010.124,1349.663-1008.9,1349.663-1007.675Z" transform="translate(-3656.317 -163.612)" fill="#80c241"/>
    <path id="Path_1132" data-name="Path 1132" d="M2632.174-1183.661c-.034.3-.046.58-.056.859q-.012.331-.015.663c0,.063-.02.093-.086.089s-.125,0-.188,0a.351.351,0,0,1-.373-.377,10.781,10.781,0,0,1,.181-2.064c.014-.076.039-.108.12-.1.1.006.2,0,.3.018a.628.628,0,0,1,.522.412c.147.375.3.749.419,1.17.108-.372.247-.7.376-1.023a1.794,1.794,0,0,1,.266-.493.2.2,0,0,1,.168-.083c.374,0,.566.174.614.595a16.243,16.243,0,0,1,.117,1.82c0,.1-.03.146-.133.131a.721.721,0,0,0-.1,0c-.348,0-.464-.113-.465-.465s-.023-.725-.048-1.094c-.053.039-.052.1-.068.144-.135.4-.235.817-.405,1.208-.034.078-.034.2-.153.205a.467.467,0,0,1-.448-.13,1.513,1.513,0,0,1-.253-.527C2632.371-1183.02,2632.292-1183.334,2632.174-1183.661Z" transform="translate(-4909.877)" fill="#80c241"/>
    <path id="Path_1133" data-name="Path 1133" d="M2543.006-1184.208c.263,0,.527,0,.79,0,.1,0,.138.021.136.13,0,.322-.143.465-.467.465-.263,0-.263,0-.263.258,0,.523,0,1.045,0,1.568,0,.09-.019.134-.117.123a1.534,1.534,0,0,0-.176,0,.343.343,0,0,1-.392-.392c0-.472,0-.945,0-1.417,0-.1-.018-.15-.135-.141-.158.012-.318,0-.477,0-.06,0-.083-.018-.079-.078a1.965,1.965,0,0,1,.01-.25.34.34,0,0,1,.349-.265C2542.462-1184.21,2542.734-1184.208,2543.006-1184.208Z" transform="translate(-4822.502 -0.377)" fill="#81c241"/>
    <path id="Path_1134" data-name="Path 1134" d="M298.43-1011.8a4.538,4.538,0,0,0-2.74-3.447,6.616,6.616,0,0,0-3.731-.484,5.566,5.566,0,0,0-2.952,1.371,6.5,6.5,0,0,0-1.858,2.866,8.125,8.125,0,0,0-.393,3.13,7.121,7.121,0,0,0,.406,1.988,5.68,5.68,0,0,0,1.675,2.452,6.252,6.252,0,0,0,3.95,1.414,9.378,9.378,0,0,0,1.586-.073,5.176,5.176,0,0,0,2.08-.666,2.536,2.536,0,0,0,1.289-2c.037-.408.006-.818.016-1.227,0-.046-.012-.069-.063-.068a.29.29,0,0,0-.166.039,4.039,4.039,0,0,1-1.391.539,11.007,11.007,0,0,1-2.525.213,4.361,4.361,0,0,1-1.244-.185,2.043,2.043,0,0,1-1.489-1.539c-.023-.094,0-.113.088-.113.447,0,.895,0,1.46,0a21.434,21.434,0,0,0,2.606-.111,6.436,6.436,0,0,0,2.006-.5,2.335,2.335,0,0,0,1.4-1.7A4.793,4.793,0,0,0,298.43-1011.8Zm-3.776.7a.607.607,0,0,1-.417.489,3.258,3.258,0,0,1-1,.2c-.463.041-.926.018-1.321.025h-1.084c-.049,0-.087,0-.077-.069a2.24,2.24,0,0,1,1.055-1.845,2.288,2.288,0,0,1,1.32-.253,1.839,1.839,0,0,1,1.007.334A1.156,1.156,0,0,1,294.654-1011.1Z" transform="translate(-2623.99 -164.55)" fill="#80c241"/>
    <path id="Path_1135" data-name="Path 1135" d="M-1562.071-1009.525a6.39,6.39,0,0,0-.365-2.059,4.362,4.362,0,0,0-2.991-2.8,7.336,7.336,0,0,0-2.234-.285,8.316,8.316,0,0,0-2.176.278,4.224,4.224,0,0,0-1.985,1.106,2.4,2.4,0,0,0-.709,1.533c-.036.542-.007,1.086-.014,1.629,0,.084.068.117.143.071a.469.469,0,0,0,.073-.068,4.141,4.141,0,0,1,2.292-1.163,10.449,10.449,0,0,1,2.082-.105,4.479,4.479,0,0,1,.976.132,1.047,1.047,0,0,1,.878,1c.015.179,0,.359.005.539,0,.084-.028.1-.108.105-.351,0-.7,0-1.052.009-.467.016-.932.045-1.395.106a7.1,7.1,0,0,0-2.415.7,3.331,3.331,0,0,0-1.659,1.827,4.427,4.427,0,0,0-.234,1.957,3.33,3.33,0,0,0,1.163,2.281,5.712,5.712,0,0,0,3.446,1.3,11.409,11.409,0,0,0,1.564-.009,8.555,8.555,0,0,0,1.92-.3,3.388,3.388,0,0,0,2.392-2.269,8.338,8.338,0,0,0,.39-2.383c.021-.572,0-1.144,0-1.717h.01C-1562.069-1008.589-1562.061-1009.057-1562.071-1009.525Zm-3.935,2.716c-.008.154,0,.309,0,.464a3.384,3.384,0,0,1-.076.956,1.211,1.211,0,0,1-1.147.916,2.648,2.648,0,0,1-1.119-.135.985.985,0,0,1-.679-.965,1.071,1.071,0,0,1,.85-1.177,3.677,3.677,0,0,1,.96-.151c.367-.012.734-.009,1.1-.018C-1566.03-1006.921-1566-1006.9-1566.006-1006.809Z" transform="translate(-810.933 -165.662)" fill="#00adee"/>
    <path id="Path_1136" data-name="Path 1136" d="M-211.125-1009.44a6.5,6.5,0,0,0-.327-2.028,4.366,4.366,0,0,0-3-2.905,7.37,7.37,0,0,0-2.257-.3,8.554,8.554,0,0,0-1.9.2,4.4,4.4,0,0,0-2.283,1.2,2.372,2.372,0,0,0-.691,1.476c-.042.559-.008,1.119-.015,1.679,0,.075.07.106.14.063a.494.494,0,0,0,.082-.077,4.146,4.146,0,0,1,2.417-1.179,10.818,10.818,0,0,1,1.934-.083,4.387,4.387,0,0,1,1,.136,1.037,1.037,0,0,1,.855.885c.029.208.009.417.019.626.005.106-.03.133-.133.131a17.154,17.154,0,0,0-2.212.089,7.317,7.317,0,0,0-2.647.733,3.351,3.351,0,0,0-1.537,1.572,4.27,4.27,0,0,0-.347,2.076,3.376,3.376,0,0,0,1.395,2.589,5.944,5.944,0,0,0,3.426,1.127,12.242,12.242,0,0,0,1.365-.019,8.6,8.6,0,0,0,1.981-.326,3.349,3.349,0,0,0,2.279-2.11,8.076,8.076,0,0,0,.443-2.575c.02-.563,0-1.128,0-1.692h.011C-211.124-1008.578-211.12-1009.009-211.125-1009.44Zm-3.937,2.617c0,.155,0,.309,0,.464a3.716,3.716,0,0,1-.069.933,1.213,1.213,0,0,1-1.155.955,2.694,2.694,0,0,1-1.132-.138.972.972,0,0,1-.661-.875,1.045,1.045,0,0,1,.588-1.162,2.378,2.378,0,0,1,.8-.218,13.554,13.554,0,0,1,1.538-.053C-215.074-1006.917-215.06-1006.889-215.062-1006.822Z" transform="translate(-2127.98 -165.664)" fill="#00adee"/>
    <path id="Path_1137" data-name="Path 1137" d="M833.1-1009.366a6.974,6.974,0,0,0-.255-1.852,4.415,4.415,0,0,0-3.317-3.216,8.029,8.029,0,0,0-2.507-.211,7.455,7.455,0,0,0-1.929.333,4,4,0,0,0-1.807,1.1,2.392,2.392,0,0,0-.657,1.657c0,.426,0,.853,0,1.279,0,.08-.058.2.037.236s.165-.071.233-.133a4.316,4.316,0,0,1,1.186-.8,5.954,5.954,0,0,1,2.123-.412,10.232,10.232,0,0,1,1.189.015,3.353,3.353,0,0,1,.955.178.988.988,0,0,1,.7.849c.025.2,0,.4.015.6.009.117-.03.148-.146.146a15.861,15.861,0,0,0-2.572.133,6.666,6.666,0,0,0-2.417.764,3.315,3.315,0,0,0-1.35,1.4,4.192,4.192,0,0,0-.375,2.318,3.418,3.418,0,0,0,1.682,2.646,6.219,6.219,0,0,0,3.208.917,13.482,13.482,0,0,0,1.476-.036,7.632,7.632,0,0,0,2-.383,3.31,3.31,0,0,0,2.1-2.117,8.571,8.571,0,0,0,.419-2.58c.02-.538,0-1.078,0-1.617h.01C833.105-1008.555,833.11-1008.96,833.1-1009.366Zm-3.946,2.576c-.007.167,0,.334,0,.531a3.971,3.971,0,0,1-.047.792,1.2,1.2,0,0,1-1.079.993,2.49,2.49,0,0,1-1.264-.145.954.954,0,0,1-.609-.765,1.264,1.264,0,0,1,.07-.747,1.094,1.094,0,0,1,.672-.578,3.437,3.437,0,0,1,1.066-.186c.358-.015.718-.006,1.077-.015C829.139-1006.911,829.163-1006.882,829.159-1006.79Z" transform="translate(-3146.007 -165.672)" fill="#80c241"/>
  </g>
</svg>
