<svg xmlns="http://www.w3.org/2000/svg" width="76.91" height="86" viewBox="0 0 76.91 86">
  <g id="parental" transform="translate(-36 -9.627)">
    <g id="Group_13241" data-name="Group 13241" transform="translate(36 9.627)">
      <path id="Path_1447" data-name="Path 1447" d="M109.436,159.507a13.079,13.079,0,0,0,13.041-13.041v-4.034H96.4v4.034A13.079,13.079,0,0,0,109.436,159.507Z" transform="translate(-85.838 -119.218)" fill="#ffb236"/>
      <path id="Path_1448" data-name="Path 1448" d="M73.715,242.117l-8.553-2H54.034l-8.553,2A12.278,12.278,0,0,0,36,254.072v14.467h9.209v17.287H73.986V273.553H83.2V254.072A12.278,12.278,0,0,0,73.715,242.117Z" transform="translate(-36 -199.826)" fill="#ffb0aa"/>
      <path id="Path_1449" data-name="Path 1449" d="M121.5,250.667a10.578,10.578,0,0,0,10.485-9.4l-4.922-1.152H115.935l-4.922,1.152A10.579,10.579,0,0,0,121.5,250.667Z" transform="translate(-97.901 -199.826)" fill="#ff7b7b"/>
      <path id="Path_1450" data-name="Path 1450" d="M139.524,211.132v-6.139H128.4v6.139l-2.282.534a7.864,7.864,0,0,0,15.691,0Z" transform="translate(-110.363 -170.844)" fill="#ffd3b3"/>
      <path id="Path_1451" data-name="Path 1451" d="M139.17,207.608a13.68,13.68,0,0,0,11.127,0v-2.615H139.17v2.615Z" transform="translate(-121.136 -170.844)" fill="#fcb98b"/>
      <g id="Group_13234" data-name="Group 13234" transform="translate(9.017 11.895)">
        <path id="Path_1452" data-name="Path 1452" d="M88.737,113.449h1.919V107.31H88.737a1.151,1.151,0,0,0-1.151,1.151V112.3A1.151,1.151,0,0,0,88.737,113.449Z" transform="translate(-87.586 -102.13)" fill="#ffd3b3"/>
        <path id="Path_1453" data-name="Path 1453" d="M238.772,107.31h-1.919v6.139h1.919a1.151,1.151,0,0,0,1.151-1.151v-3.837A1.151,1.151,0,0,0,238.772,107.31Z" transform="translate(-210.762 -102.13)" fill="#ffd3b3"/>
        <path id="Path_1454" data-name="Path 1454" d="M105.146,77.676V89.954a11.511,11.511,0,1,0,23.022,0V77.676Z" transform="translate(-102.077 -77.676)" fill="#ffd3b3"/>
      </g>
      <path id="Path_1455" data-name="Path 1455" d="M109.435,9.627a13.079,13.079,0,0,1,13.041,13.041V26.7h-1.53v6.139l-1.869-6.166c-7.065-.2-12.971-1.61-15.973-5.153a8.657,8.657,0,0,1-3.283,4.492l-1.9,6.827V26.7h-1.53V22.668A13.079,13.079,0,0,1,109.435,9.627Z" transform="translate(-85.837 -9.627)" fill="#ffb236"/>
      <g id="Group_13238" data-name="Group 13238" transform="translate(15.382 45.447)">
        <path id="Path_1456" data-name="Path 1456" d="M160.264,273.917a14.748,14.748,0,0,0-20.8,0L128.29,285.095a14.705,14.705,0,0,0,20.8,20.8l11.178-11.178A14.749,14.749,0,0,0,160.264,273.917Z" transform="translate(-124.001 -269.627)" fill="#6e83b7"/>
        <g id="Group_13235" data-name="Group 13235" transform="translate(11.891 13.582)">
          <path id="Path_1457" data-name="Path 1457" d="M207.105,357.08l-3.307,3.307a6.893,6.893,0,1,1-9.748-9.748l3.307-3.307Z" transform="translate(-192.025 -347.332)" fill="#ffd3b3"/>
          <path id="Path_1458" data-name="Path 1458" d="M225.627,357.081l-1.408,1.408a10.29,10.29,0,0,1-9.748-9.748l1.408-1.408Z" transform="translate(-210.548 -347.333)" fill="#fcb98b"/>
        </g>
        <g id="Group_13236" data-name="Group 13236" transform="translate(17.862 3.5)">
          <path id="Path_1459" data-name="Path 1459" d="M313.782,380.1l-.91-.91,2.859-2.859.91.91a.919.919,0,0,1,0,1.3l-1.56,1.56A.919.919,0,0,1,313.782,380.1Z" transform="translate(-297.72 -361.181)" fill="#fcb98b"/>
          <path id="Path_1460" data-name="Path 1460" d="M226.46,292.78l.91.91,2.859-2.86-.91-.91a.919.919,0,0,0-1.3,0l-1.56,1.56A.919.919,0,0,0,226.46,292.78Z" transform="translate(-226.19 -289.651)" fill="#fcb98b"/>
        </g>
        <circle id="Ellipse_87" data-name="Ellipse 87" cx="10.386" cy="10.386" r="10.386" transform="translate(17.072 2.71)" fill="#ffd3b3"/>
        <path id="Path_1461" data-name="Path 1461" d="M312.014,297.057a10.449,10.449,0,0,0-1.379-1.16,6.08,6.08,0,0,0-.857,2.094,5.663,5.663,0,0,0,.009,2.282,5.214,5.214,0,0,0,.841,1.933,4.7,4.7,0,0,0,1.418,1.317,4.224,4.224,0,0,1-.568-1.666,3.816,3.816,0,0,1,.147-1.583,3.316,3.316,0,0,1,.7-1.234,2.853,2.853,0,0,1,.828-.629A10.465,10.465,0,0,0,312.014,297.057Z" transform="translate(-277.213 -291.305)" fill="#ffb236"/>
        <g id="Group_13237" data-name="Group 13237" transform="translate(0.001 2.745)">
          <path id="Path_1462" data-name="Path 1462" d="M243.419,402.73a14.646,14.646,0,0,1-1.544,1.82L230.7,415.728a14.6,14.6,0,0,1-7.8,4.06V402.73Z" transform="translate(-205.612 -382.209)" fill="#46bee8"/>
          <path id="Path_1463" data-name="Path 1463" d="M141.291,285.331v37.578a14.705,14.705,0,0,1-13-24.856l11.178-11.178a14.658,14.658,0,0,1,1.82-1.544Z" transform="translate(-124.004 -285.331)" fill="#80d6fb"/>
        </g>
      </g>
      <path id="Path_1464" data-name="Path 1464" d="M56.976,396.526H41.244A5.244,5.244,0,0,1,36,391.282v-3.965H56.976Z" transform="translate(-36 -321.298)" fill="#ffb0aa"/>
      <g id="Group_13239" data-name="Group 13239" transform="translate(8.335 56.02)">
        <path id="Path_1465" data-name="Path 1465" d="M96.324,340.988H83.683V330.115h1.748v9.125H96.324Z" transform="translate(-83.683 -330.115)" fill="#ff7b7b"/>
      </g>
      <g id="Group_13240" data-name="Group 13240" transform="translate(9.209 74.354)">
        <path id="Path_1466" data-name="Path 1466" d="M88.683,435H100.45v1.748H88.683Z" transform="translate(-88.683 -435)" fill="#ff7b7b"/>
      </g>
      <path id="Path_1467" data-name="Path 1467" d="M158.856,396.526H156v-9.209h2.856a4.6,4.6,0,0,1,0,9.209Z" transform="translate(-135.024 -321.298)" fill="#ffd3b3"/>
      <path id="Path_1468" data-name="Path 1468" d="M255.044,427.78l-1.568,1.568a4.6,4.6,0,1,0,6.512,6.512l1.568-1.568a4.6,4.6,0,1,0-6.512-6.512Z" transform="translate(-214.349 -353.576)" fill="#ffd3b3"/>
    </g>
    <g id="Group_13247" data-name="Group 13247" transform="translate(77.951 9.692)">
      <path id="Path_1469" data-name="Path 1469" d="M276,66h34.959V89.073H276Z" transform="translate(-276 -56.211)" fill="#edeff1"/>
      <path id="Path_1470" data-name="Path 1470" d="M276,26h34.959v6.992H276Z" transform="translate(-276 -23.203)" fill="#6e83b7"/>
      <g id="Group_13242" data-name="Group 13242" transform="translate(2.622)">
        <path id="Path_1471" data-name="Path 1471" d="M291,10h3.5v5.593H291Z" transform="translate(-291 -10)" fill="#edeff1"/>
      </g>
      <g id="Group_13243" data-name="Group 13243" transform="translate(11.362)">
        <path id="Path_1472" data-name="Path 1472" d="M341,10h3.5v5.593H341Z" transform="translate(-341 -10)" fill="#edeff1"/>
      </g>
      <g id="Group_13244" data-name="Group 13244" transform="translate(28.841)">
        <path id="Path_1473" data-name="Path 1473" d="M441,10h3.5v5.593H441Z" transform="translate(-441 -10)" fill="#edeff1"/>
      </g>
      <g id="Group_13245" data-name="Group 13245" transform="translate(20.102)">
        <path id="Path_1474" data-name="Path 1474" d="M391,10h3.5v5.593H391Z" transform="translate(-391 -10)" fill="#edeff1"/>
      </g>
      <path id="Path_1475" data-name="Path 1475" d="M296,86h4.2v4.2H296Z" transform="translate(-292.504 -72.715)" fill="#d3d3d3"/>
      <path id="Path_1476" data-name="Path 1476" d="M330,86h4.2v4.2H330Z" transform="translate(-320.561 -72.715)" fill="#d3d3d3"/>
      <g id="Group_13246" data-name="Group 13246" transform="translate(3.496 13.285)">
        <path id="Path_1477" data-name="Path 1477" d="M364,86h4.2v4.2H364Z" transform="translate(-352.114 -86)" fill="#ffb0aa"/>
        <path id="Path_1478" data-name="Path 1478" d="M398,86h4.2v4.2H398Z" transform="translate(-380.171 -86)" fill="#ffb0aa"/>
        <path id="Path_1479" data-name="Path 1479" d="M432,86h4.2v4.2H432Z" transform="translate(-408.228 -86)" fill="#ffb0aa"/>
        <path id="Path_1480" data-name="Path 1480" d="M296,120h4.2v4.2H296Z" transform="translate(-296 -114.057)" fill="#ffb0aa"/>
        <path id="Path_1481" data-name="Path 1481" d="M330,120h4.2v4.2H330Z" transform="translate(-324.057 -114.057)" fill="#ffb0aa"/>
        <path id="Path_1482" data-name="Path 1482" d="M364,120h4.2v4.2H364Z" transform="translate(-352.114 -114.057)" fill="#ffb0aa"/>
        <path id="Path_1483" data-name="Path 1483" d="M398,120h4.2v4.2H398Z" transform="translate(-380.171 -114.057)" fill="#ffb0aa"/>
        <path id="Path_1484" data-name="Path 1484" d="M432,120h4.2v4.2H432Z" transform="translate(-408.228 -114.057)" fill="#ffb0aa"/>
        <path id="Path_1485" data-name="Path 1485" d="M296,154h4.2v4.2H296Z" transform="translate(-296 -142.114)" fill="#ffb0aa"/>
        <path id="Path_1486" data-name="Path 1486" d="M330,154h4.2v4.2H330Z" transform="translate(-324.057 -142.114)" fill="#ffb0aa"/>
      </g>
      <path id="Path_1487" data-name="Path 1487" d="M364,154h4.2v4.2H364Z" transform="translate(-348.618 -128.829)" fill="#d3d3d3"/>
      <path id="Path_1488" data-name="Path 1488" d="M398,154h4.2v4.2H398Z" transform="translate(-376.675 -128.829)" fill="#d3d3d3"/>
      <path id="Path_1489" data-name="Path 1489" d="M432,154h4.2v4.2H432Z" transform="translate(-404.732 -128.829)" fill="#d3d3d3"/>
    </g>
  </g>
</svg>
