<svg xmlns="http://www.w3.org/2000/svg" width="52" height="41.601" viewBox="0 0 52 41.601">
  <g id="card" transform="translate(-16 -64.021)">
    <path id="Path_24048" data-name="Path 24048" d="M64.867,345.733H89.136a.867.867,0,1,0,0-1.733H64.867a.867.867,0,1,0,0,1.733Z" transform="translate(-42.8 -249.645)"/>
    <path id="Path_24049" data-name="Path 24049" d="M64.867,385.733H89.136a.867.867,0,1,0,0-1.733H64.867a.867.867,0,1,0,0,1.733Z" transform="translate(-42.8 -285.311)"/>
    <path id="Path_24050" data-name="Path 24050" d="M64.867,214.934h20.8a.867.867,0,0,0,.867-.867v-5.2a.867.867,0,0,0-.867-.867h-20.8a.867.867,0,0,0-.867.867v5.2A.867.867,0,0,0,64.867,214.934Zm.867-5.2H84.8V213.2H65.733Z" transform="translate(-42.8 -128.38)"/>
    <path id="Path_24051" data-name="Path 24051" d="M64.867,305.733H71.8a.867.867,0,1,0,0-1.733H64.867a.867.867,0,1,0,0,1.733Z" transform="translate(-42.8 -213.979)"/>
    <path id="Path_24052" data-name="Path 24052" d="M160.867,304a.867.867,0,0,0,0,1.733h5.2a.867.867,0,0,0,0-1.733Z" transform="translate(-128.399 -213.979)"/>
    <path id="Path_24053" data-name="Path 24053" d="M339.467,342.934A3.467,3.467,0,1,0,336,339.467,3.467,3.467,0,0,0,339.467,342.934Zm0-5.2a1.733,1.733,0,1,1-1.733,1.733A1.734,1.734,0,0,1,339.467,337.733Z" transform="translate(-285.33 -242.512)"/>
    <path id="Path_24054" data-name="Path 24054" d="M309.27,117.05a14.977,14.977,0,0,0,3.691,2.6.867.867,0,0,0,.768,0,14.757,14.757,0,0,0,8.212-12.4.867.867,0,0,0-.409-.817c-1.867-1.15-4.983-3.064-7.72-4.743a.867.867,0,0,0-.908,0l-7.715,4.749a.867.867,0,0,0-.409.818A15.065,15.065,0,0,0,309.27,117.05Zm4.09-13.6c2.4,1.473,5.019,3.082,6.8,4.177a12.967,12.967,0,0,1-6.811,10.274,12.959,12.959,0,0,1-6.781-10.268Z" transform="translate(-257.491 -33.473)"/>
    <path id="Path_24055" data-name="Path 24055" d="M354.6,166.067a.864.864,0,0,0,.613-.254l4.334-4.334a.867.867,0,1,0-1.226-1.226l-3.721,3.721-1.121-1.121a.867.867,0,1,0-1.226,1.226l1.733,1.733A.864.864,0,0,0,354.6,166.067Z" transform="translate(-299.597 -85.58)"/>
    <path id="Path_24056" data-name="Path 24056" d="M20.334,105.623H58.47a4.339,4.339,0,0,0,4.334-4.334V85.631c2.516-2.6,5.2-6.98,5.2-13.812a.867.867,0,0,0-.412-.738L56.325,64.147a.889.889,0,0,0-.913,0L44.148,71.081a.867.867,0,0,0-.412.738,24.369,24.369,0,0,0,.137,2.6H20.334A4.339,4.339,0,0,0,16,78.754v22.535a4.339,4.339,0,0,0,4.334,4.334ZM55.868,65.9l10.394,6.4c-.1,5.248-1.879,9.518-5.285,12.7a16.176,16.176,0,0,1-5.11,3.243,16.033,16.033,0,0,1-5.051-3.191c-3.444-3.184-5.239-7.472-5.342-12.75ZM17.733,78.754a2.6,2.6,0,0,1,2.6-2.6H44.128a18.2,18.2,0,0,0,5.51,10.17A17.114,17.114,0,0,0,55.6,89.983a.866.866,0,0,0,.256.039h.031a.867.867,0,0,0,.256-.039A16.57,16.57,0,0,0,61.071,87.2v14.085a2.6,2.6,0,0,1-2.6,2.6H20.334a2.6,2.6,0,0,1-2.6-2.6Z"/>
  </g>
</svg>
