<svg xmlns="http://www.w3.org/2000/svg" xmlns:xlink="http://www.w3.org/1999/xlink" width="262" height="262" viewBox="0 0 262 262">
  <defs>
    <clipPath id="clip-path">
      <rect id="Rectangle_112" data-name="Rectangle 112" width="153.989" height="245.805" fill="none"/>
    </clipPath>
    <clipPath id="clip-path-3">
      <rect id="Rectangle_110" data-name="Rectangle 110" width="125.594" height="74.651" fill="none"/>
    </clipPath>
  </defs>
  <g id="Group_225" data-name="Group 225" transform="translate(-62 -1007)">
    <circle id="Ellipse_57" data-name="Ellipse 57" cx="131" cy="131" r="131" transform="translate(62 1007)" fill="#0b2e9f" opacity="0.688"/>
    <circle id="Ellipse_58" data-name="Ellipse 58" cx="114" cy="114" r="114" transform="translate(79 1024)" fill="#0047bb"/>
    <g id="Group_210" data-name="Group 210" transform="translate(111.669 1015.089)">
      <g id="Group_122" data-name="Group 122" clip-path="url(#clip-path)">
        <g id="Group_121" data-name="Group 121">
          <g id="Group_120" data-name="Group 120" clip-path="url(#clip-path)">
            <g id="Group_119" data-name="Group 119" transform="translate(0 171.154)" opacity="0.5">
              <g id="Group_118" data-name="Group 118">
                <g id="Group_117" data-name="Group 117" clip-path="url(#clip-path-3)">
                  <path id="Path_176" data-name="Path 176" d="M68.493,260.4a12.84,12.84,0,0,0,6.409-1.545l77.832-44.292a6.781,6.781,0,0,0,3.677-5.857c0-2.6-1.613-5.025-4.427-6.649l-25.467-14.329a15.772,15.772,0,0,0-7.782-1.978,12.84,12.84,0,0,0-6.409,1.544L34.492,231.585a6.782,6.782,0,0,0-3.677,5.858c0,2.6,1.614,5.024,4.428,6.649l25.467,14.329a15.778,15.778,0,0,0,7.782,1.978" transform="translate(-30.816 -185.748)" fill="#debceb"/>
                </g>
              </g>
            </g>
            <path id="Path_177" data-name="Path 177" d="M45.489,240.14l67.577-39.016c7.623-4.4,13.8-16.208,13.8-26.371V11.883c0-5.169,4.25-6.311,1.676-8.169-.1-.07-6.034-2.766-6.145-2.809a9.965,9.965,0,0,0-9.333.544L45.489,40.465c-7.623,4.4-13.8,16.208-13.8,26.371v162.87c0,5.4,1.744,9.25,4.523,11.012.165.105,7.315,3.505,7.5,3.566,2.463.821-1.553-2.22,1.78-4.144" transform="translate(-4.58 0)" fill="#ada2e5"/>
            <path id="Path_178" data-name="Path 178" d="M41.2,243.432l67.577-39.015c7.623-4.4,13.8-16.209,13.8-26.372V15.175c0-10.163-6.179-14.835-13.8-10.434L41.2,43.757c-7.623,4.4-13.8,16.208-13.8,26.371V233c0,10.163,6.179,14.835,13.8,10.434" transform="translate(6.157 -0.242)" fill="#e0dcff"/>
            <path id="Path_179" data-name="Path 179" d="M120.861,179.453V16.362c0-8.91-5.418-13.005-12.1-9.147L41.543,46.024c-6.682,3.858-12.1,14.208-12.1,23.118V232.233c0,8.91,5.417,13.005,12.1,9.147l67.218-38.809c6.682-3.858,12.1-14.208,12.1-23.118" transform="translate(5.997 -0.453)" fill="#bebef4"/>
            <path id="Path_180" data-name="Path 180" d="M118.4,181.551V27.4c0-7.457-4.535-10.886-10.128-7.656L42.489,57.721C36.9,60.951,32.362,69.614,32.362,77.072V231.227c0,7.458,4.533,10.886,10.127,7.656L108.273,200.9c5.593-3.23,10.128-11.893,10.128-19.351" transform="translate(5.768 -1.455)" fill="#7b65ab"/>
            <path id="Path_181" data-name="Path 181" d="M42.755,74.953l60.313-35.319a6.8,6.8,0,0,0,3.207-5.178V33.063c0-1.823-1.436-2.459-3.207-1.423L42.755,66.96a6.8,6.8,0,0,0-3.206,5.178V73.53c0,1.823,1.435,2.459,3.206,1.423" transform="translate(11.273 -2.447)" fill="#6a3786"/>
            <path id="Path_182" data-name="Path 182" d="M42.755,88.755l60.313-35.319a6.8,6.8,0,0,0,3.207-5.178V46.866c0-1.824-1.436-2.46-3.207-1.424L42.755,80.762a6.8,6.8,0,0,0-3.206,5.178v1.392c0,1.823,1.435,2.459,3.206,1.423" transform="translate(11.273 -3.531)" fill="#6a3786"/>
            <path id="Path_183" data-name="Path 183" d="M42.757,88.235,77.942,67.283a6.8,6.8,0,0,0,3.207-5.178V60.714c0-1.824-1.436-2.46-3.207-1.423L42.757,80.242A6.8,6.8,0,0,0,39.55,85.42v1.392c0,1.823,1.436,2.459,3.207,1.423" transform="translate(36.398 -4.619)" fill="#6a3786"/>
            <path id="Path_184" data-name="Path 184" d="M41.194,211.567l60.313-35.319a6.8,6.8,0,0,0,3.207-5.178v-1.392c0-1.823-1.436-2.459-3.207-1.423L41.194,203.574a6.8,6.8,0,0,0-3.206,5.177v1.392c0,1.823,1.435,2.459,3.206,1.423" transform="translate(14.272 -13.18)" fill="#6a3786"/>
            <path id="Path_185" data-name="Path 185" d="M41.194,225.369l60.313-35.319a6.8,6.8,0,0,0,3.207-5.178v-1.392c0-1.823-1.436-2.459-3.207-1.423L41.194,217.376a6.8,6.8,0,0,0-3.206,5.178v1.392c0,1.823,1.435,2.459,3.206,1.423" transform="translate(14.272 -14.265)" fill="#6a3786"/>
            <path id="Path_186" data-name="Path 186" d="M41.194,224.849,76.379,203.9a6.8,6.8,0,0,0,3.207-5.178v-1.391c0-1.824-1.436-2.46-3.207-1.423L41.194,216.856a6.8,6.8,0,0,0-3.206,5.178v1.392c0,1.823,1.435,2.459,3.206,1.423" transform="translate(39.4 -15.353)" fill="#6a3786"/>
            <path id="Path_187" data-name="Path 187" d="M41.126,143.106l64.357-38.865.233-29.2-65.5,39.619Z" transform="translate(11.218 -5.896)" fill="#6a3786"/>
            <path id="Path_188" data-name="Path 188" d="M0,170.839,46.85,143.79V83.455L0,110.5Z" transform="translate(107.139 -6.557)" fill="#dad7f7"/>
            <path id="Path_189" data-name="Path 189" d="M8.992,118.225a29.752,29.752,0,0,1,8.456-8.355c0,.047-.009.1-.009.142,0,2.483,2.867,2.841,6.4.8s6.4-5.711,6.4-8.194c0-.046-.007-.086-.009-.131,2.093-1.12,5.609-2.352,8.456-1.41,3.033,1,3.665,13.113,3.665,13.113l-6,5.595V144.2L11.331,158.646V134.233l-6,1.337s.632-12.838,3.665-17.345" transform="translate(106.72 -7.915)" fill="#6a3786"/>
            <path id="Path_190" data-name="Path 190" d="M115.421,236.255l46.849-27.049V148.871l-46.849,27.05Z" transform="translate(-114.634 -11.696)" fill="#dad7f7"/>
            <path id="Path_191" data-name="Path 191" d="M124.412,183.641a29.752,29.752,0,0,1,8.456-8.355c0,.047-.009.1-.009.142,0,2.483,2.868,2.841,6.4.8s6.4-5.711,6.4-8.194c0-.046-.007-.086-.009-.131,2.093-1.12,5.609-2.352,8.456-1.41,3.033,1,3.665,13.113,3.665,13.113l-6,5.595v24.412l-25.025,14.449V199.649l-6,1.337s.632-12.838,3.665-17.345" transform="translate(-115.052 -13.054)" fill="#6a3786"/>
            <path id="Path_192" data-name="Path 192" d="M56.333,203.137l46.85-27.049V115.753L56.333,142.8Z" transform="translate(-1.1 -9.094)" fill="#b3267c"/>
            <path id="Path_193" data-name="Path 193" d="M65.325,150.522a29.752,29.752,0,0,1,8.456-8.355c0,.047-.009.1-.009.142,0,2.483,2.867,2.841,6.4.8s6.4-5.711,6.4-8.194c0-.046-.007-.086-.009-.131,2.093-1.12,5.609-2.352,8.456-1.41,3.033,1,3.665,13.113,3.665,13.113l-6,5.595v24.412L67.664,190.943V166.53l-6,1.337s.632-12.838,3.665-17.345" transform="translate(-1.52 -10.452)" fill="#fff"/>
            <path id="Path_194" data-name="Path 194" d="M121.4,151.645l12.217-9.054,3.378,1.927-1.747,15.023-20.5,35.361-13.848-7.9Zm8.146,1.84c.825.47,2.163-.3,2.987-1.725s.825-2.957,0-3.427-2.163.3-2.987,1.724-.825,2.957,0,3.428" transform="translate(-75.974 -11.203)" fill="#c39bd1"/>
            <path id="Path_195" data-name="Path 195" d="M124.584,175.833a4.254,4.254,0,0,0,1.579-1.587q.206-.328.524-.878.343-.59.536-.951a4.581,4.581,0,0,0,.639-2.2,1.55,1.55,0,0,0-.81-1.4,1.592,1.592,0,0,0-1.636.009,4.581,4.581,0,0,0-1.6,1.651q-.433.7-.569.932-.126.217-.491.9a4.2,4.2,0,0,0-.587,2.152,1.582,1.582,0,0,0,.815,1.381,1.6,1.6,0,0,0,1.6,0m-4.4,7.371a.619.619,0,0,0,.234-.246.591.591,0,0,0,.079-.243l1.791-15.991a1.326,1.326,0,0,0-.006-.383.331.331,0,0,0-.176-.219l-.605-.345a.228.228,0,0,0-.239.007.67.67,0,0,0-.229.25.611.611,0,0,0-.08.243l-1.79,15.991a1.358,1.358,0,0,0,.006.383.313.313,0,0,0,.165.212l.6.345a.239.239,0,0,0,.245,0m3.364-9.455a2.8,2.8,0,0,1,.3-.953q.365-.681.456-.839.126-.216.49-.793a2.672,2.672,0,0,1,.679-.752.606.606,0,0,1,.69-.064.585.585,0,0,1,.279.617,2.621,2.621,0,0,1-.314.96q-.159.3-.455.813-.286.492-.491.82a2.668,2.668,0,0,1-.661.734.592.592,0,0,1-.685.069.582.582,0,0,1-.291-.612M116,180.165a4.5,4.5,0,0,0,1.608-1.635q.2-.328.524-.879c.221-.381.4-.69.525-.931a4.571,4.571,0,0,0,.639-2.2,1.552,1.552,0,0,0-.81-1.4,1.589,1.589,0,0,0-1.643.006,4.637,4.637,0,0,0-1.6,1.655q-.434.7-.559.911t-.489.9a4.445,4.445,0,0,0-.616,2.2,1.567,1.567,0,0,0,.8,1.411,1.583,1.583,0,0,0,1.62-.032m-1.026-2.129a2.694,2.694,0,0,1,.308-.937q.365-.681.468-.858.113-.2.478-.774a2.672,2.672,0,0,1,.679-.752.605.605,0,0,1,.69-.065.586.586,0,0,1,.279.617,2.638,2.638,0,0,1-.314.96q-.159.3-.445.793c-.2.341-.365.62-.5.839a2.7,2.7,0,0,1-.662.735.6.6,0,0,1-.981-.559" transform="translate(-78.533 -13.022)" fill="#fff"/>
            <path id="Path_196" data-name="Path 196" d="M101.269,151.38c2.079,0,4.572-1.794,6.263-4.71a9.334,9.334,0,0,0,1.359-6.745,3.375,3.375,0,0,0-1.536-2.136c-2.243-1.278-5.676.616-7.818,4.313a12.04,12.04,0,0,0-1.228,2.919.481.481,0,1,0,.929.247,11.047,11.047,0,0,1,1.131-2.684c1.813-3.126,4.8-4.942,6.511-3.959a2.438,2.438,0,0,1,1.085,1.551,8.509,8.509,0,0,1-1.263,6.011c-1.812,3.127-4.8,4.941-6.51,3.96a1.989,1.989,0,0,1-.524-.434.48.48,0,1,0-.726.629,2.948,2.948,0,0,0,.775.639,3.1,3.1,0,0,0,1.554.4" transform="translate(-45.665 -10.794)" fill="#372f6b"/>
          </g>
        </g>
      </g>
    </g>
  </g>
</svg>
