<svg xmlns="http://www.w3.org/2000/svg" width="1372.526" height="330.668" viewBox="0 0 1372.526 330.668">
  <path id="ecommerce-bg" d="M1366,215.845l-45.533-30.356c-45.533-30.356-136.6-91.067-227.667-111.272-91.067-20.585-182.133.285-273.2,5.028S637.467,74.5,546.4,94.423s-182.133,71.146-273.2,75.889-182.133-35.1-227.667-55.683L0,94.423V382.957l60.365-9.616c45.533,0,121.769,9.616,212.835,9.616s182.133,13.015,273.2,13.015,189.153-22.63,280.22-22.63,175.114,9.616,266.18,9.616c87.06,0,232.189-32.444,279.726-32.444Z" transform="translate(0 -65.303)" fill="#f5f8fd" style="mix-blend-mode: darken;isolation: isolate"/>
</svg>
