<svg xmlns="http://www.w3.org/2000/svg" width="52" height="37.267" viewBox="0 0 52 37.267">
  <g id="truck_1_" data-name="truck (1)" transform="translate(0 -72.533)">
    <g id="Group_14177" data-name="Group 14177" transform="translate(6.933 99.4)">
      <g id="Group_14176" data-name="Group 14176" transform="translate(0 0)">
        <path id="Path_24043" data-name="Path 24043" d="M73.467,337.067a5.2,5.2,0,1,0,5.2,5.2A5.205,5.205,0,0,0,73.467,337.067Zm0,8.667a3.467,3.467,0,1,1,3.467-3.467A3.47,3.47,0,0,1,73.467,345.734Z" transform="translate(-68.267 -337.067)"/>
      </g>
    </g>
    <g id="Group_14179" data-name="Group 14179" transform="translate(36.4 99.4)">
      <g id="Group_14178" data-name="Group 14178" transform="translate(0 0)">
        <path id="Path_24044" data-name="Path 24044" d="M363.6,337.067a5.2,5.2,0,1,0,5.2,5.2A5.205,5.205,0,0,0,363.6,337.067Zm0,8.667a3.467,3.467,0,1,1,3.467-3.467A3.47,3.47,0,0,1,363.6,345.734Z" transform="translate(-358.4 -337.067)"/>
      </g>
    </g>
    <g id="Group_14181" data-name="Group 14181" transform="translate(32.933 82.066)">
      <g id="Group_14180" data-name="Group 14180" transform="translate(0 0)">
        <path id="Path_24045" data-name="Path 24045" d="M343.2,178.931,335.4,166.8a.867.867,0,0,0-.729-.4h-9.533a.866.866,0,0,0-.867.867v21.667a.866.866,0,0,0,.867.867H328.6v-1.733H326V168.133h8.193l7.407,11.521v8.412h-4.333V189.8h5.2a.866.866,0,0,0,.867-.867V179.4A.865.865,0,0,0,343.2,178.931Z" transform="translate(-324.267 -166.4)"/>
      </g>
    </g>
    <g id="Group_14183" data-name="Group 14183" transform="translate(36.4 85.533)">
      <g id="Group_14182" data-name="Group 14182">
        <path id="Path_24046" data-name="Path 24046" d="M360.134,208.333v-6.067h6.933v-1.733h-7.8a.866.866,0,0,0-.867.867v7.8a.866.866,0,0,0,.867.867h13v-1.733H360.134Z" transform="translate(-358.401 -200.533)"/>
      </g>
    </g>
    <g id="Group_14185" data-name="Group 14185" transform="translate(0 76)">
      <g id="Group_14184" data-name="Group 14184" transform="translate(0 0)">
        <path id="Path_24047" data-name="Path 24047" d="M33.8,106.667H.867a.867.867,0,0,0-.867.867v27.733a.866.866,0,0,0,.867.867H7.8V134.4H1.733v-26h31.2v26H16.467v1.733H33.8a.866.866,0,0,0,.867-.867V107.534A.866.866,0,0,0,33.8,106.667Z" transform="translate(0 -106.667)"/>
      </g>
    </g>
    <g id="Group_14187" data-name="Group 14187" transform="translate(0.867 100.266)">
      <g id="Group_14186" data-name="Group 14186" transform="translate(0 0)">
        <rect id="Rectangle_8489" data-name="Rectangle 8489" width="5.2" height="1.733"/>
      </g>
    </g>
    <g id="Group_14189" data-name="Group 14189" transform="translate(18.2 100.266)">
      <g id="Group_14188" data-name="Group 14188" transform="translate(0 0)">
        <rect id="Rectangle_8490" data-name="Rectangle 8490" width="14.733" height="1.733"/>
      </g>
    </g>
    <g id="Group_14191" data-name="Group 14191" transform="translate(47.667 100.266)">
      <g id="Group_14190" data-name="Group 14190" transform="translate(0 0)">
        <rect id="Rectangle_8491" data-name="Rectangle 8491" width="3.467" height="1.733"/>
      </g>
    </g>
    <g id="Group_14193" data-name="Group 14193" transform="translate(3.467 79.466)">
      <g id="Group_14192" data-name="Group 14192" transform="translate(0 0)">
        <rect id="Rectangle_8492" data-name="Rectangle 8492" width="30.333" height="1.733"/>
      </g>
    </g>
    <g id="Group_14195" data-name="Group 14195" transform="translate(11.267 103.733)">
      <g id="Group_14194" data-name="Group 14194" transform="translate(0 0)">
        <rect id="Rectangle_8493" data-name="Rectangle 8493" width="1.733" height="1.733"/>
      </g>
    </g>
    <g id="Group_14197" data-name="Group 14197" transform="translate(40.733 103.733)">
      <g id="Group_14196" data-name="Group 14196" transform="translate(0 0)">
        <rect id="Rectangle_8494" data-name="Rectangle 8494" width="1.733" height="1.733"/>
      </g>
    </g>
    <g id="Group_14199" data-name="Group 14199" transform="translate(3.467 72.533)">
      <g id="Group_14198" data-name="Group 14198" transform="translate(0 0)">
        <rect id="Rectangle_8495" data-name="Rectangle 8495" width="12.133" height="1.733"/>
      </g>
    </g>
    <g id="Group_14201" data-name="Group 14201" transform="translate(0 72.533)">
      <g id="Group_14200" data-name="Group 14200" transform="translate(0 0)">
        <rect id="Rectangle_8496" data-name="Rectangle 8496" width="1.733" height="1.733"/>
      </g>
    </g>
  </g>
</svg>
