<svg xmlns="http://www.w3.org/2000/svg" width="86" height="86" viewBox="0 0 86 86">
  <g id="work-life" transform="translate(0 0)">
    <rect id="Rectangle_8090" data-name="Rectangle 8090" width="86" height="86" fill="#fff"/>
    <g id="work-life-2" data-name="work-life" transform="translate(-17.08 -7.837)">
      <path id="Path_1575" data-name="Path 1575" d="M208.276,20.226l-16.95,16.946a11.984,11.984,0,1,1,16.95-16.946Z" transform="translate(-139.5 -7.339)" fill="#ffcd2c"/>
      <path id="Path_1576" data-name="Path 1576" d="M228.561,45.478a11.984,11.984,0,0,1-20.491,8.445l16.95-16.946a11.951,11.951,0,0,1,3.542,8.5Z" transform="translate(-156.243 -24.091)" fill="#ffebab"/>
      <path id="Path_1577" data-name="Path 1577" d="M93.648,72.847A3.789,3.789,0,0,0,91.4,75.1a.538.538,0,0,1-.992,0,3.789,3.789,0,0,0-2.253-2.253.538.538,0,0,1,0-.992A3.79,3.79,0,0,0,90.4,69.6a.538.538,0,0,1,.992,0,3.79,3.79,0,0,0,2.253,2.253.538.538,0,0,1,0,.992Z" transform="translate(-56.828 -50.789)" fill="#1a92ea"/>
      <path id="Path_1578" data-name="Path 1578" d="M397.382,72.847a3.79,3.79,0,0,0-2.253,2.253.538.538,0,0,1-.992,0,3.789,3.789,0,0,0-2.253-2.253.538.538,0,0,1,0-.992,3.789,3.789,0,0,0,2.253-2.253.538.538,0,0,1,.992,0,3.79,3.79,0,0,0,2.253,2.253.538.538,0,0,1,0,.992Z" transform="translate(-307.933 -50.789)" fill="#1a92ea"/>
      <g id="Group_13266" data-name="Group 13266" transform="translate(20.367 10.914)">
        <path id="Path_1579" data-name="Path 1579" d="M253.3,29.125a.78.78,0,0,1-.78-.78V26.372a.78.78,0,1,1,1.559,0v1.973A.78.78,0,0,1,253.3,29.125Z" transform="translate(-213.355 -25.592)" fill="#ff4b7c"/>
        <path id="Path_1580" data-name="Path 1580" d="M284.833,44.851a.78.78,0,0,1-.551-1.331l1.4-1.4a.78.78,0,1,1,1.1,1.1l-1.4,1.4a.777.777,0,0,1-.551.228Z" transform="translate(-239.427 -39.071)" fill="#ff4b7c"/>
        <path id="Path_1581" data-name="Path 1581" d="M299.936,82.978h-1.973a.78.78,0,0,1,0-1.559h1.973a.78.78,0,1,1,0,1.559Z" transform="translate(-250.282 -71.745)" fill="#ff4b7c"/>
        <path id="Path_1582" data-name="Path 1582" d="M286.389,115.91a.777.777,0,0,1-.551-.228l-1.4-1.4a.78.78,0,1,1,1.1-1.1l1.4,1.4a.78.78,0,0,1-.551,1.331Z" transform="translate(-239.56 -97.818)" fill="#ff4b7c"/>
        <path id="Path_1583" data-name="Path 1583" d="M253.524,129.617a.78.78,0,0,1-.78-.78v-1.973a.78.78,0,1,1,1.559,0v1.973a.78.78,0,0,1-.78.78Z" transform="translate(-213.543 -108.672)" fill="#ff4b7c"/>
        <path id="Path_1584" data-name="Path 1584" d="M213.936,116.071a.78.78,0,0,1-.551-1.331l1.4-1.4a.78.78,0,1,1,1.1,1.1l-1.4,1.4A.777.777,0,0,1,213.936,116.071Z" transform="translate(-180.815 -97.95)" fill="#ff4b7c"/>
        <path id="Path_1585" data-name="Path 1585" d="M199.444,83.206h-1.973a.78.78,0,1,1,0-1.559h1.973a.78.78,0,0,1,0,1.559Z" transform="translate(-167.202 -71.934)" fill="#ff4b7c"/>
        <path id="Path_1586" data-name="Path 1586" d="M215.17,45.012a.777.777,0,0,1-.551-.228l-1.4-1.4a.78.78,0,1,1,1.1-1.1l1.4,1.4a.78.78,0,0,1-.551,1.331Z" transform="translate(-180.681 -39.204)" fill="#ff4b7c"/>
        <path id="Path_1587" data-name="Path 1587" d="M53.912,205.417v1.644l-3.2,1.889-9.469,5.592a2.04,2.04,0,0,1-2.075,0l-12.666-7.481v-1.644a1.25,1.25,0,0,1,.176-.643l13.527,7.988,13.527-7.988A1.249,1.249,0,0,1,53.912,205.417Z" transform="translate(-26.505 -173.726)" fill="#ff4b7c"/>
        <path id="Path_1588" data-name="Path 1588" d="M54.577,201.823,41.05,209.811l-13.527-7.988a1.257,1.257,0,0,1,1.083-.618H53.494a1.257,1.257,0,0,1,1.083.618Z" transform="translate(-27.347 -170.776)" fill="#ff4b7c"/>
      </g>
      <path id="Path_1589" data-name="Path 1589" d="M53.907,202.462V218.3a1.261,1.261,0,0,1-1.261,1.261H27.759A1.261,1.261,0,0,1,26.5,218.3V202.462a1.262,1.262,0,0,1,1.261-1.261H52.646a1.262,1.262,0,0,1,1.261,1.261Z" transform="translate(-6.133 -159.859)" fill="#001e6e"/>
      <path id="Path_1590" data-name="Path 1590" d="M71.983,223.19v12.292a.523.523,0,0,1-.522.522H50.213Z" transform="translate(-25.738 -178.038)" fill="#43a6ee"/>
      <path id="Path_1591" data-name="Path 1591" d="M59.666,211.743V213.3L37.9,226.109H35.839a.524.524,0,0,1-.524-.522V211.743a.524.524,0,0,1,.524-.522H59.144A.523.523,0,0,1,59.666,211.743Z" transform="translate(-13.421 -168.143)" fill="#005bd0"/>
      <path id="Path_1592" data-name="Path 1592" d="M87.921,183.737v1.589H86.361v-1.589a.18.18,0,0,0-.178-.18H80.288a.18.18,0,0,0-.178.18v1.589H78.55v-1.589A1.742,1.742,0,0,1,80.288,182h5.895A1.742,1.742,0,0,1,87.921,183.737Z" transform="translate(-49.165 -143.983)" fill="#001e6e"/>
      <path id="Path_1593" data-name="Path 1593" d="M54.577,201.823,41.05,209.811l-13.527-7.988a1.257,1.257,0,0,1,1.083-.618H53.494a1.257,1.257,0,0,1,1.083.618Z" transform="translate(-6.98 -159.862)" fill="#ff4b7c"/>
      <path id="Path_1594" data-name="Path 1594" d="M53.917,205.42v1.644l-3.332,1.968-9.334,5.514a2.037,2.037,0,0,1-2.076,0L26.51,207.065V205.42a1.258,1.258,0,0,1,.175-.643l13.526,7.984,8.475-5,5.054-2.984a1.242,1.242,0,0,1,.177.643Z" transform="translate(-6.143 -162.816)" fill="#f11760"/>
      <path id="Path_1595" data-name="Path 1595" d="M153.667,201.823l-5.043,2.977a4.4,4.4,0,0,1-1.244-3.069,3.987,3.987,0,0,1,.032-.527h5.171A1.257,1.257,0,0,1,153.667,201.823Z" transform="translate(-106.07 -159.862)" fill="#ff86a7"/>
      <rect id="Rectangle_8088" data-name="Rectangle 8088" width="3.889" height="2.511" rx="1.256" transform="translate(32.126 51.104)" fill="#fff"/>
      <path id="Path_1596" data-name="Path 1596" d="M159.721,205.42v1.644l-3.332,1.968a5.062,5.062,0,0,1-1.9-1.272l5.054-2.984a1.242,1.242,0,0,1,.177.643Z" transform="translate(-111.947 -162.816)" fill="#ff4b7c"/>
      <path id="Path_1597" data-name="Path 1597" d="M192.488,7.837a13.549,13.549,0,1,0,13.55,13.55,13.549,13.549,0,0,0-13.55-13.55Zm0,25.539a11.952,11.952,0,1,1,8.489-3.5,11.984,11.984,0,0,1-8.489,3.5Z" transform="translate(-132.161)" fill="#1a92ea"/>
      <path id="Path_1598" data-name="Path 1598" d="M256.049,61.682h-2.695a.78.78,0,0,1-.78-.78V56.381a.78.78,0,0,1,1.559,0v3.742h1.915a.78.78,0,0,1,0,1.559Z" transform="translate(-193.036 -39.488)" fill="#001e6e"/>
      <path id="Path_1599" data-name="Path 1599" d="M402.3,210.25a7.249,7.249,0,0,1-2.741,5.676l-8.565,6.8a1.932,1.932,0,0,1-2.4,0l-4.24-3.368,1.2-1.038,13.569-11.739,1.187-1.026c.026.024.054.05.08.076A6.5,6.5,0,0,1,402.3,210.25Z" transform="translate(-301.978 -163.46)" fill="#ff4b7c"/>
      <path id="Path_1600" data-name="Path 1600" d="M366.591,196.791l-1.187,1.026-13.569,11.739-1.2,1.038-4.325-3.434a7.245,7.245,0,0,1-2.741-5.676,6.528,6.528,0,0,1,11.973-3.6.641.641,0,0,0,1.066,0,6.529,6.529,0,0,1,4.313-2.828,6.526,6.526,0,0,1,5.669,1.738Z" transform="translate(-268.264 -154.694)" fill="#f11760"/>
      <path id="Path_1601" data-name="Path 1601" d="M406.459,215.144a5.656,5.656,0,0,1-2.152,4.455l-8.563,6.8a.372.372,0,0,1-.464,0l-4.01-3.185,10.471-9.059,3.1-2.681c.047.042.092.087.137.13s.088.088.132.135a4.822,4.822,0,0,1,.579.745c.035.054.068.107.1.163s.047.083.071.125.055.1.081.156c.017.035.035.069.052.106.026.055.05.111.074.17.017.04.035.08.05.121s.038.1.055.149.045.126.064.191.04.13.057.2.036.142.052.215A4.911,4.911,0,0,1,406.459,215.144Z" transform="translate(-307.699 -168.355)" fill="#ff749a"/>
      <path id="Path_1602" data-name="Path 1602" d="M372.845,205.258,359.276,217l-4.554-3.618a5.656,5.656,0,0,1-2.152-4.455,4.969,4.969,0,0,1,9.114-2.741,2.2,2.2,0,0,0,3.665,0,4.964,4.964,0,0,1,7.5-.927Z" transform="translate(-275.705 -162.136)" fill="#ff4b7c"/>
      <path id="Path_1603" data-name="Path 1603" d="M447.015,196.794l-1.187,1.026a4.964,4.964,0,0,0-4.978-1.029,4.107,4.107,0,0,1,.5-1.734,6.526,6.526,0,0,1,5.67,1.738Z" transform="translate(-348.688 -154.697)" fill="#ff4b7c"/>
      <path id="Path_1604" data-name="Path 1604" d="M472.306,207.852a4.125,4.125,0,0,1-1.222,1.332,4.969,4.969,0,0,0-1.5-2.6l1.187-1.026c.026.024.054.05.08.076a6.552,6.552,0,0,1,1.459,2.218Z" transform="translate(-372.44 -163.46)" fill="#ff86a7"/>
      <path id="Path_1605" data-name="Path 1605" d="M445.8,205.26l-3.1,2.681a4.125,4.125,0,0,1-1.887-3.467c0-.081,0-.161.007-.243A4.964,4.964,0,0,1,445.8,205.26Z" transform="translate(-348.655 -162.137)" fill="#ff86a7"/>
      <path id="Path_1606" data-name="Path 1606" d="M456.3,214.078a4.127,4.127,0,0,1-4.6.08l3.1-2.681c.047.042.092.087.137.13s.088.088.132.135a4.823,4.823,0,0,1,.579.745c.035.054.068.107.1.163s.047.083.071.125.055.1.081.156c.017.035.035.069.052.106.026.055.05.111.074.17.017.04.035.08.05.121s.038.1.055.149.045.126.064.191.04.13.057.2S456.287,214.005,456.3,214.078Z" transform="translate(-357.658 -168.355)" fill="#ffd2de"/>
      <path id="Path_1607" data-name="Path 1607" d="M57.042,330.985l-.4,1.559h-14.3a5.509,5.509,0,0,1-4.718-2.684l-3.777-6.354H19.86a.78.78,0,1,1,0-1.559H50.333a.78.78,0,1,1,0,1.559H35.664l3.3,5.557a3.95,3.95,0,0,0,3.379,1.922Z" transform="translate(0 -259.683)" fill="#78bff3"/>
      <path id="Path_1608" data-name="Path 1608" d="M312.288,322.727a.78.78,0,0,1-.78.78H298.042l-3.776,6.354a5.513,5.513,0,0,1-4.718,2.684h-14.7l-.419-1.559h15.118a3.944,3.944,0,0,0,3.377-1.922l3.3-5.557H281.035a.78.78,0,1,1,0-1.559h30.474a.779.779,0,0,1,.78.78Z" transform="translate(-211.105 -259.683)" fill="#78bff3"/>
      <path id="Path_1609" data-name="Path 1609" d="M99,330.947a2.673,2.673,0,0,1-2.63,2.192H94.08a2.671,2.671,0,0,1-2.63-2.192Z" transform="translate(-59.83 -267.124)" fill="#1a92ea"/>
      <path id="Path_1610" data-name="Path 1610" d="M144.881,476.022h34.359a2.744,2.744,0,0,1,2.744,2.744v1.3a.829.829,0,0,1-.829.829H142.965a.829.829,0,0,1-.829-.829v-1.3a2.744,2.744,0,0,1,2.744-2.744Z" transform="translate(-101.734 -387.06)" fill="#1a6fd0"/>
      <path id="Path_1611" data-name="Path 1611" d="M227.9,355.167H212.41l.393-1.559,3.675-14.539.4-1.559,1.656-6.555a1.477,1.477,0,0,1,2.859-.021l1.767,6.576.419,1.559,3.909,14.539Z" transform="translate(-159.831 -266.207)" fill="#1a92ea"/>
      <path id="Path_1612" data-name="Path 1612" d="M227.9,468.576H212.41l.393-1.559h14.681Z" transform="translate(-159.831 -379.616)" fill="#264084"/>
      <path id="Path_1613" data-name="Path 1613" d="M387.55,330.947a2.671,2.671,0,0,1-2.63,2.192H382.63a2.673,2.673,0,0,1-2.63-2.192Z" transform="translate(-298.382 -267.124)" fill="#1a92ea"/>
    </g>
  </g>
</svg>
