<svg id="work-from-home" xmlns="http://www.w3.org/2000/svg" width="86" height="86" viewBox="0 0 86 86">
  <rect id="Rectangle_8090" data-name="Rectangle 8090" width="86" height="86" fill="#fff"/>
  <g id="work-from-home-2" data-name="work-from-home" transform="translate(-6.794)">
    <g id="Group_13252" data-name="Group 13252" transform="translate(16.336 4.821)">
      <path id="Path_1554" data-name="Path 1554" d="M120.332,49.947,87.315,26.234,54.281,49.947V107.4h66.051Z" transform="translate(-54.281 -26.234)" fill="#e0e9ef"/>
    </g>
    <g id="Group_13263" data-name="Group 13263" transform="translate(10.923 25.004)">
      <g id="Group_13259" data-name="Group 13259" transform="translate(21.616)">
        <g id="Group_13256" data-name="Group 13256">
          <g id="Group_13253" data-name="Group 13253" transform="translate(11.673 25.565)">
            <path id="Path_1555" data-name="Path 1555" d="M205.975,275.189h10.3V292.22h-10.3Z" transform="translate(-205.975 -275.189)" fill="#ffbdb0"/>
          </g>
          <g id="Group_13254" data-name="Group 13254" transform="translate(7.661 7.747)">
            <path id="Path_1556" data-name="Path 1556" d="M201.678,178.226H184.93a.789.789,0,0,0-.789.789V191.1a9.163,9.163,0,1,0,18.326,0V179.015A.789.789,0,0,0,201.678,178.226Z" transform="translate(-184.141 -178.226)" fill="#fed9c9"/>
          </g>
          <path id="Path_1557" data-name="Path 1557" d="M181.458,165.694a3.39,3.39,0,0,1-.7-2.08V148.636l-.016-.006a13.341,13.341,0,0,0-26.652.35l-.015.006v14.666a3.39,3.39,0,0,1-.686,2.065,5.229,5.229,0,0,0,0,6.293,3.389,3.389,0,0,1,.686,2.065v3.79l8.116-.028V164.264a9.153,9.153,0,0,1-4.012-7.578v-4.831a16.76,16.76,0,0,0,9.2-6.367,16.824,16.824,0,0,0,9.126,6.319v4.879a9.152,9.152,0,0,1-4.012,7.578v13.22h8.261v-3.372a3.39,3.39,0,0,1,.7-2.08,5.23,5.23,0,0,0,0-6.337Z" transform="translate(-150.524 -136.068)" fill="#4c4c4c"/>
          <g id="Group_13255" data-name="Group 13255" transform="translate(0 33.738)">
            <path id="Path_1558" data-name="Path 1558" d="M164.426,319.667h0a5.29,5.29,0,0,1-10.3,0h0a11.714,11.714,0,0,0-11.673,11.754v15.456h29.827a3.816,3.816,0,0,0,3.82-3.812V331.421A11.714,11.714,0,0,0,164.426,319.667Z" transform="translate(-142.452 -319.667)" fill="#e87367"/>
          </g>
        </g>
        <g id="Group_13258" data-name="Group 13258" transform="translate(13.384 49.314)">
          <g id="Group_13257" data-name="Group 13257">
            <path id="Path_1559" data-name="Path 1559" d="M228.682,404.426v5.909l-7.455.781a2.268,2.268,0,0,0-2.268-2.268h-1.405a2.268,2.268,0,0,0-2.268,2.268v2.677a2.268,2.268,0,0,0,2.268,2.268h14.175a3.816,3.816,0,0,0,3.82-3.812v-7.823h-6.867Z" transform="translate(-215.285 -404.426)" fill="#fed9c9"/>
          </g>
        </g>
      </g>
      <g id="Group_13262" data-name="Group 13262" transform="translate(0 39.901)">
        <g id="Group_13260" data-name="Group 13260">
          <path id="Path_1560" data-name="Path 1560" d="M24.835,355.9,26.67,374.3H53.9l1.868-18.4a2.447,2.447,0,0,0-2.436-2.694H27.271a2.447,2.447,0,0,0-2.436,2.69Z" transform="translate(-24.823 -353.206)" fill="#567999"/>
        </g>
        <g id="Group_13261" data-name="Group 13261" transform="translate(12.024 7.11)">
          <ellipse id="Ellipse_89" data-name="Ellipse 89" cx="3.443" cy="3.437" rx="3.443" ry="3.437" fill="#fff"/>
        </g>
      </g>
    </g>
    <g id="Group_13264" data-name="Group 13264" transform="translate(7.794)">
      <path id="Path_1561" data-name="Path 1561" d="M86.4,35.985,49.281,9.642,12.318,35.829,7.794,29.4,49.285,0,90.93,29.554Z" transform="translate(-7.794)" fill="#9bb6c6"/>
    </g>
  </g>
</svg>
